{
.appVersion = "939";
copyright = "Copyright 2016 Google Inc. All Rights Reserved.";
customParameters = (
{
name = description;
value = "Designed by Monotype design team.";
},
{
name = license;
value = "This Font Software is licensed under the SIL Open Font License, Version 1.1. This Font Software is distributed on an \"AS IS\" BASIS, WITHOUT WARRANTIES OR CONDITIONS OF ANY KIND, either express or implied. See the SIL Open Font License for the specific language, permissions and limitations governing your use of this Font Software.";
},
{
name = licenseURL;
value = "http://scripts.sil.org/OFL";
},
{
name = vendorID;
value = GOOG;
},
{
name = trademark;
value = "Noto is a trademark of Google Inc.";
},
{
name = fsType;
value = ();
},
{
name = panose;
value = (
2,
4,
5,
3,
5,
3,
6,
2,
2,
3
);
},
{
name = unicodeRanges;
value = (
71
);
},
{
name = codePageRanges;
value = (
1252,
1255,
1256,
1258,
932,
936,
949,
950,
1361,
869,
866,
865,
864,
863,
862,
861,
860,
857,
855,
852,
737,
850,
437
);
},
{
name = glyphOrder;
value = (
.notdef,
uni0000,
uni000D,
space,
afii61664,
afii301,
afii299,
afii300,
uni0710,
g9,
g10,
g11,
g12,
uni0711,
uni0712,
g15,
g16,
g17,
uni0713,
g19,
g20,
g21,
uni0714,
g23,
g24,
g25,
uni0715,
g27,
uni0716,
g29,
uni0717,
g31,
uni0718,
g33,
uni0719,
g35,
uni071A,
g37,
g38,
g39,
uni071B,
g41,
g42,
g43,
uni071C,
g45,
g46,
g47,
uni071D,
g49,
g50,
g51,
uni071E,
uni071F,
g54,
g55,
g56,
uni0720,
g58,
g59,
g60,
uni0721,
g62,
g63,
g64,
uni0722,
g66,
g67,
g68,
uni0723,
g70,
g71,
g72,
uni0724,
g74,
g75,
g76,
uni0725,
g78,
g79,
g80,
uni0726,
g82,
g83,
g84,
uni0727,
g86,
g87,
g88,
uni0728,
g90,
uni0729,
g92,
g93,
g94,
uni072A,
g96,
uni072B,
g98,
g99,
g100,
uni072C,
g102,
uni072D,
g104,
g105,
g106,
uni072E,
g108,
g109,
g110,
uni072F,
g112,
uni074D,
g114,
uni074E,
g116,
g117,
g118,
uni074F,
g120,
g121,
g122,
afii57409,
afii57440,
uni0700,
uni0701,
uni0702,
uni0703,
uni0704,
uni0705,
uni0706,
uni0707,
uni0708,
uni0709,
uni070A,
uni070B,
uni070C,
uni070D,
uni070F,

glyphs = (
{
glyphname = .notdef;
lastChange = "2016-11-30 01:19:36 +0000";
layers = (
{
layerId = "E7EC2184-43D4-43F6-AF81-545272527AF8";
paths = (
{
closed = 1;
nodes = (
"1034 0 LINE",
"1034 1462 LINE",
"193 1462 LINE",
"193 0 LINE"
);
},
{
closed = 1;
nodes = (
"297 1358 LINE",
"930 1358 LINE",
"930 104 LINE",
"297 104 LINE"
);
}
);
width = 1229;
}
);
note = .notdef;
},
{
glyphname = afii61664;
lastChange = "2016-11-30 01:19:36 +0000";
layers = (
{
layerId = "E7EC2184-43D4-43F6-AF81-545272527AF8";
paths = (
{
closed = 1;
nodes = (
"36 0 LINE",
"36 1462 LINE",
"-36 1462 LINE",
"-36 0 LINE"
);
}
);
width = 0;
}
);
note = afii61664;
unicode = 200C;
},
{
glyphname = afii301;
lastChange = "2016-11-30 01:19:36 +0000";
layers = (
{
layerId = "E7EC2184-43D4-43F6-AF81-545272527AF8";
paths = (
{
closed = 1;
nodes = (
"36 0 LINE",
"36 1185 LINE",
"170 1049 LINE",
"219 1098 LINE",
"48 1267 LINE",
"219 1435 LINE",
"170 1484 LINE",
"0 1313 LINE",
"-170 1484 LINE",
"-219 1435 LINE",
"-48 1267 LINE",
"-219 1098 LINE",
"-170 1049 LINE",
"-36 1185 LINE",
"-36 0 LINE"
);
}
);
width = 0;
}
);
note = afii301;
unicode = 200D;
},
{
glyphname = afii299;
lastChange = "2016-11-30 01:19:36 +0000";
layers = (
{
layerId = "E7EC2184-43D4-43F6-AF81-545272527AF8";
paths = (
{
closed = 1;
nodes = (
"35 0 LINE",
"35 1234 LINE",
"301 1234 LINE",
"164 1104 LINE",
"213 1055 LINE",
"430 1269 LINE",
"213 1484 LINE",
"164 1435 LINE",
"301 1305 LINE",
"-36 1305 LINE",
"-36 0 LINE"
);
}
);
width = 0;
}
);
note = afii299;
unicode = 200E;
},
{
glyphname = afii300;
lastChange = "2016-11-30 01:19:36 +0000";
layers = (
{
layerId = "E7EC2184-43D4-43F6-AF81-545272527AF8";
paths = (
{
closed = 1;
nodes = (
"35 0 LINE",
"35 1305 LINE",
"-302 1305 LINE",
"-165 1435 LINE",
"-214 1484 LINE",
"-431 1269 LINE",
"-214 1055 LINE",
"-165 1104 LINE",
"-302 1234 LINE",
"-36 1234 LINE",
"-36 0 LINE"
);
}
);
width = 0;
}
);
note = afii300;
unicode = 200F;
},
{
glyphname = uni0710;
lastChange = "2016-11-30 01:19:36 +0000";
layers = (
{
layerId = "E7EC2184-43D4-43F6-AF81-545272527AF8";
paths = (
{
closed = 1;
nodes = (
"263 -184 LINE",
"367 -108 LINE",
"324 4 OFFCURVE",
"304 92 OFFCURVE",
"304 233 CURVE SMOOTH",
"304 380 OFFCURVE",
"339 490 OFFCURVE",
"392 627 CURVE SMOOTH",
"445 763 OFFCURVE",
"480 891 OFFCURVE",
"480 1019 CURVE SMOOTH",
"480 1182 OFFCURVE",
"420 1286 OFFCURVE",
"292 1393 CURVE",
"283 1392 LINE",
"185 1276 LINE",
"313 1148 OFFCURVE",
"333 1092 OFFCURVE",
"333 997 CURVE SMOOTH",
"333 904 OFFCURVE",
"303 784 OFFCURVE",
"242 637 CURVE SMOOTH",
"181 489 OFFCURVE",
"150 347 OFFCURVE",
"150 210 CURVE SMOOTH",
"150 45 OFFCURVE",
"183 -89 OFFCURVE",
"235 -184 CURVE"
);
}
);
width = 620;
}
);
note = uni0710;
unicode = 0710;
},
{
glyphname = g9;
lastChange = "2016-11-30 01:19:36 +0000";
layers = (
{
layerId = "E7EC2184-43D4-43F6-AF81-545272527AF8";
paths = (
{
closed = 1;
nodes = (
"323 -102 OFFCURVE",
"350 63 OFFCURVE",
"350 291 CURVE SMOOTH",
"350 1380 LINE",
"200 1380 LINE",
"200 289 LINE SMOOTH",
"200 82 OFFCURVE",
"170 -60 OFFCURVE",
"129 -132 CURVE",
"251 -193 LINE"
);
}
);
width = 550;
}
);
note = g9;
},
{
glyphname = g10;
lastChange = "2016-11-30 01:19:36 +0000";
layers = (
{
layerId = "E7EC2184-43D4-43F6-AF81-545272527AF8";
paths = (
{
closed = 1;
nodes = (
"323 -102 OFFCURVE",
"350 63 OFFCURVE",
"350 291 CURVE SMOOTH",
"350 1380 LINE",
"200 1380 LINE",
"200 289 LINE SMOOTH",
"200 82 OFFCURVE",
"170 -60 OFFCURVE",
"129 -132 CURVE",
"251 -193 LINE"
);
}
);
width = 550;
}
);
note = g10;
},
{
glyphname = g11;
lastChange = "2016-11-30 01:19:36 +0000";
layers = (
{
layerId = "E7EC2184-43D4-43F6-AF81-545272527AF8";
paths = (
{
closed = 1;
nodes = (
"295 -137 OFFCURVE",
"322 -51 OFFCURVE",
"337 62 CURVE",
"343 62 LINE",
"380 19 OFFCURVE",
"446 0 OFFCURVE",
"550 0 CURVE",
"550 155 LINE",
"476 155 OFFCURVE",
"424 161 OFFCURVE",
"394 174 CURVE SMOOTH",
"364 186 OFFCURVE",
"349 204 OFFCURVE",
"349 228 CURVE SMOOTH",
"350 291 LINE",
"350 1380 LINE",
"200 1380 LINE",
"200 289 LINE SMOOTH",
"200 82 OFFCURVE",
"170 -60 OFFCURVE",
"129 -132 CURVE",
"251 -193 LINE"
);
}
);
width = 550;
}
);
note = g11;
},
{
glyphname = g12;
lastChange = "2016-11-30 01:19:36 +0000";
layers = (
{
layerId = "E7EC2184-43D4-43F6-AF81-545272527AF8";
paths = (
{
closed = 1;
nodes = (
"295 -137 OFFCURVE",
"322 -51 OFFCURVE",
"337 62 CURVE",
"343 62 LINE",
"380 19 OFFCURVE",
"446 0 OFFCURVE",
"550 0 CURVE",
"550 155 LINE",
"476 155 OFFCURVE",
"424 161 OFFCURVE",
"394 174 CURVE SMOOTH",
"364 186 OFFCURVE",
"349 204 OFFCURVE",
"349 228 CURVE SMOOTH",
"350 291 LINE",
"350 1380 LINE",
"200 1380 LINE",
"200 289 LINE SMOOTH",
"200 82 OFFCURVE",
"170 -60 OFFCURVE",
"129 -132 CURVE",
"251 -193 LINE"
);
}
);
width = 550;
}
);
note = g12;
},
{
glyphname = uni0711;
lastChange = "2016-11-30 01:19:36 +0000";
layers = (
{
layerId = "E7EC2184-43D4-43F6-AF81-545272527AF8";
paths = (
{
closed = 1;
nodes = (
"26 1151 LINE",
"9 1202 OFFCURVE",
"6 1223 OFFCURVE",
"6 1250 CURVE",
"7 1275 LINE SMOOTH",
"8 1302 OFFCURVE",
"18 1342 OFFCURVE",
"39 1395 CURVE SMOOTH",
"59 1447 OFFCURVE",
"69 1493 OFFCURVE",
"69 1532 CURVE SMOOTH",
"69 1587 OFFCURVE",
"51 1628 OFFCURVE",
"-5 1675 CURVE",
"-59 1625 LINE",
"-23 1594 OFFCURVE",
"-6 1558 OFFCURVE",
"-6 1522 CURVE SMOOTH",
"-6 1491 OFFCURVE",
"-17 1448 OFFCURVE",
"-38 1395 CURVE SMOOTH",
"-60 1342 OFFCURVE",
"-71 1292 OFFCURVE",
"-71 1245 CURVE SMOOTH",
"-71 1201 OFFCURVE",
"-61 1160 OFFCURVE",
"-40 1121 CURVE"
);
}
);
width = 0;
}
);
note = uni0711;
unicode = 0711;
},
{
glyphname = uni0712;
lastChange = "2016-11-30 01:19:36 +0000";
layers = (
{
layerId = "E7EC2184-43D4-43F6-AF81-545272527AF8";
paths = (
{
closed = 1;
nodes = (
"1359 0 LINE SMOOTH",
"1575 0 OFFCURVE",
"1685 93 OFFCURVE",
"1685 268 CURVE SMOOTH",
"1685 593 OFFCURVE",
"1362 847 OFFCURVE",
"985 847 CURVE SMOOTH",
"900 847 OFFCURVE",
"761 820 OFFCURVE",
"702 792 CURVE",
"736 661 LINE",
"792 678 OFFCURVE",
"901 695 OFFCURVE",
"964 695 CURVE SMOOTH",
"1260 695 OFFCURVE",
"1534 495 OFFCURVE",
"1534 275 CURVE SMOOTH",
"1534 198 OFFCURVE",
"1479 155 OFFCURVE",
"1390 155 CURVE SMOOTH",
"577 155 LINE SMOOTH",
"373 155 OFFCURVE",
"261 257 OFFCURVE",
"261 436 CURVE SMOOTH",
"261 451 LINE",
"125 443 LINE",
"124 438 OFFCURVE",
"122 423 OFFCURVE",
"122 410 CURVE",
"120 380 LINE",
"120 141 OFFCURVE",
"285 0 OFFCURVE",
"560 0 CURVE SMOOTH"
);
}
);
width = 1825;
}
);
note = uni0712;
unicode = 0712;
},
{
glyphname = g15;
lastChange = "2016-11-30 01:19:36 +0000";
layers = (
{
layerId = "E7EC2184-43D4-43F6-AF81-545272527AF8";
paths = (
{
closed = 1;
nodes = (
"1815 0 LINE",
"1815 155 LINE",
"1720 155 LINE",
"1695 154 OFFCURVE",
"1671 153 OFFCURVE",
"1647 152 CURVE",
"1644 159 LINE",
"1673 194 OFFCURVE",
"1686 249 OFFCURVE",
"1686 298 CURVE SMOOTH",
"1686 586 OFFCURVE",
"1354 847 OFFCURVE",
"985 847 CURVE SMOOTH",
"900 847 OFFCURVE",
"761 820 OFFCURVE",
"702 792 CURVE",
"736 661 LINE",
"792 678 OFFCURVE",
"901 695 OFFCURVE",
"964 695 CURVE SMOOTH",
"1260 695 OFFCURVE",
"1534 495 OFFCURVE",
"1534 275 CURVE SMOOTH",
"1534 198 OFFCURVE",
"1479 155 OFFCURVE",
"1390 155 CURVE SMOOTH",
"577 155 LINE SMOOTH",
"373 155 OFFCURVE",
"261 257 OFFCURVE",
"261 436 CURVE SMOOTH",
"261 451 LINE",
"125 443 LINE",
"124 438 OFFCURVE",
"122 423 OFFCURVE",
"122 410 CURVE",
"120 380 LINE",
"120 141 OFFCURVE",
"285 0 OFFCURVE",
"560 0 CURVE SMOOTH"
);
}
);
width = 1815;
}
);
note = g15;
},
{
glyphname = g16;
lastChange = "2016-11-30 01:19:36 +0000";
layers = (
{
layerId = "E7EC2184-43D4-43F6-AF81-545272527AF8";
paths = (
{
closed = 1;
nodes = (
"1232 0 LINE",
"1232 155 LINE",
"1137 155 LINE",
"1112 154 OFFCURVE",
"1088 153 OFFCURVE",
"1064 152 CURVE",
"1061 159 LINE",
"1092 195 OFFCURVE",
"1103 251 OFFCURVE",
"1103 298 CURVE SMOOTH",
"1103 585 OFFCURVE",
"774 847 OFFCURVE",
"402 847 CURVE SMOOTH",
"317 847 OFFCURVE",
"178 820 OFFCURVE",
"119 792 CURVE",
"153 661 LINE",
"209 678 OFFCURVE",
"318 695 OFFCURVE",
"381 695 CURVE SMOOTH",
"677 695 OFFCURVE",
"951 495 OFFCURVE",
"951 275 CURVE SMOOTH",
"951 198 OFFCURVE",
"896 155 OFFCURVE",
"807 155 CURVE SMOOTH",
"0 155 LINE SMOOTH",
"-44 155 OFFCURVE",
"-80 125 OFFCURVE",
"-80 77 CURVE SMOOTH",
"-80 29 OFFCURVE",
"-44 0 OFFCURVE",
"0 0 CURVE SMOOTH"
);
}
);
width = 1232;
}
);
note = g16;
},
{
glyphname = g17;
lastChange = "2016-11-30 01:19:36 +0000";
layers = (
{
layerId = "E7EC2184-43D4-43F6-AF81-545272527AF8";
paths = (
{
closed = 1;
nodes = (
"776 0 LINE SMOOTH",
"992 0 OFFCURVE",
"1102 93 OFFCURVE",
"1102 268 CURVE SMOOTH",
"1102 593 OFFCURVE",
"779 847 OFFCURVE",
"402 847 CURVE SMOOTH",
"317 847 OFFCURVE",
"178 820 OFFCURVE",
"119 792 CURVE",
"153 661 LINE",
"209 678 OFFCURVE",
"318 695 OFFCURVE",
"381 695 CURVE SMOOTH",
"677 695 OFFCURVE",
"951 495 OFFCURVE",
"951 275 CURVE SMOOTH",
"951 198 OFFCURVE",
"896 155 OFFCURVE",
"807 155 CURVE SMOOTH",
"0 155 LINE SMOOTH",
"-44 155 OFFCURVE",
"-80 125 OFFCURVE",
"-80 77 CURVE SMOOTH",
"-80 29 OFFCURVE",
"-44 0 OFFCURVE",
"0 0 CURVE SMOOTH"
);
}
);
width = 1242;
}
);
note = g17;
},
{
glyphname = uni0713;
lastChange = "2016-11-30 01:19:36 +0000";
layers = (
{
layerId = "E7EC2184-43D4-43F6-AF81-545272527AF8";
paths = (
{
closed = 1;
nodes = (
"1598 -801 OFFCURVE",
"1727 -678 OFFCURVE",
"1727 -530 CURVE SMOOTH",
"1727 -450 OFFCURVE",
"1695 -388 OFFCURVE",
"1611 -325 CURVE SMOOTH",
"797 284 LINE",
"705 155 LINE",
"1523 -451 LINE SMOOTH",
"1554 -474 OFFCURVE",
"1571 -499 OFFCURVE",
"1571 -530 CURVE SMOOTH",
"1571 -595 OFFCURVE",
"1502 -646 OFFCURVE",
"1403 -646 CURVE SMOOTH",
"1314 -646 OFFCURVE",
"1248 -607 OFFCURVE",
"1187 -560 CURVE SMOOTH",
"438 0 LINE SMOOTH",
"322 85 OFFCURVE",
"270 174 OFFCURVE",
"270 283 CURVE SMOOTH",
"270 330 OFFCURVE",
"281 365 OFFCURVE",
"301 408 CURVE",
"186 480 LINE",
"143 423 OFFCURVE",
"120 347 OFFCURVE",
"120 267 CURVE SMOOTH",
"120 122 OFFCURVE",
"190 -10 OFFCURVE",
"337 -122 CURVE SMOOTH",
"1072 -671 LINE SMOOTH",
"1196 -763 OFFCURVE",
"1299 -801 OFFCURVE",
"1398 -801 CURVE SMOOTH"
);
}
);
width = 1737;
}
);
note = uni0713;
unicode = 0713;
},
{
glyphname = g19;
lastChange = "2016-11-30 01:19:36 +0000";
layers = (
{
layerId = "E7EC2184-43D4-43F6-AF81-545272527AF8";
paths = (
{
closed = 1;
nodes = (
"1598 -801 OFFCURVE",
"1727 -678 OFFCURVE",
"1727 -530 CURVE SMOOTH",
"1727 -450 OFFCURVE",
"1695 -388 OFFCURVE",
"1611 -325 CURVE SMOOTH",
"1321 -108 LINE SMOOTH",
"1305 -96 OFFCURVE",
"1266 -69 OFFCURVE",
"1227 -42 CURVE SMOOTH",
"1172 -6 LINE SMOOTH",
"1155 5 OFFCURVE",
"1144 12 OFFCURVE",
"1138 15 CURVE",
"1138 21 LINE",
"1187 13 LINE SMOOTH",
"1246 4 OFFCURVE",
"1290 0 OFFCURVE",
"1315 0 CURVE SMOOTH",
"1325 0 LINE",
"1325 155 LINE",
"969 155 LINE",
"797 284 LINE",
"705 155 LINE",
"1523 -451 LINE SMOOTH",
"1554 -474 OFFCURVE",
"1571 -499 OFFCURVE",
"1571 -530 CURVE SMOOTH",
"1571 -595 OFFCURVE",
"1502 -646 OFFCURVE",
"1403 -646 CURVE SMOOTH",
"1314 -646 OFFCURVE",
"1248 -607 OFFCURVE",
"1187 -560 CURVE SMOOTH",
"438 0 LINE SMOOTH",
"322 85 OFFCURVE",
"270 174 OFFCURVE",
"270 283 CURVE SMOOTH",
"270 330 OFFCURVE",
"281 365 OFFCURVE",
"301 408 CURVE",
"186 480 LINE",
"143 423 OFFCURVE",
"120 347 OFFCURVE",
"120 267 CURVE SMOOTH",
"120 122 OFFCURVE",
"190 -10 OFFCURVE",
"337 -122 CURVE SMOOTH",
"1072 -671 LINE SMOOTH",
"1196 -763 OFFCURVE",
"1299 -801 OFFCURVE",
"1398 -801 CURVE SMOOTH"
);
}
);
width = 1325;
}
);
note = g19;
},
{
glyphname = g20;
lastChange = "2016-11-30 01:19:36 +0000";
layers = (
{
layerId = "E7EC2184-43D4-43F6-AF81-545272527AF8";
paths = (
{
closed = 1;
nodes = (
"1566 -801 OFFCURVE",
"1695 -678 OFFCURVE",
"1695 -530 CURVE SMOOTH",
"1695 -450 OFFCURVE",
"1663 -388 OFFCURVE",
"1579 -325 CURVE SMOOTH",
"1289 -108 LINE SMOOTH",
"1273 -96 OFFCURVE",
"1234 -69 OFFCURVE",
"1195 -42 CURVE SMOOTH",
"1140 -6 LINE SMOOTH",
"1123 5 OFFCURVE",
"1112 12 OFFCURVE",
"1106 15 CURVE",
"1106 21 LINE",
"1155 13 LINE SMOOTH",
"1214 4 OFFCURVE",
"1258 0 OFFCURVE",
"1283 0 CURVE SMOOTH",
"1293 0 LINE",
"1293 155 LINE",
"934 155 LINE",
"765 284 LINE",
"673 155 LINE",
"1491 -451 LINE SMOOTH",
"1522 -474 OFFCURVE",
"1539 -499 OFFCURVE",
"1539 -530 CURVE SMOOTH",
"1539 -595 OFFCURVE",
"1470 -646 OFFCURVE",
"1371 -646 CURVE SMOOTH",
"1282 -646 OFFCURVE",
"1216 -607 OFFCURVE",
"1155 -560 CURVE SMOOTH",
"383 18 LINE SMOOTH",
"219 137 OFFCURVE",
"140 155 OFFCURVE",
"53 155 CURVE SMOOTH",
"0 155 LINE SMOOTH",
"-44 155 OFFCURVE",
"-80 126 OFFCURVE",
"-80 78 CURVE SMOOTH",
"-80 30 OFFCURVE",
"-44 0 OFFCURVE",
"0 0 CURVE SMOOTH",
"35 0 LINE SMOOTH",
"104 0 OFFCURVE",
"167 -20 OFFCURVE",
"282 -104 CURVE SMOOTH",
"1040 -671 LINE SMOOTH",
"1164 -763 OFFCURVE",
"1267 -801 OFFCURVE",
"1366 -801 CURVE SMOOTH"
);
}
);
width = 1293;
}
);
note = g20;
},
{
glyphname = g21;
lastChange = "2016-11-30 01:19:36 +0000";
layers = (
{
layerId = "E7EC2184-43D4-43F6-AF81-545272527AF8";
paths = (
{
closed = 1;
nodes = (
"1566 -801 OFFCURVE",
"1695 -678 OFFCURVE",
"1695 -530 CURVE SMOOTH",
"1695 -450 OFFCURVE",
"1663 -388 OFFCURVE",
"1579 -325 CURVE SMOOTH",
"712 324 LINE",
"620 195 LINE",
"1491 -451 LINE SMOOTH",
"1522 -474 OFFCURVE",
"1539 -499 OFFCURVE",
"1539 -530 CURVE SMOOTH",
"1539 -595 OFFCURVE",
"1470 -646 OFFCURVE",
"1371 -646 CURVE SMOOTH",
"1282 -646 OFFCURVE",
"1216 -607 OFFCURVE",
"1155 -560 CURVE SMOOTH",
"383 18 LINE SMOOTH",
"219 137 OFFCURVE",
"140 155 OFFCURVE",
"53 155 CURVE SMOOTH",
"0 155 LINE SMOOTH",
"-44 155 OFFCURVE",
"-80 126 OFFCURVE",
"-80 78 CURVE SMOOTH",
"-80 30 OFFCURVE",
"-44 0 OFFCURVE",
"0 0 CURVE SMOOTH",
"35 0 LINE SMOOTH",
"104 0 OFFCURVE",
"167 -20 OFFCURVE",
"282 -104 CURVE SMOOTH",
"1040 -671 LINE SMOOTH",
"1164 -763 OFFCURVE",
"1267 -801 OFFCURVE",
"1366 -801 CURVE SMOOTH"
);
}
);
width = 1705;
}
);
note = g21;
},
{
glyphname = g23;
lastChange = "2016-11-30 01:19:36 +0000";
layers = (
{
layerId = "E7EC2184-43D4-43F6-AF81-545272527AF8";
paths = (
{
closed = 1;
nodes = (
"1598 -801 OFFCURVE",
"1727 -678 OFFCURVE",
"1727 -530 CURVE SMOOTH",
"1727 -450 OFFCURVE",
"1695 -388 OFFCURVE",
"1611 -325 CURVE SMOOTH",
"1321 -108 LINE SMOOTH",
"1305 -96 OFFCURVE",
"1266 -69 OFFCURVE",
"1227 -42 CURVE SMOOTH",
"1172 -6 LINE SMOOTH",
"1155 5 OFFCURVE",
"1144 12 OFFCURVE",
"1138 15 CURVE",
"1138 21 LINE",
"1187 13 LINE SMOOTH",
"1246 4 OFFCURVE",
"1290 0 OFFCURVE",
"1315 0 CURVE SMOOTH",
"1325 0 LINE",
"1325 155 LINE",
"969 155 LINE",
"797 284 LINE",
"705 155 LINE",
"1523 -451 LINE SMOOTH",
"1554 -474 OFFCURVE",
"1571 -499 OFFCURVE",
"1571 -530 CURVE SMOOTH",
"1571 -595 OFFCURVE",
"1502 -646 OFFCURVE",
"1403 -646 CURVE SMOOTH",
"1314 -646 OFFCURVE",
"1248 -607 OFFCURVE",
"1187 -560 CURVE SMOOTH",
"438 0 LINE SMOOTH",
"322 85 OFFCURVE",
"270 174 OFFCURVE",
"270 283 CURVE SMOOTH",
"270 330 OFFCURVE",
"281 365 OFFCURVE",
"301 408 CURVE",
"186 480 LINE",
"143 423 OFFCURVE",
"120 347 OFFCURVE",
"120 267 CURVE SMOOTH",
"120 122 OFFCURVE",
"190 -10 OFFCURVE",
"337 -122 CURVE SMOOTH",
"1072 -671 LINE SMOOTH",
"1196 -763 OFFCURVE",
"1299 -801 OFFCURVE",
"1398 -801 CURVE SMOOTH"
);
},
{
closed = 1;
nodes = (
"982 -283 OFFCURVE",
"1018 -254 OFFCURVE",
"1018 -199 CURVE SMOOTH",
"1018 -143 OFFCURVE",
"982 -115 OFFCURVE",
"942 -115 CURVE SMOOTH",
"897 -115 OFFCURVE",
"864 -143 OFFCURVE",
"864 -199 CURVE SMOOTH",
"864 -254 OFFCURVE",
"897 -283 OFFCURVE",
"942 -283 CURVE SMOOTH"
);
}
);
width = 1325;
}
);
note = g23;
},
{
glyphname = g24;
lastChange = "2016-11-30 01:19:36 +0000";
layers = (
{
layerId = "E7EC2184-43D4-43F6-AF81-545272527AF8";
paths = (
{
closed = 1;
nodes = (
"1566 -801 OFFCURVE",
"1695 -678 OFFCURVE",
"1695 -530 CURVE SMOOTH",
"1695 -450 OFFCURVE",
"1663 -388 OFFCURVE",
"1579 -325 CURVE SMOOTH",
"1289 -108 LINE SMOOTH",
"1273 -96 OFFCURVE",
"1234 -69 OFFCURVE",
"1195 -42 CURVE SMOOTH",
"1140 -6 LINE SMOOTH",
"1123 5 OFFCURVE",
"1112 12 OFFCURVE",
"1106 15 CURVE",
"1106 21 LINE",
"1155 13 LINE SMOOTH",
"1214 4 OFFCURVE",
"1258 0 OFFCURVE",
"1283 0 CURVE SMOOTH",
"1293 0 LINE",
"1293 155 LINE",
"934 155 LINE",
"765 284 LINE",
"673 155 LINE",
"1491 -451 LINE SMOOTH",
"1522 -474 OFFCURVE",
"1539 -499 OFFCURVE",
"1539 -530 CURVE SMOOTH",
"1539 -595 OFFCURVE",
"1470 -646 OFFCURVE",
"1371 -646 CURVE SMOOTH",
"1282 -646 OFFCURVE",
"1216 -607 OFFCURVE",
"1155 -560 CURVE SMOOTH",
"383 18 LINE SMOOTH",
"219 137 OFFCURVE",
"140 155 OFFCURVE",
"53 155 CURVE SMOOTH",
"0 155 LINE SMOOTH",
"-44 155 OFFCURVE",
"-80 126 OFFCURVE",
"-80 78 CURVE SMOOTH",
"-80 30 OFFCURVE",
"-44 0 OFFCURVE",
"0 0 CURVE SMOOTH",
"35 0 LINE SMOOTH",
"104 0 OFFCURVE",
"167 -20 OFFCURVE",
"282 -104 CURVE SMOOTH",
"1040 -671 LINE SMOOTH",
"1164 -763 OFFCURVE",
"1267 -801 OFFCURVE",
"1366 -801 CURVE SMOOTH"
);
},
{
closed = 1;
nodes = (
"950 -283 OFFCURVE",
"986 -254 OFFCURVE",
"986 -199 CURVE SMOOTH",
"986 -143 OFFCURVE",
"950 -115 OFFCURVE",
"910 -115 CURVE SMOOTH",
"865 -115 OFFCURVE",
"832 -143 OFFCURVE",
"832 -199 CURVE SMOOTH",
"832 -254 OFFCURVE",
"865 -283 OFFCURVE",
"910 -283 CURVE SMOOTH"
);
}
);
width = 1293;
}
);
note = g24;
},
{
glyphname = g25;
lastChange = "2016-11-30 01:19:36 +0000";
layers = (
{
layerId = "E7EC2184-43D4-43F6-AF81-545272527AF8";
paths = (
{
closed = 1;
nodes = (
"1566 -801 OFFCURVE",
"1695 -678 OFFCURVE",
"1695 -530 CURVE SMOOTH",
"1695 -450 OFFCURVE",
"1663 -388 OFFCURVE",
"1579 -325 CURVE SMOOTH",
"712 324 LINE",
"620 195 LINE",
"1491 -451 LINE SMOOTH",
"1522 -474 OFFCURVE",
"1539 -499 OFFCURVE",
"1539 -530 CURVE SMOOTH",
"1539 -595 OFFCURVE",
"1470 -646 OFFCURVE",
"1371 -646 CURVE SMOOTH",
"1282 -646 OFFCURVE",
"1216 -607 OFFCURVE",
"1155 -560 CURVE SMOOTH",
"383 18 LINE SMOOTH",
"219 137 OFFCURVE",
"140 155 OFFCURVE",
"53 155 CURVE SMOOTH",
"0 155 LINE SMOOTH",
"-44 155 OFFCURVE",
"-80 126 OFFCURVE",
"-80 78 CURVE SMOOTH",
"-80 30 OFFCURVE",
"-44 0 OFFCURVE",
"0 0 CURVE SMOOTH",
"35 0 LINE SMOOTH",
"104 0 OFFCURVE",
"167 -20 OFFCURVE",
"282 -104 CURVE SMOOTH",
"1040 -671 LINE SMOOTH",
"1164 -763 OFFCURVE",
"1267 -801 OFFCURVE",
"1366 -801 CURVE SMOOTH"
);
},
{
closed = 1;
nodes = (
"950 -283 OFFCURVE",
"986 -254 OFFCURVE",
"986 -199 CURVE SMOOTH",
"986 -143 OFFCURVE",
"950 -115 OFFCURVE",
"910 -115 CURVE SMOOTH",
"865 -115 OFFCURVE",
"832 -143 OFFCURVE",
"832 -199 CURVE SMOOTH",
"832 -254 OFFCURVE",
"865 -283 OFFCURVE",
"910 -283 CURVE SMOOTH"
);
}
);
width = 1705;
}
);
note = g25;
},
{
glyphname = g27;
lastChange = "2016-11-30 01:19:36 +0000";
layers = (
{
layerId = "E7EC2184-43D4-43F6-AF81-545272527AF8";
paths = (
{
closed = 1;
nodes = (
"366 -243 OFFCURVE",
"460 -130 OFFCURVE",
"507 7 CURVE",
"570 0 OFFCURVE",
"632 0 OFFCURVE",
"688 0 CURVE",
"688 155 LINE",
"571 155 OFFCURVE",
"531 186 OFFCURVE",
"484 256 CURVE SMOOTH",
"437 326 OFFCURVE",
"382 366 OFFCURVE",
"301 366 CURVE SMOOTH",
"212 366 OFFCURVE",
"140 294 OFFCURVE",
"140 206 CURVE SMOOTH",
"140 146 OFFCURVE",
"157 104 OFFCURVE",
"204 59 CURVE SMOOTH",
"259 8 LINE",
"276 -9 OFFCURVE",
"287 -26 OFFCURVE",
"290 -43 CURVE",
"290 -86 OFFCURVE",
"234 -171 OFFCURVE",
"170 -238 CURVE",
"258 -331 LINE"
);
},
{
closed = 1;
nodes = (
"343 -705 OFFCURVE",
"382 -665 OFFCURVE",
"382 -590 CURVE SMOOTH",
"382 -514 OFFCURVE",
"344 -474 OFFCURVE",
"276 -474 CURVE SMOOTH",
"212 -474 OFFCURVE",
"175 -514 OFFCURVE",
"175 -590 CURVE SMOOTH",
"175 -673 OFFCURVE",
"217 -705 OFFCURVE",
"276 -705 CURVE SMOOTH"
);
}
);
width = 688;
}
);
note = g27;
},
{
glyphname = uni0716;
lastChange = "2016-11-30 01:15:49 +0000";
layers = (
{
layerId = "E7EC2184-43D4-43F6-AF81-545272527AF8";
paths = (
{
closed = 1;
nodes = (
"505 -78 OFFCURVE",
"627 117 OFFCURVE",
"627 296 CURVE SMOOTH",
"627 472 OFFCURVE",
"527 581 OFFCURVE",
"383 581 CURVE SMOOTH",
"248 581 OFFCURVE",
"140 448 OFFCURVE",
"140 323 CURVE SMOOTH",
"140 226 OFFCURVE",
"194 145 OFFCURVE",
"283 83 CURVE SMOOTH",
"328 52 OFFCURVE",
"352 27 OFFCURVE",
"355 9 CURVE",
"306 -55 OFFCURVE",
"236 -119 OFFCURVE",
"172 -178 CURVE",
"277 -267 LINE"
);
}
);
width = 747;
}
);
note = uni0716;
unicode = 0716;
},
{
glyphname = g29;
lastChange = "2016-11-30 01:15:49 +0000";
layers = (
{
layerId = "E7EC2184-43D4-43F6-AF81-545272527AF8";
paths = (
{
closed = 1;
nodes = (
"366 -243 OFFCURVE",
"460 -130 OFFCURVE",
"507 7 CURVE",
"570 0 OFFCURVE",
"632 0 OFFCURVE",
"688 0 CURVE",
"688 155 LINE",
"571 155 OFFCURVE",
"531 186 OFFCURVE",
"484 256 CURVE SMOOTH",
"437 326 OFFCURVE",
"382 366 OFFCURVE",
"301 366 CURVE SMOOTH",
"212 366 OFFCURVE",
"140 294 OFFCURVE",
"140 206 CURVE SMOOTH",
"140 146 OFFCURVE",
"157 104 OFFCURVE",
"204 59 CURVE SMOOTH",
"259 8 LINE",
"276 -9 OFFCURVE",
"287 -26 OFFCURVE",
"290 -43 CURVE",
"290 -86 OFFCURVE",
"234 -171 OFFCURVE",
"170 -238 CURVE",
"258 -331 LINE"
);
}
);
width = 688;
}
);
note = g29;
},
{
glyphname = uni0717;
lastChange = "2016-11-30 01:19:36 +0000";
layers = (
{
layerId = "E7EC2184-43D4-43F6-AF81-545272527AF8";
paths = (
{
closed = 1;
nodes = (
"1335 114 OFFCURVE",
"1348 250 OFFCURVE",
"1348 411 CURVE SMOOTH",
"1348 536 OFFCURVE",
"1317 710 OFFCURVE",
"1270 818 CURVE",
"1154 793 LINE",
"1107 705 OFFCURVE",
"1054 605 OFFCURVE",
"1002 533 CURVE",
"995 533 LINE",
"948 729 OFFCURVE",
"775 855 OFFCURVE",
"543 855 CURVE SMOOTH",
"304 855 OFFCURVE",
"120 677 OFFCURVE",
"120 432 CURVE SMOOTH",
"120 177 OFFCURVE",
"302 0 OFFCURVE",
"562 0 CURVE SMOOTH",
"790 0 OFFCURVE",
"962 128 OFFCURVE",
"1005 323 CURVE",
"1077 410 OFFCURVE",
"1149 513 OFFCURVE",
"1180 572 CURVE",
"1187 573 LINE",
"1199 541 OFFCURVE",
"1206 463 OFFCURVE",
"1206 388 CURVE SMOOTH",
"1206 283 OFFCURVE",
"1191 127 OFFCURVE",
"1167 8 CURVE",
"1299 -15 LINE"
);
},
{
closed = 1;
nodes = (
"389 155 OFFCURVE",
"269 275 OFFCURVE",
"269 443 CURVE SMOOTH",
"269 598 OFFCURVE",
"388 705 OFFCURVE",
"543 705 CURVE SMOOTH",
"736 705 OFFCURVE",
"866 589 OFFCURVE",
"866 425 CURVE SMOOTH",
"866 262 OFFCURVE",
"751 155 OFFCURVE",
"582 155 CURVE SMOOTH"
);
}
);
width = 1498;
}
);
note = uni0717;
unicode = 0717;
},
{
glyphname = g31;
lastChange = "2016-11-30 01:19:36 +0000";
layers = (
{
layerId = "E7EC2184-43D4-43F6-AF81-545272527AF8";
paths = (
{
closed = 1;
nodes = (
"1307 16 OFFCURVE",
"1314 47 OFFCURVE",
"1321 80 CURVE",
"1327 80 LINE",
"1364 31 OFFCURVE",
"1428 0 OFFCURVE",
"1548 0 CURVE",
"1548 155 LINE",
"1482 155 OFFCURVE",
"1431 163 OFFCURVE",
"1395 179 CURVE SMOOTH",
"1359 195 OFFCURVE",
"1341 213 OFFCURVE",
"1341 234 CURVE SMOOTH",
"1341 254 OFFCURVE",
"1342 279 OFFCURVE",
"1345 308 CURVE SMOOTH",
"1347 337 OFFCURVE",
"1348 371 OFFCURVE",
"1348 411 CURVE SMOOTH",
"1348 536 OFFCURVE",
"1317 710 OFFCURVE",
"1270 818 CURVE",
"1154 793 LINE",
"1107 705 OFFCURVE",
"1054 605 OFFCURVE",
"1002 533 CURVE",
"995 533 LINE",
"948 729 OFFCURVE",
"775 855 OFFCURVE",
"543 855 CURVE SMOOTH",
"304 855 OFFCURVE",
"120 677 OFFCURVE",
"120 432 CURVE SMOOTH",
"120 177 OFFCURVE",
"302 0 OFFCURVE",
"562 0 CURVE SMOOTH",
"790 0 OFFCURVE",
"962 128 OFFCURVE",
"1005 323 CURVE",
"1077 410 OFFCURVE",
"1149 513 OFFCURVE",
"1180 572 CURVE",
"1187 573 LINE",
"1199 541 OFFCURVE",
"1206 463 OFFCURVE",
"1206 388 CURVE SMOOTH",
"1206 283 OFFCURVE",
"1191 127 OFFCURVE",
"1167 8 CURVE",
"1299 -15 LINE"
);
},
{
closed = 1;
nodes = (
"389 155 OFFCURVE",
"269 275 OFFCURVE",
"269 443 CURVE SMOOTH",
"269 598 OFFCURVE",
"388 705 OFFCURVE",
"543 705 CURVE SMOOTH",
"736 705 OFFCURVE",
"866 589 OFFCURVE",
"866 425 CURVE SMOOTH",
"866 262 OFFCURVE",
"751 155 OFFCURVE",
"582 155 CURVE SMOOTH"
);
}
);
width = 1548;
}
);
note = g31;
},
{
glyphname = uni0718;
lastChange = "2016-11-30 01:19:36 +0000";
layers = (
{
layerId = "E7EC2184-43D4-43F6-AF81-545272527AF8";
paths = (
{
closed = 1;
nodes = (
"816 0 OFFCURVE",
"987 155 OFFCURVE",
"987 402 CURVE SMOOTH",
"987 647 OFFCURVE",
"792 836 OFFCURVE",
"533 836 CURVE SMOOTH",
"294 836 OFFCURVE",
"120 671 OFFCURVE",
"120 435 CURVE SMOOTH",
"120 187 OFFCURVE",
"305 0 OFFCURVE",
"553 0 CURVE SMOOTH"
);
},
{
closed = 1;
nodes = (
"387 155 OFFCURVE",
"270 275 OFFCURVE",
"270 442 CURVE SMOOTH",
"270 587 OFFCURVE",
"382 686 OFFCURVE",
"533 686 CURVE SMOOTH",
"714 686 OFFCURVE",
"837 566 OFFCURVE",
"837 405 CURVE SMOOTH",
"837 248 OFFCURVE",
"732 155 OFFCURVE",
"572 155 CURVE SMOOTH"
);
}
);
width = 1107;
}
);
note = uni0718;
unicode = 0718;
},
{
glyphname = g33;
lastChange = "2016-11-30 01:19:36 +0000";
layers = (
{
layerId = "E7EC2184-43D4-43F6-AF81-545272527AF8";
paths = (
{
closed = 1;
nodes = (
"1132 0 LINE",
"1132 155 LINE",
"978 155 LINE",
"894 151 LINE",
"894 158 LINE",
"947 211 OFFCURVE",
"987 298 OFFCURVE",
"987 402 CURVE SMOOTH",
"987 647 OFFCURVE",
"792 836 OFFCURVE",
"533 836 CURVE SMOOTH",
"294 836 OFFCURVE",
"120 671 OFFCURVE",
"120 435 CURVE SMOOTH",
"120 174 OFFCURVE",
"304 0 OFFCURVE",
"595 0 CURVE SMOOTH"
);
},
{
closed = 1;
nodes = (
"387 155 OFFCURVE",
"270 275 OFFCURVE",
"270 442 CURVE SMOOTH",
"270 587 OFFCURVE",
"382 686 OFFCURVE",
"533 686 CURVE SMOOTH",
"714 686 OFFCURVE",
"837 566 OFFCURVE",
"837 405 CURVE SMOOTH",
"837 248 OFFCURVE",
"732 155 OFFCURVE",
"572 155 CURVE SMOOTH"
);
}
);
width = 1132;
}
);
note = g33;
},
{
glyphname = uni0719;
lastChange = "2016-11-30 01:19:36 +0000";
layers = (
{
layerId = "E7EC2184-43D4-43F6-AF81-545272527AF8";
paths = (
{
closed = 1;
nodes = (
"323 -102 OFFCURVE",
"350 63 OFFCURVE",
"350 291 CURVE SMOOTH",
"350 852 LINE",
"200 852 LINE",
"200 289 LINE SMOOTH",
"200 82 OFFCURVE",
"170 -60 OFFCURVE",
"129 -132 CURVE",
"251 -193 LINE"
);
}
);
width = 540;
}
);
note = uni0719;
unicode = 0719;
},
{
glyphname = g35;
lastChange = "2016-11-30 01:19:36 +0000";
layers = (
{
layerId = "E7EC2184-43D4-43F6-AF81-545272527AF8";
paths = (
{
closed = 1;
nodes = (
"296 -136 OFFCURVE",
"323 -48 OFFCURVE",
"338 67 CURVE",
"344 67 LINE",
"383 22 OFFCURVE",
"441 0 OFFCURVE",
"550 0 CURVE",
"550 155 LINE",
"476 155 OFFCURVE",
"424 161 OFFCURVE",
"394 174 CURVE SMOOTH",
"364 186 OFFCURVE",
"349 204 OFFCURVE",
"349 228 CURVE SMOOTH",
"350 291 LINE",
"350 852 LINE",
"200 852 LINE",
"200 289 LINE SMOOTH",
"200 82 OFFCURVE",
"170 -60 OFFCURVE",
"129 -132 CURVE",
"251 -193 LINE"
);
}
);
width = 550;
}
);
note = g35;
},
{
glyphname = uni071A;
lastChange = "2016-11-30 01:19:36 +0000";
layers = (
{
layerId = "E7EC2184-43D4-43F6-AF81-545272527AF8";
paths = (
{
closed = 1;
nodes = (
"635 -15 OFFCURVE",
"742 22 OFFCURVE",
"841 99 CURVE",
"908 26 OFFCURVE",
"986 0 OFFCURVE",
"1058 0 CURVE SMOOTH",
"1137 0 OFFCURVE",
"1201 27 OFFCURVE",
"1265 99 CURVE",
"1314 39 OFFCURVE",
"1352 10 OFFCURVE",
"1403 10 CURVE SMOOTH",
"1471 10 OFFCURVE",
"1508 46 OFFCURVE",
"1508 125 CURVE SMOOTH",
"1508 154 OFFCURVE",
"1497 205 OFFCURVE",
"1475 280 CURVE SMOOTH",
"1431 429 OFFCURVE",
"1397 493 OFFCURVE",
"1316 493 CURVE SMOOTH",
"1263 493 OFFCURVE",
"1240 466 OFFCURVE",
"1212 399 CURVE SMOOTH",
"1173 308 LINE SMOOTH",
"1138 224 OFFCURVE",
"1107 182 OFFCURVE",
"1081 182 CURVE SMOOTH",
"1061 182 OFFCURVE",
"1043 207 OFFCURVE",
"1028 256 CURVE SMOOTH",
"996 354 OFFCURVE",
"964 493 OFFCURVE",
"876 493 CURVE SMOOTH",
"832 493 OFFCURVE",
"801 472 OFFCURVE",
"782 431 CURVE SMOOTH",
"763 390 OFFCURVE",
"740 341 OFFCURVE",
"713 286 CURVE SMOOTH",
"657 174 OFFCURVE",
"587 140 OFFCURVE",
"496 140 CURVE SMOOTH",
"341 140 OFFCURVE",
"260 236 OFFCURVE",
"257 436 CURVE",
"124 428 LINE",
"123 425 OFFCURVE",
"122 421 OFFCURVE",
"122 416 CURVE",
"121 400 LINE",
"120 395 OFFCURVE",
"120 388 OFFCURVE",
"120 380 CURVE SMOOTH",
"120 116 OFFCURVE",
"251 -15 OFFCURVE",
"498 -15 CURVE SMOOTH"
);
}
);
width = 1648;
}
);
note = uni071A;
unicode = 071A;
},
{
glyphname = g37;
lastChange = "2016-11-30 01:19:36 +0000";
layers = (
{
layerId = "E7EC2184-43D4-43F6-AF81-545272527AF8";
paths = (
{
closed = 1;
nodes = (
"637 -15 OFFCURVE",
"747 22 OFFCURVE",
"844 99 CURVE",
"907 32 OFFCURVE",
"986 0 OFFCURVE",
"1070 0 CURVE SMOOTH",
"1150 0 OFFCURVE",
"1234 24 OFFCURVE",
"1311 99 CURVE",
"1391 19 OFFCURVE",
"1481 0 OFFCURVE",
"1666 0 CURVE",
"1666 155 LINE",
"1629 155 OFFCURVE",
"1598 157 OFFCURVE",
"1575 162 CURVE SMOOTH",
"1551 167 OFFCURVE",
"1534 171 OFFCURVE",
"1525 176 CURVE",
"1512 195 OFFCURVE",
"1492 243 OFFCURVE",
"1465 318 CURVE SMOOTH",
"1438 393 OFFCURVE",
"1415 441 OFFCURVE",
"1398 462 CURVE SMOOTH",
"1380 483 OFFCURVE",
"1357 493 OFFCURVE",
"1329 493 CURVE SMOOTH",
"1238 493 OFFCURVE",
"1210 389 OFFCURVE",
"1159 271 CURVE SMOOTH",
"1134 212 OFFCURVE",
"1109 182 OFFCURVE",
"1084 182 CURVE SMOOTH",
"1064 182 OFFCURVE",
"1046 208 OFFCURVE",
"1030 259 CURVE SMOOTH",
"997 362 OFFCURVE",
"963 493 OFFCURVE",
"876 493 CURVE SMOOTH",
"825 493 OFFCURVE",
"799 466 OFFCURVE",
"780 427 CURVE SMOOTH",
"723 304 LINE SMOOTH",
"658 167 OFFCURVE",
"581 140 OFFCURVE",
"496 140 CURVE SMOOTH",
"341 140 OFFCURVE",
"260 236 OFFCURVE",
"257 436 CURVE",
"124 428 LINE",
"123 425 OFFCURVE",
"122 421 OFFCURVE",
"122 416 CURVE",
"121 400 LINE",
"120 395 OFFCURVE",
"120 388 OFFCURVE",
"120 380 CURVE SMOOTH",
"120 116 OFFCURVE",
"251 -15 OFFCURVE",
"498 -15 CURVE SMOOTH"
);
}
);
width = 1666;
}
);
note = g37;
},
{
glyphname = g38;
lastChange = "2016-11-30 01:19:36 +0000";
layers = (
{
layerId = "E7EC2184-43D4-43F6-AF81-545272527AF8";
paths = (
{
closed = 1;
nodes = (
"10 0 LINE SMOOTH",
"126 1 OFFCURVE",
"231 24 OFFCURVE",
"327 99 CURVE",
"390 32 OFFCURVE",
"469 0 OFFCURVE",
"553 0 CURVE SMOOTH",
"636 1 OFFCURVE",
"718 26 OFFCURVE",
"794 99 CURVE",
"853 40 OFFCURVE",
"924 9 OFFCURVE",
"1060 2 CURVE SMOOTH",
"1088 0 LINE",
"1149 0 LINE",
"1149 155 LINE",
"1112 155 OFFCURVE",
"1081 157 OFFCURVE",
"1058 162 CURVE SMOOTH",
"1034 167 OFFCURVE",
"1017 171 OFFCURVE",
"1008 176 CURVE",
"995 195 OFFCURVE",
"975 243 OFFCURVE",
"948 318 CURVE SMOOTH",
"921 393 OFFCURVE",
"898 441 OFFCURVE",
"881 462 CURVE SMOOTH",
"863 483 OFFCURVE",
"840 493 OFFCURVE",
"812 493 CURVE SMOOTH",
"721 493 OFFCURVE",
"693 389 OFFCURVE",
"642 271 CURVE SMOOTH",
"617 212 OFFCURVE",
"592 182 OFFCURVE",
"567 182 CURVE SMOOTH",
"547 182 OFFCURVE",
"529 208 OFFCURVE",
"513 259 CURVE SMOOTH",
"480 362 OFFCURVE",
"446 493 OFFCURVE",
"359 493 CURVE SMOOTH",
"274 493 OFFCURVE",
"250 400 OFFCURVE",
"206 301 CURVE SMOOTH",
"162 201 OFFCURVE",
"123 155 OFFCURVE",
"0 155 CURVE SMOOTH",
"-44 155 OFFCURVE",
"-80 125 OFFCURVE",
"-80 77 CURVE SMOOTH",
"-80 29 OFFCURVE",
"-44 0 OFFCURVE",
"0 0 CURVE SMOOTH"
);
}
);
width = 1149;
}
);
note = g38;
},
{
glyphname = g39;
lastChange = "2016-11-30 01:19:36 +0000";
layers = (
{
layerId = "E7EC2184-43D4-43F6-AF81-545272527AF8";
paths = (
{
closed = 1;
nodes = (
"10 0 LINE SMOOTH",
"126 1 OFFCURVE",
"231 24 OFFCURVE",
"327 99 CURVE",
"395 24 OFFCURVE",
"472 0 OFFCURVE",
"536 0 CURVE SMOOTH",
"623 0 OFFCURVE",
"687 27 OFFCURVE",
"751 99 CURVE",
"800 39 OFFCURVE",
"838 10 OFFCURVE",
"889 10 CURVE SMOOTH",
"957 10 OFFCURVE",
"994 46 OFFCURVE",
"994 125 CURVE SMOOTH",
"994 154 OFFCURVE",
"983 205 OFFCURVE",
"961 280 CURVE SMOOTH",
"917 429 OFFCURVE",
"883 493 OFFCURVE",
"802 493 CURVE SMOOTH",
"749 493 OFFCURVE",
"726 466 OFFCURVE",
"698 399 CURVE SMOOTH",
"659 308 LINE SMOOTH",
"624 224 OFFCURVE",
"593 182 OFFCURVE",
"567 182 CURVE SMOOTH",
"547 182 OFFCURVE",
"529 208 OFFCURVE",
"513 259 CURVE SMOOTH",
"480 362 OFFCURVE",
"446 493 OFFCURVE",
"359 493 CURVE SMOOTH",
"274 493 OFFCURVE",
"250 400 OFFCURVE",
"205 297 CURVE SMOOTH",
"160 194 OFFCURVE",
"113 155 OFFCURVE",
"0 155 CURVE SMOOTH",
"-44 155 OFFCURVE",
"-80 125 OFFCURVE",
"-80 77 CURVE SMOOTH",
"-80 29 OFFCURVE",
"-44 0 OFFCURVE",
"0 0 CURVE SMOOTH"
);
}
);
width = 1134;
}
);
note = g39;
},
{
glyphname = uni071B;
lastChange = "2016-11-30 01:19:36 +0000";
layers = (
{
layerId = "E7EC2184-43D4-43F6-AF81-545272527AF8";
paths = (
{
closed = 1;
nodes = (
"816 -647 OFFCURVE",
"968 -495 OFFCURVE",
"968 -260 CURVE SMOOTH",
"968 -190 OFFCURVE",
"955 -130 OFFCURVE",
"930 -80 CURVE SMOOTH",
"878 20 OFFCURVE",
"801 87 OFFCURVE",
"577 183 CURVE",
"716 371 LINE SMOOTH",
"852 554 OFFCURVE",
"951 805 OFFCURVE",
"951 1004 CURVE SMOOTH",
"951 1167 OFFCURVE",
"909 1253 OFFCURVE",
"822 1342 CURVE",
"813 1341 LINE",
"715 1216 LINE",
"779 1144 OFFCURVE",
"801 1080 OFFCURVE",
"801 992 CURVE SMOOTH",
"801 916 OFFCURVE",
"780 826 OFFCURVE",
"737 723 CURVE SMOOTH",
"652 516 OFFCURVE",
"542 375 OFFCURVE",
"446 244 CURVE",
"361 280 OFFCURVE",
"242 391 OFFCURVE",
"190 467 CURVE",
"180 466 LINE",
"100 352 LINE",
"169 244 OFFCURVE",
"251 171 OFFCURVE",
"356 115 CURVE",
"288 6 OFFCURVE",
"239 -118 OFFCURVE",
"239 -274 CURVE SMOOTH",
"239 -493 OFFCURVE",
"384 -647 OFFCURVE",
"593 -647 CURVE SMOOTH"
);
},
{
closed = 1;
nodes = (
"468 -497 OFFCURVE",
"384 -394 OFFCURVE",
"384 -253 CURVE SMOOTH",
"384 -142 OFFCURVE",
"428 -37 OFFCURVE",
"491 55 CURVE",
"554 28 OFFCURVE",
"610 3 OFFCURVE",
"657 -21 CURVE SMOOTH",
"751 -69 OFFCURVE",
"823 -145 OFFCURVE",
"823 -257 CURVE SMOOTH",
"823 -404 OFFCURVE",
"734 -497 OFFCURVE",
"597 -497 CURVE SMOOTH"
);
}
);
width = 1078;
}
);
note = uni071B;
unicode = 071B;
},
{
glyphname = g41;
lastChange = "2016-11-30 01:19:36 +0000";
layers = (
{
layerId = "E7EC2184-43D4-43F6-AF81-545272527AF8";
paths = (
{
closed = 1;
nodes = (
"900 -647 OFFCURVE",
"1046 -496 OFFCURVE",
"1046 -260 CURVE SMOOTH",
"1046 -53 OFFCURVE",
"926 63 OFFCURVE",
"735 147 CURVE SMOOTH",
"588 213 LINE",
"628 350 OFFCURVE",
"655 585 OFFCURVE",
"655 788 CURVE SMOOTH",
"655 820 OFFCURVE",
"654 851 OFFCURVE",
"650 902 CURVE",
"660 902 LINE",
"693 839 OFFCURVE",
"787 692 OFFCURVE",
"882 552 CURVE SMOOTH",
"950 451 LINE SMOOTH",
"992 388 OFFCURVE",
"1045 314 OFFCURVE",
"1110 227 CURVE SMOOTH",
"1238 54 OFFCURVE",
"1332 0 OFFCURVE",
"1499 0 CURVE",
"1499 155 LINE",
"1394 155 OFFCURVE",
"1349 166 OFFCURVE",
"1214 342 CURVE SMOOTH",
"1078 517 OFFCURVE",
"791 942 OFFCURVE",
"643 1213 CURVE",
"503 1155 LINE",
"514 1050 OFFCURVE",
"515 966 OFFCURVE",
"515 855 CURVE SMOOTH",
"515 646 OFFCURVE",
"492 421 OFFCURVE",
"453 274 CURVE",
"451 268 LINE",
"360 312 OFFCURVE",
"235 411 OFFCURVE",
"190 476 CURVE",
"180 475 LINE",
"100 361 LINE",
"161 265 OFFCURVE",
"258 187 OFFCURVE",
"410 116 CURVE",
"370 -1 OFFCURVE",
"345 -86 OFFCURVE",
"336 -139 CURVE SMOOTH",
"327 -192 OFFCURVE",
"322 -241 OFFCURVE",
"322 -284 CURVE SMOOTH",
"322 -499 OFFCURVE",
"476 -647 OFFCURVE",
"681 -647 CURVE SMOOTH"
);
},
{
closed = 1;
nodes = (
"556 -497 OFFCURVE",
"467 -398 OFFCURVE",
"467 -263 CURVE SMOOTH",
"467 -159 OFFCURVE",
"500 -46 OFFCURVE",
"543 66 CURVE",
"675 9 LINE SMOOTH",
"812 -51 OFFCURVE",
"901 -130 OFFCURVE",
"901 -257 CURVE SMOOTH",
"901 -410 OFFCURVE",
"818 -497 OFFCURVE",
"685 -497 CURVE SMOOTH"
);
}
);
width = 1499;
}
);
note = g41;
},
{
glyphname = g42;
lastChange = "2016-11-30 01:19:36 +0000";
layers = (
{
layerId = "E7EC2184-43D4-43F6-AF81-545272527AF8";
paths = (
{
closed = 1;
nodes = (
"635 -647 OFFCURVE",
"788 -493 OFFCURVE",
"788 -260 CURVE SMOOTH",
"788 -5 OFFCURVE",
"600 152 OFFCURVE",
"305 155 CURVE",
"354 318 OFFCURVE",
"397 587 OFFCURVE",
"397 788 CURVE SMOOTH",
"397 820 OFFCURVE",
"396 851 OFFCURVE",
"392 902 CURVE",
"402 902 LINE",
"433 843 OFFCURVE",
"580 614 OFFCURVE",
"692 451 CURVE SMOOTH",
"750 367 LINE",
"862 213 LINE SMOOTH",
"966 72 OFFCURVE",
"1062 0 OFFCURVE",
"1241 0 CURVE",
"1241 155 LINE",
"1136 155 OFFCURVE",
"1091 166 OFFCURVE",
"956 342 CURVE SMOOTH",
"820 517 OFFCURVE",
"533 942 OFFCURVE",
"385 1213 CURVE",
"245 1155 LINE",
"256 1050 OFFCURVE",
"257 966 OFFCURVE",
"257 855 CURVE SMOOTH",
"257 630 OFFCURVE",
"210 330 OFFCURVE",
"158 155 CURVE",
"0 155 LINE SMOOTH",
"-44 155 OFFCURVE",
"-80 125 OFFCURVE",
"-80 77 CURVE SMOOTH",
"-80 29 OFFCURVE",
"-44 0 OFFCURVE",
"0 0 CURVE SMOOTH",
"109 0 LINE",
"80 -89 OFFCURVE",
"59 -205 OFFCURVE",
"59 -274 CURVE SMOOTH",
"59 -494 OFFCURVE",
"206 -647 OFFCURVE",
"414 -647 CURVE SMOOTH"
);
},
{
closed = 1;
nodes = (
"286 -497 OFFCURVE",
"205 -393 OFFCURVE",
"205 -253 CURVE SMOOTH",
"205 -181 OFFCURVE",
"223 -88 OFFCURVE",
"258 0 CURVE",
"303 0 LINE SMOOTH",
"520 0 OFFCURVE",
"643 -92 OFFCURVE",
"643 -257 CURVE SMOOTH",
"643 -404 OFFCURVE",
"554 -497 OFFCURVE",
"417 -497 CURVE SMOOTH"
);
}
);
width = 1241;
}
);
note = g42;
},
{
glyphname = g43;
lastChange = "2016-11-30 01:19:36 +0000";
layers = (
{
layerId = "E7EC2184-43D4-43F6-AF81-545272527AF8";
paths = (
{
closed = 1;
nodes = (
"635 -647 OFFCURVE",
"788 -493 OFFCURVE",
"788 -260 CURVE SMOOTH",
"788 -9 OFFCURVE",
"608 145 OFFCURVE",
"329 154 CURVE",
"363 219 OFFCURVE",
"424 311 OFFCURVE",
"513 428 CURVE SMOOTH",
"690 663 OFFCURVE",
"771 841 OFFCURVE",
"771 1004 CURVE SMOOTH",
"771 1167 OFFCURVE",
"729 1253 OFFCURVE",
"642 1342 CURVE",
"633 1341 LINE",
"535 1216 LINE",
"599 1144 OFFCURVE",
"621 1080 OFFCURVE",
"621 992 CURVE SMOOTH",
"621 887 OFFCURVE",
"557 747 OFFCURVE",
"429 570 CURVE SMOOTH",
"301 393 OFFCURVE",
"214 255 OFFCURVE",
"168 155 CURVE",
"0 155 LINE SMOOTH",
"-44 155 OFFCURVE",
"-80 125 OFFCURVE",
"-80 77 CURVE SMOOTH",
"-80 29 OFFCURVE",
"-44 0 OFFCURVE",
"0 0 CURVE SMOOTH",
"107 0 LINE",
"78 -80 OFFCURVE",
"54 -170 OFFCURVE",
"54 -274 CURVE SMOOTH",
"54 -491 OFFCURVE",
"203 -647 OFFCURVE",
"414 -647 CURVE SMOOTH"
);
},
{
closed = 1;
nodes = (
"281 -497 OFFCURVE",
"199 -398 OFFCURVE",
"199 -253 CURVE SMOOTH",
"199 -181 OFFCURVE",
"218 -84 OFFCURVE",
"255 0 CURVE",
"303 0 LINE SMOOTH",
"520 0 OFFCURVE",
"643 -92 OFFCURVE",
"643 -257 CURVE SMOOTH",
"643 -404 OFFCURVE",
"554 -497 OFFCURVE",
"417 -497 CURVE SMOOTH"
);
}
);
width = 898;
}
);
note = g43;
},
{
glyphname = g45;
lastChange = "2016-11-30 01:19:36 +0000";
layers = (
{
layerId = "E7EC2184-43D4-43F6-AF81-545272527AF8";
paths = (
{
closed = 1;
nodes = (
"900 -647 OFFCURVE",
"1046 -496 OFFCURVE",
"1046 -260 CURVE SMOOTH",
"1046 -53 OFFCURVE",
"926 63 OFFCURVE",
"735 147 CURVE SMOOTH",
"588 213 LINE",
"628 350 OFFCURVE",
"655 585 OFFCURVE",
"655 788 CURVE SMOOTH",
"655 820 OFFCURVE",
"654 851 OFFCURVE",
"650 902 CURVE",
"660 902 LINE",
"693 839 OFFCURVE",
"787 692 OFFCURVE",
"882 552 CURVE SMOOTH",
"950 451 LINE SMOOTH",
"992 388 OFFCURVE",
"1045 314 OFFCURVE",
"1110 227 CURVE SMOOTH",
"1238 54 OFFCURVE",
"1332 0 OFFCURVE",
"1499 0 CURVE",
"1499 155 LINE",
"1394 155 OFFCURVE",
"1349 166 OFFCURVE",
"1214 342 CURVE SMOOTH",
"1078 517 OFFCURVE",
"791 942 OFFCURVE",
"643 1213 CURVE",
"503 1155 LINE",
"514 1050 OFFCURVE",
"515 966 OFFCURVE",
"515 855 CURVE SMOOTH",
"515 646 OFFCURVE",
"492 421 OFFCURVE",
"453 274 CURVE",
"451 268 LINE",
"360 312 OFFCURVE",
"235 411 OFFCURVE",
"190 476 CURVE",
"180 475 LINE",
"100 361 LINE",
"161 265 OFFCURVE",
"258 187 OFFCURVE",
"410 116 CURVE",
"370 -1 OFFCURVE",
"345 -86 OFFCURVE",
"336 -139 CURVE SMOOTH",
"327 -192 OFFCURVE",
"322 -241 OFFCURVE",
"322 -284 CURVE SMOOTH",
"322 -499 OFFCURVE",
"476 -647 OFFCURVE",
"681 -647 CURVE SMOOTH"
);
},
{
closed = 1;
nodes = (
"718 -323 OFFCURVE",
"754 -294 OFFCURVE",
"754 -239 CURVE SMOOTH",
"754 -183 OFFCURVE",
"718 -155 OFFCURVE",
"678 -155 CURVE SMOOTH",
"633 -155 OFFCURVE",
"600 -183 OFFCURVE",
"600 -239 CURVE SMOOTH",
"600 -294 OFFCURVE",
"633 -323 OFFCURVE",
"678 -323 CURVE SMOOTH"
);
},
{
closed = 1;
nodes = (
"556 -497 OFFCURVE",
"467 -398 OFFCURVE",
"467 -263 CURVE SMOOTH",
"467 -159 OFFCURVE",
"500 -46 OFFCURVE",
"543 66 CURVE",
"675 9 LINE SMOOTH",
"812 -51 OFFCURVE",
"901 -130 OFFCURVE",
"901 -257 CURVE SMOOTH",
"901 -410 OFFCURVE",
"818 -497 OFFCURVE",
"685 -497 CURVE SMOOTH"
);
}
);
width = 1499;
}
);
note = g45;
},
{
glyphname = g46;
lastChange = "2016-11-30 01:19:36 +0000";
layers = (
{
layerId = "E7EC2184-43D4-43F6-AF81-545272527AF8";
paths = (
{
closed = 1;
nodes = (
"635 -647 OFFCURVE",
"788 -493 OFFCURVE",
"788 -260 CURVE SMOOTH",
"788 -5 OFFCURVE",
"600 152 OFFCURVE",
"305 155 CURVE",
"354 318 OFFCURVE",
"397 587 OFFCURVE",
"397 788 CURVE SMOOTH",
"397 820 OFFCURVE",
"396 851 OFFCURVE",
"392 902 CURVE",
"402 902 LINE",
"433 843 OFFCURVE",
"580 614 OFFCURVE",
"692 451 CURVE SMOOTH",
"750 367 LINE",
"862 213 LINE SMOOTH",
"966 72 OFFCURVE",
"1062 0 OFFCURVE",
"1241 0 CURVE",
"1241 155 LINE",
"1136 155 OFFCURVE",
"1091 166 OFFCURVE",
"956 342 CURVE SMOOTH",
"820 517 OFFCURVE",
"533 942 OFFCURVE",
"385 1213 CURVE",
"245 1155 LINE",
"256 1050 OFFCURVE",
"257 966 OFFCURVE",
"257 855 CURVE SMOOTH",
"257 630 OFFCURVE",
"210 330 OFFCURVE",
"158 155 CURVE",
"0 155 LINE SMOOTH",
"-44 155 OFFCURVE",
"-80 125 OFFCURVE",
"-80 77 CURVE SMOOTH",
"-80 29 OFFCURVE",
"-44 0 OFFCURVE",
"0 0 CURVE SMOOTH",
"109 0 LINE",
"80 -89 OFFCURVE",
"59 -205 OFFCURVE",
"59 -274 CURVE SMOOTH",
"59 -494 OFFCURVE",
"206 -647 OFFCURVE",
"414 -647 CURVE SMOOTH"
);
},
{
closed = 1;
nodes = (
"286 -497 OFFCURVE",
"205 -393 OFFCURVE",
"205 -253 CURVE SMOOTH",
"205 -181 OFFCURVE",
"223 -88 OFFCURVE",
"258 0 CURVE",
"303 0 LINE SMOOTH",
"520 0 OFFCURVE",
"643 -92 OFFCURVE",
"643 -257 CURVE SMOOTH",
"643 -404 OFFCURVE",
"554 -497 OFFCURVE",
"417 -497 CURVE SMOOTH"
);
},
{
closed = 1;
nodes = (
"457 -323 OFFCURVE",
"493 -294 OFFCURVE",
"493 -239 CURVE SMOOTH",
"493 -183 OFFCURVE",
"457 -155 OFFCURVE",
"417 -155 CURVE SMOOTH",
"372 -155 OFFCURVE",
"339 -183 OFFCURVE",
"339 -239 CURVE SMOOTH",
"339 -294 OFFCURVE",
"372 -323 OFFCURVE",
"417 -323 CURVE SMOOTH"
);
}
);
width = 1241;
}
);
note = g46;
},
{
glyphname = g47;
lastChange = "2016-11-30 01:19:36 +0000";
layers = (
{
layerId = "E7EC2184-43D4-43F6-AF81-545272527AF8";
paths = (
{
closed = 1;
nodes = (
"635 -647 OFFCURVE",
"788 -493 OFFCURVE",
"788 -260 CURVE SMOOTH",
"788 -9 OFFCURVE",
"608 145 OFFCURVE",
"329 154 CURVE",
"363 219 OFFCURVE",
"424 311 OFFCURVE",
"513 428 CURVE SMOOTH",
"690 663 OFFCURVE",
"771 841 OFFCURVE",
"771 1004 CURVE SMOOTH",
"771 1167 OFFCURVE",
"729 1253 OFFCURVE",
"642 1342 CURVE",
"633 1341 LINE",
"535 1216 LINE",
"599 1144 OFFCURVE",
"621 1080 OFFCURVE",
"621 992 CURVE SMOOTH",
"621 887 OFFCURVE",
"557 747 OFFCURVE",
"429 570 CURVE SMOOTH",
"301 393 OFFCURVE",
"214 255 OFFCURVE",
"168 155 CURVE",
"0 155 LINE SMOOTH",
"-44 155 OFFCURVE",
"-80 125 OFFCURVE",
"-80 77 CURVE SMOOTH",
"-80 29 OFFCURVE",
"-44 0 OFFCURVE",
"0 0 CURVE SMOOTH",
"107 0 LINE",
"78 -80 OFFCURVE",
"54 -170 OFFCURVE",
"54 -274 CURVE SMOOTH",
"54 -491 OFFCURVE",
"203 -647 OFFCURVE",
"414 -647 CURVE SMOOTH"
);
},
{
closed = 1;
nodes = (
"281 -497 OFFCURVE",
"199 -398 OFFCURVE",
"199 -253 CURVE SMOOTH",
"199 -181 OFFCURVE",
"218 -84 OFFCURVE",
"255 0 CURVE",
"303 0 LINE SMOOTH",
"520 0 OFFCURVE",
"643 -92 OFFCURVE",
"643 -257 CURVE SMOOTH",
"643 -404 OFFCURVE",
"554 -497 OFFCURVE",
"417 -497 CURVE SMOOTH"
);
},
{
closed = 1;
nodes = (
"455 -323 OFFCURVE",
"491 -294 OFFCURVE",
"491 -239 CURVE SMOOTH",
"491 -183 OFFCURVE",
"455 -155 OFFCURVE",
"415 -155 CURVE SMOOTH",
"370 -155 OFFCURVE",
"337 -183 OFFCURVE",
"337 -239 CURVE SMOOTH",
"337 -294 OFFCURVE",
"370 -323 OFFCURVE",
"415 -323 CURVE SMOOTH"
);
}
);
width = 898;
}
);
note = g47;
},
{
glyphname = uni071D;
lastChange = "2016-11-30 01:19:36 +0000";
layers = (
{
layerId = "E7EC2184-43D4-43F6-AF81-545272527AF8";
paths = (
{
closed = 1;
nodes = (
"677 -15 OFFCURVE",
"757 -12 OFFCURVE",
"816 -5 CURVE SMOOTH",
"932 8 OFFCURVE",
"1004 84 OFFCURVE",
"1004 217 CURVE SMOOTH",
"1004 354 OFFCURVE",
"952 459 OFFCURVE",
"868 459 CURVE SMOOTH",
"830 459 OFFCURVE",
"801 447 OFFCURVE",
"780 424 CURVE SMOOTH",
"759 400 OFFCURVE",
"742 345 OFFCURVE",
"730 260 CURVE SMOOTH",
"714 148 LINE",
"677 143 OFFCURVE",
"632 141 OFFCURVE",
"560 141 CURVE SMOOTH",
"351 141 OFFCURVE",
"260 242 OFFCURVE",
"257 426 CURVE",
"124 418 LINE",
"122 413 OFFCURVE",
"121 404 OFFCURVE",
"121 393 CURVE",
"120 371 LINE",
"120 110 OFFCURVE",
"260 -15 OFFCURVE",
"575 -15 CURVE SMOOTH"
);
}
);
width = 1144;
}
);
note = uni071D;
unicode = 071D;
},
{
glyphname = g49;
lastChange = "2016-11-30 01:19:36 +0000";
layers = (
{
layerId = "E7EC2184-43D4-43F6-AF81-545272527AF8";
paths = (
{
closed = 1;
nodes = (
"618 -15 OFFCURVE",
"756 21 OFFCURVE",
"848 86 CURVE",
"881 57 OFFCURVE",
"921 36 OFFCURVE",
"967 22 CURVE SMOOTH",
"1013 7 OFFCURVE",
"1098 0 OFFCURVE",
"1221 0 CURVE",
"1221 155 LINE",
"1198 155 OFFCURVE",
"1171 157 OFFCURVE",
"1140 160 CURVE SMOOTH",
"1076 166 OFFCURVE",
"1069 164 OFFCURVE",
"1036 243 CURVE SMOOTH",
"1022 275 LINE SMOOTH",
"992 346 OFFCURVE",
"967 391 OFFCURVE",
"948 411 CURVE SMOOTH",
"929 430 OFFCURVE",
"906 440 OFFCURVE",
"879 440 CURVE SMOOTH",
"823 440 OFFCURVE",
"797 413 OFFCURVE",
"777 374 CURVE SMOOTH",
"750 320 LINE SMOOTH",
"723 269 OFFCURVE",
"700 231 OFFCURVE",
"681 208 CURVE SMOOTH",
"642 160 OFFCURVE",
"579 140 OFFCURVE",
"506 140 CURVE SMOOTH",
"343 140 OFFCURVE",
"260 225 OFFCURVE",
"257 426 CURVE",
"124 418 LINE",
"123 415 OFFCURVE",
"122 411 OFFCURVE",
"122 406 CURVE",
"121 390 LINE",
"120 385 OFFCURVE",
"120 378 OFFCURVE",
"120 370 CURVE SMOOTH",
"120 110 OFFCURVE",
"251 -15 OFFCURVE",
"498 -15 CURVE SMOOTH"
);
}
);
width = 1221;
}
);
note = g49;
},
{
glyphname = g50;
lastChange = "2016-11-30 01:19:36 +0000";
layers = (
{
layerId = "E7EC2184-43D4-43F6-AF81-545272527AF8";
paths = (
{
closed = 1;
nodes = (
"150 0 OFFCURVE",
"246 25 OFFCURVE",
"345 86 CURVE",
"413 29 OFFCURVE",
"489 0 OFFCURVE",
"689 0 CURVE SMOOTH",
"728 0 LINE",
"728 155 LINE",
"709 155 OFFCURVE",
"680 157 OFFCURVE",
"642 160 CURVE SMOOTH",
"565 166 OFFCURVE",
"559 154 OFFCURVE",
"522 242 CURVE SMOOTH",
"508 274 LINE SMOOTH",
"478 345 OFFCURVE",
"453 390 OFFCURVE",
"434 410 CURVE SMOOTH",
"415 429 OFFCURVE",
"392 439 OFFCURVE",
"365 439 CURVE SMOOTH",
"320 439 OFFCURVE",
"289 421 OFFCURVE",
"270 385 CURVE SMOOTH",
"251 349 OFFCURVE",
"231 310 OFFCURVE",
"209 268 CURVE SMOOTH",
"164 183 OFFCURVE",
"115 155 OFFCURVE",
"0 155 CURVE SMOOTH",
"-44 155 OFFCURVE",
"-80 125 OFFCURVE",
"-80 77 CURVE SMOOTH",
"-80 29 OFFCURVE",
"-46 0 OFFCURVE",
"5 0 CURVE SMOOTH"
);
}
);
width = 728;
}
);
note = g50;
},
{
glyphname = g51;
lastChange = "2016-11-30 01:19:36 +0000";
layers = (
{
layerId = "E7EC2184-43D4-43F6-AF81-545272527AF8";
paths = (
{
closed = 1;
nodes = (
"84 0 LINE",
"257 3 LINE SMOOTH",
"433 7 OFFCURVE",
"513 83 OFFCURVE",
"513 231 CURVE SMOOTH",
"513 368 OFFCURVE",
"461 473 OFFCURVE",
"377 473 CURVE SMOOTH",
"339 473 OFFCURVE",
"310 461 OFFCURVE",
"289 438 CURVE SMOOTH",
"268 414 OFFCURVE",
"251 359 OFFCURVE",
"238 274 CURVE",
"239 274 LINE",
"223 162 LINE",
"186 157 OFFCURVE",
"141 155 OFFCURVE",
"69 155 CURVE SMOOTH",
"0 155 LINE SMOOTH",
"-44 155 OFFCURVE",
"-80 125 OFFCURVE",
"-80 77 CURVE SMOOTH",
"-80 29 OFFCURVE",
"-44 0 OFFCURVE",
"0 0 CURVE SMOOTH"
);
}
);
width = 653;
}
);
note = g51;
},
{
glyphname = uni071F;
lastChange = "2016-11-30 01:19:36 +0000";
layers = (
{
layerId = "E7EC2184-43D4-43F6-AF81-545272527AF8";
paths = (
{
closed = 1;
nodes = (
"729 0 LINE",
"752 0 LINE",
"761 1 OFFCURVE",
"771 1 OFFCURVE",
"782 1 CURVE",
"813 3 LINE SMOOTH",
"945 11 OFFCURVE",
"1013 84 OFFCURVE",
"1013 208 CURVE SMOOTH",
"1013 321 OFFCURVE",
"947 427 OFFCURVE",
"863 427 CURVE SMOOTH",
"768 427 OFFCURVE",
"720 323 OFFCURVE",
"637 167 CURVE SMOOTH",
"628 150 LINE",
"619 150 LINE SMOOTH",
"408 150 OFFCURVE",
"267 255 OFFCURVE",
"259 426 CURVE",
"125 418 LINE",
"122 407 OFFCURVE",
"120 382 OFFCURVE",
"120 375 CURVE SMOOTH",
"120 166 OFFCURVE",
"294 20 OFFCURVE",
"563 3 CURVE",
"168 -755 LINE",
"306 -818 LINE"
);
}
);
width = 1153;
}
);
note = uni071F;
unicode = 071F;
},
{
glyphname = g54;
lastChange = "2016-11-30 01:19:36 +0000";
layers = (
{
layerId = "E7EC2184-43D4-43F6-AF81-545272527AF8";
paths = (
{
closed = 1;
nodes = (
"729 0 LINE",
"1186 0 LINE",
"1186 155 LINE",
"1007 155 LINE",
"1011 172 OFFCURVE",
"1013 189 OFFCURVE",
"1013 208 CURVE SMOOTH",
"1013 321 OFFCURVE",
"947 427 OFFCURVE",
"863 427 CURVE SMOOTH",
"768 427 OFFCURVE",
"720 323 OFFCURVE",
"637 167 CURVE SMOOTH",
"628 150 LINE",
"617 150 LINE SMOOTH",
"401 150 OFFCURVE",
"267 250 OFFCURVE",
"259 426 CURVE",
"125 418 LINE",
"122 407 OFFCURVE",
"120 382 OFFCURVE",
"120 375 CURVE SMOOTH",
"120 168 OFFCURVE",
"295 17 OFFCURVE",
"562 -3 CURVE",
"168 -755 LINE",
"306 -818 LINE"
);
}
);
width = 1186;
}
);
note = g54;
},
{
glyphname = g55;
lastChange = "2016-11-30 01:19:36 +0000";
layers = (
{
layerId = "E7EC2184-43D4-43F6-AF81-545272527AF8";
paths = (
{
closed = 1;
nodes = (
"1151 0 LINE",
"1151 155 LINE",
"1046 155 LINE",
"1021 154 OFFCURVE",
"997 153 OFFCURVE",
"973 152 CURVE",
"970 159 LINE",
"1009 203 OFFCURVE",
"1022 274 OFFCURVE",
"1022 346 CURVE SMOOTH",
"1022 669 OFFCURVE",
"817 892 OFFCURVE",
"554 892 CURVE SMOOTH",
"342 892 OFFCURVE",
"160 734 OFFCURVE",
"115 515 CURVE",
"246 488 LINE",
"295 641 OFFCURVE",
"414 737 OFFCURVE",
"557 737 CURVE SMOOTH",
"737 737 OFFCURVE",
"870 571 OFFCURVE",
"870 344 CURVE SMOOTH",
"870 208 OFFCURVE",
"808 155 OFFCURVE",
"669 155 CURVE SMOOTH",
"0 155 LINE SMOOTH",
"-44 155 OFFCURVE",
"-80 125 OFFCURVE",
"-80 77 CURVE SMOOTH",
"-80 29 OFFCURVE",
"-44 0 OFFCURVE",
"0 0 CURVE SMOOTH"
);
}
);
width = 1151;
}
);
note = g55;
},
{
glyphname = g56;
lastChange = "2016-11-30 01:19:36 +0000";
layers = (
{
layerId = "E7EC2184-43D4-43F6-AF81-545272527AF8";
paths = (
{
closed = 1;
nodes = (
"651 0 LINE SMOOTH",
"896 0 OFFCURVE",
"1022 105 OFFCURVE",
"1022 326 CURVE SMOOTH",
"1022 665 OFFCURVE",
"818 892 OFFCURVE",
"554 892 CURVE SMOOTH",
"342 892 OFFCURVE",
"160 734 OFFCURVE",
"115 515 CURVE",
"246 488 LINE",
"295 641 OFFCURVE",
"414 737 OFFCURVE",
"557 737 CURVE SMOOTH",
"737 737 OFFCURVE",
"870 571 OFFCURVE",
"870 344 CURVE SMOOTH",
"870 208 OFFCURVE",
"808 155 OFFCURVE",
"669 155 CURVE SMOOTH",
"0 155 LINE SMOOTH",
"-44 155 OFFCURVE",
"-80 125 OFFCURVE",
"-80 77 CURVE SMOOTH",
"-80 29 OFFCURVE",
"-44 0 OFFCURVE",
"0 0 CURVE SMOOTH"
);
}
);
width = 1162;
}
);
note = g56;
},
{
glyphname = uni0720;
lastChange = "2016-11-30 01:19:36 +0000";
layers = (
{
layerId = "E7EC2184-43D4-43F6-AF81-545272527AF8";
paths = (
{
closed = 1;
nodes = (
"1018 -35 OFFCURVE",
"1117 53 OFFCURVE",
"1141 168 CURVE",
"1147 168 LINE",
"1192 115 LINE SMOOTH",
"1209 95 OFFCURVE",
"1222 79 OFFCURVE",
"1233 67 CURVE SMOOTH",
"1313 -24 LINE",
"1433 77 LINE",
"257 1420 LINE",
"140 1315 LINE",
"1006 327 LINE SMOOTH",
"1022 308 OFFCURVE",
"1035 283 OFFCURVE",
"1035 251 CURVE SMOOTH",
"1035 179 OFFCURVE",
"970 120 OFFCURVE",
"882 120 CURVE SMOOTH",
"819 120 OFFCURVE",
"772 144 OFFCURVE",
"675 253 CURVE SMOOTH",
"-279 1340 LINE",
"-396 1235 LINE",
"540 168 LINE SMOOTH",
"661 29 OFFCURVE",
"761 -35 OFFCURVE",
"874 -35 CURVE SMOOTH"
);
}
);
width = 1533;
}
);
note = uni0720;
unicode = 0720;
},
{
glyphname = g58;
lastChange = "2016-11-30 01:19:36 +0000";
layers = (
{
layerId = "E7EC2184-43D4-43F6-AF81-545272527AF8";
paths = (
{
closed = 1;
nodes = (
"1018 -35 OFFCURVE",
"1117 53 OFFCURVE",
"1141 168 CURVE",
"1147 168 LINE",
"1234 60 OFFCURVE",
"1316 0 OFFCURVE",
"1425 0 CURVE",
"1425 155 LINE",
"1382 155 OFFCURVE",
"1344 179 OFFCURVE",
"1304 224 CURVE SMOOTH",
"257 1420 LINE",
"140 1315 LINE",
"1009 323 LINE SMOOTH",
"1024 306 OFFCURVE",
"1035 280 OFFCURVE",
"1035 251 CURVE SMOOTH",
"1035 179 OFFCURVE",
"970 120 OFFCURVE",
"882 120 CURVE SMOOTH",
"819 120 OFFCURVE",
"772 144 OFFCURVE",
"675 253 CURVE SMOOTH",
"-279 1340 LINE",
"-396 1235 LINE",
"540 168 LINE SMOOTH",
"661 29 OFFCURVE",
"761 -35 OFFCURVE",
"874 -35 CURVE SMOOTH"
);
}
);
width = 1425;
}
);
note = g58;
},
{
glyphname = g59;
lastChange = "2016-11-30 01:19:36 +0000";
layers = (
{
layerId = "E7EC2184-43D4-43F6-AF81-545272527AF8";
paths = (
{
closed = 1;
nodes = (
"604 0 LINE SMOOTH",
"751 0 OFFCURVE",
"825 23 OFFCURVE",
"864 72 CURVE",
"915 28 OFFCURVE",
"972 0 OFFCURVE",
"1052 0 CURVE",
"1052 155 LINE",
"1009 155 OFFCURVE",
"971 179 OFFCURVE",
"931 224 CURVE SMOOTH",
"-116 1420 LINE",
"-233 1315 LINE",
"763 178 LINE",
"738 163 OFFCURVE",
"697 156 OFFCURVE",
"656 156 CURVE SMOOTH",
"626 155 LINE",
"0 155 LINE SMOOTH",
"-44 155 OFFCURVE",
"-80 125 OFFCURVE",
"-80 77 CURVE SMOOTH",
"-80 29 OFFCURVE",
"-44 0 OFFCURVE",
"0 0 CURVE SMOOTH"
);
}
);
width = 1052;
}
);
note = g59;
},
{
glyphname = g60;
lastChange = "2016-11-30 01:19:36 +0000";
layers = (
{
layerId = "E7EC2184-43D4-43F6-AF81-545272527AF8";
paths = (
{
closed = 1;
nodes = (
"1060 77 LINE",
"-116 1420 LINE",
"-233 1315 LINE",
"763 178 LINE",
"738 163 OFFCURVE",
"697 156 OFFCURVE",
"656 156 CURVE SMOOTH",
"626 155 LINE",
"0 155 LINE SMOOTH",
"-44 155 OFFCURVE",
"-80 125 OFFCURVE",
"-80 77 CURVE SMOOTH",
"-80 29 OFFCURVE",
"-44 0 OFFCURVE",
"0 0 CURVE SMOOTH",
"604 0 LINE SMOOTH",
"745 0 OFFCURVE",
"820 20 OFFCURVE",
"860 67 CURVE",
"940 -24 LINE"
);
}
);
width = 1160;
}
);
note = g60;
},
{
glyphname = uni0721;
lastChange = "2016-11-30 01:19:36 +0000";
layers = (
{
layerId = "E7EC2184-43D4-43F6-AF81-545272527AF8";
paths = (
{
closed = 1;
nodes = (
"453 -590 OFFCURVE",
"497 -351 OFFCURVE",
"497 -112 CURVE SMOOTH",
"497 -15 OFFCURVE",
"486 72 OFFCURVE",
"470 141 CURVE",
"477 144 LINE",
"545 44 OFFCURVE",
"638 -9 OFFCURVE",
"785 -9 CURVE SMOOTH",
"1032 -9 OFFCURVE",
"1218 165 OFFCURVE",
"1218 428 CURVE SMOOTH",
"1218 689 OFFCURVE",
"1040 864 OFFCURVE",
"767 864 CURVE SMOOTH",
"582 864 OFFCURVE",
"434 764 OFFCURVE",
"387 616 CURVE",
"377 616 LINE",
"334 727 OFFCURVE",
"284 831 OFFCURVE",
"224 918 CURVE",
"100 832 LINE",
"319 435 OFFCURVE",
"353 230 OFFCURVE",
"353 -46 CURVE SMOOTH",
"353 -283 OFFCURVE",
"302 -547 OFFCURVE",
"207 -780 CURVE",
"350 -818 LINE"
);
},
{
closed = 1;
nodes = (
"596 142 OFFCURVE",
"455 311 OFFCURVE",
"455 459 CURVE SMOOTH",
"455 606 OFFCURVE",
"588 714 OFFCURVE",
"767 714 CURVE SMOOTH",
"960 714 OFFCURVE",
"1068 608 OFFCURVE",
"1068 431 CURVE SMOOTH",
"1068 255 OFFCURVE",
"954 142 OFFCURVE",
"785 142 CURVE SMOOTH"
);
}
);
width = 1338;
}
);
note = uni0721;
unicode = 0721;
},
{
glyphname = g62;
lastChange = "2016-11-30 01:19:36 +0000";
layers = (
{
layerId = "E7EC2184-43D4-43F6-AF81-545272527AF8";
paths = (
{
closed = 1;
nodes = (
"453 -590 OFFCURVE",
"497 -351 OFFCURVE",
"497 -112 CURVE SMOOTH",
"497 -15 OFFCURVE",
"486 72 OFFCURVE",
"470 141 CURVE",
"479 146 LINE",
"558 46 OFFCURVE",
"676 0 OFFCURVE",
"865 0 CURVE SMOOTH",
"1347 0 LINE",
"1347 155 LINE",
"1256 155 LINE",
"1150 151 LINE",
"1111 148 LINE",
"1111 158 LINE",
"1179 222 OFFCURVE",
"1218 311 OFFCURVE",
"1218 428 CURVE SMOOTH",
"1218 689 OFFCURVE",
"1040 864 OFFCURVE",
"767 864 CURVE SMOOTH",
"590 864 OFFCURVE",
"438 771 OFFCURVE",
"387 616 CURVE",
"377 616 LINE",
"328 745 OFFCURVE",
"264 865 OFFCURVE",
"224 918 CURVE",
"100 832 LINE",
"319 435 OFFCURVE",
"353 230 OFFCURVE",
"353 -46 CURVE SMOOTH",
"353 -283 OFFCURVE",
"302 -547 OFFCURVE",
"207 -780 CURVE",
"350 -818 LINE"
);
},
{
closed = 1;
nodes = (
"594 151 OFFCURVE",
"455 312 OFFCURVE",
"455 459 CURVE SMOOTH",
"455 606 OFFCURVE",
"588 714 OFFCURVE",
"767 714 CURVE SMOOTH",
"960 714 OFFCURVE",
"1068 608 OFFCURVE",
"1068 431 CURVE SMOOTH",
"1068 256 OFFCURVE",
"958 151 OFFCURVE",
"785 151 CURVE SMOOTH"
);
}
);
width = 1347;
}
);
note = g62;
},
{
glyphname = g63;
lastChange = "2016-11-30 01:19:36 +0000";
layers = (
{
layerId = "E7EC2184-43D4-43F6-AF81-545272527AF8";
paths = (
{
closed = 1;
nodes = (
"378 0 LINE SMOOTH",
"543 0 OFFCURVE",
"638 37 OFFCURVE",
"679 125 CURVE",
"685 125 LINE",
"777 37 OFFCURVE",
"910 0 OFFCURVE",
"1059 0 CURVE SMOOTH",
"1542 0 LINE",
"1542 155 LINE",
"1414 155 LINE",
"1324 151 LINE",
"1324 158 LINE",
"1375 214 OFFCURVE",
"1415 297 OFFCURVE",
"1415 400 CURVE SMOOTH",
"1415 645 OFFCURVE",
"1223 829 OFFCURVE",
"954 829 CURVE SMOOTH",
"726 829 OFFCURVE",
"562 691 OFFCURVE",
"549 451 CURVE",
"543 451 LINE",
"519 486 OFFCURVE",
"489 525 OFFCURVE",
"448 572 CURVE SMOOTH",
"131 932 LINE",
"12 828 LINE",
"569 223 LINE",
"566 201 OFFCURVE",
"552 184 OFFCURVE",
"526 173 CURVE SMOOTH",
"500 161 OFFCURVE",
"458 155 OFFCURVE",
"400 155 CURVE SMOOTH",
"0 155 LINE SMOOTH",
"-44 155 OFFCURVE",
"-80 125 OFFCURVE",
"-80 77 CURVE SMOOTH",
"-80 29 OFFCURVE",
"-44 0 OFFCURVE",
"0 0 CURVE SMOOTH"
);
},
{
closed = 1;
nodes = (
"840 151 OFFCURVE",
"681 294 OFFCURVE",
"681 422 CURVE SMOOTH",
"681 581 OFFCURVE",
"794 679 OFFCURVE",
"954 679 CURVE SMOOTH",
"1139 679 OFFCURVE",
"1265 561 OFFCURVE",
"1265 393 CURVE SMOOTH",
"1265 240 OFFCURVE",
"1166 151 OFFCURVE",
"1009 151 CURVE SMOOTH"
);
}
);
width = 1542;
}
);
note = g63;
},
{
glyphname = g64;
lastChange = "2016-11-30 01:19:36 +0000";
layers = (
{
layerId = "E7EC2184-43D4-43F6-AF81-545272527AF8";
paths = (
{
closed = 1;
nodes = (
"378 0 LINE SMOOTH",
"546 0 OFFCURVE",
"641 38 OFFCURVE",
"682 125 CURVE",
"688 125 LINE",
"776 41 OFFCURVE",
"896 0 OFFCURVE",
"1029 0 CURVE SMOOTH",
"1248 0 OFFCURVE",
"1415 154 OFFCURVE",
"1415 390 CURVE SMOOTH",
"1415 637 OFFCURVE",
"1222 829 OFFCURVE",
"954 829 CURVE SMOOTH",
"726 829 OFFCURVE",
"562 691 OFFCURVE",
"549 451 CURVE",
"543 451 LINE",
"519 486 OFFCURVE",
"489 525 OFFCURVE",
"448 572 CURVE SMOOTH",
"131 932 LINE",
"12 828 LINE",
"569 223 LINE",
"566 201 OFFCURVE",
"552 184 OFFCURVE",
"526 173 CURVE SMOOTH",
"500 161 OFFCURVE",
"458 155 OFFCURVE",
"400 155 CURVE SMOOTH",
"0 155 LINE SMOOTH",
"-44 155 OFFCURVE",
"-80 125 OFFCURVE",
"-80 77 CURVE SMOOTH",
"-80 29 OFFCURVE",
"-44 0 OFFCURVE",
"0 0 CURVE SMOOTH"
);
},
{
closed = 1;
nodes = (
"840 151 OFFCURVE",
"681 294 OFFCURVE",
"681 422 CURVE SMOOTH",
"681 581 OFFCURVE",
"794 679 OFFCURVE",
"954 679 CURVE SMOOTH",
"1139 679 OFFCURVE",
"1265 561 OFFCURVE",
"1265 393 CURVE SMOOTH",
"1265 240 OFFCURVE",
"1166 151 OFFCURVE",
"1009 151 CURVE SMOOTH"
);
}
);
width = 1535;
}
);
note = g64;
},
{
glyphname = uni0722;
lastChange = "2016-11-30 01:19:36 +0000";
layers = (
{
layerId = "E7EC2184-43D4-43F6-AF81-545272527AF8";
paths = (
{
closed = 1;
nodes = (
"799 -699 LINE",
"677 -532 OFFCURVE",
"589 -403 OFFCURVE",
"536 -312 CURVE SMOOTH",
"428 -129 OFFCURVE",
"341 135 OFFCURVE",
"297 395 CURVE",
"151 353 LINE",
"200 -62 OFFCURVE",
"376 -433 OFFCURVE",
"676 -780 CURVE"
);
}
);
width = 524;
}
);
note = uni0722;
unicode = 0722;
},
{
glyphname = g66;
lastChange = "2016-11-30 01:19:36 +0000";
layers = (
{
layerId = "E7EC2184-43D4-43F6-AF81-545272527AF8";
paths = (
{
closed = 1;
nodes = (
"678 -722 LINE",
"439 -466 OFFCURVE",
"295 -207 OFFCURVE",
"295 -12 CURVE SMOOTH",
"295 -7 OFFCURVE",
"296 -3 OFFCURVE",
"297 0 CURVE",
"463 0 LINE",
"463 155 LINE",
"250 155 LINE SMOOTH",
"170 155 OFFCURVE",
"140 104 OFFCURVE",
"140 -9 CURVE SMOOTH",
"140 -258 OFFCURVE",
"301 -569 OFFCURVE",
"560 -818 CURVE"
);
}
);
width = 463;
}
);
note = g66;
},
{
glyphname = g67;
lastChange = "2016-11-30 01:19:36 +0000";
layers = (
{
layerId = "E7EC2184-43D4-43F6-AF81-545272527AF8";
paths = (
{
closed = 1;
nodes = (
"130 0 LINE SMOOTH",
"237 0 OFFCURVE",
"319 22 OFFCURVE",
"382 83 CURVE",
"431 20 OFFCURVE",
"516 0 OFFCURVE",
"649 0 CURVE SMOOTH",
"678 0 LINE",
"678 155 LINE",
"658 155 LINE SMOOTH",
"557 155 OFFCURVE",
"477 172 OFFCURVE",
"457 203 CURVE",
"469 258 OFFCURVE",
"476 352 OFFCURVE",
"476 428 CURVE SMOOTH",
"476 496 LINE SMOOTH",
"476 608 OFFCURVE",
"465 785 OFFCURVE",
"445 866 CURVE",
"297 844 LINE",
"312 764 OFFCURVE",
"326 596 OFFCURVE",
"326 489 CURVE SMOOTH",
"326 433 LINE SMOOTH",
"325 346 OFFCURVE",
"321 287 OFFCURVE",
"315 256 CURVE SMOOTH",
"302 193 OFFCURVE",
"266 155 OFFCURVE",
"173 155 CURVE SMOOTH",
"0 155 LINE SMOOTH",
"-44 155 OFFCURVE",
"-80 125 OFFCURVE",
"-80 77 CURVE SMOOTH",
"-80 29 OFFCURVE",
"-44 0 OFFCURVE",
"0 0 CURVE SMOOTH"
);
}
);
width = 678;
}
);
note = g67;
},
{
glyphname = g68;
lastChange = "2016-11-30 01:19:36 +0000";
layers = (
{
layerId = "E7EC2184-43D4-43F6-AF81-545272527AF8";
paths = (
{
closed = 1;
nodes = (
"169 0 LINE SMOOTH",
"332 0 OFFCURVE",
"424 56 OFFCURVE",
"467 169 CURVE SMOOTH",
"488 225 OFFCURVE",
"499 331 OFFCURVE",
"499 486 CURVE",
"498 495 OFFCURVE",
"498 508 OFFCURVE",
"498 527 CURVE",
"496 590 LINE SMOOTH",
"491 709 OFFCURVE",
"480 815 OFFCURVE",
"468 866 CURVE",
"320 844 LINE",
"333 768 OFFCURVE",
"349 552 OFFCURVE",
"349 489 CURVE SMOOTH",
"349 434 LINE SMOOTH",
"348 347 OFFCURVE",
"344 288 OFFCURVE",
"337 257 CURVE SMOOTH",
"324 194 OFFCURVE",
"282 155 OFFCURVE",
"198 155 CURVE SMOOTH",
"0 155 LINE SMOOTH",
"-44 155 OFFCURVE",
"-80 125 OFFCURVE",
"-80 77 CURVE SMOOTH",
"-80 29 OFFCURVE",
"-44 0 OFFCURVE",
"0 0 CURVE SMOOTH"
);
}
);
width = 689;
}
);
note = g68;
},
{
glyphname = uni0723;
lastChange = "2016-11-30 01:19:36 +0000";
layers = (
{
layerId = "E7EC2184-43D4-43F6-AF81-545272527AF8";
paths = (
{
closed = 1;
nodes = (
"1627 0 LINE SMOOTH",
"1918 0 OFFCURVE",
"2081 151 OFFCURVE",
"2081 416 CURVE SMOOTH",
"2081 661 OFFCURVE",
"1922 826 OFFCURVE",
"1693 826 CURVE SMOOTH",
"1561 826 OFFCURVE",
"1452 760 OFFCURVE",
"1397 655 CURVE",
"1390 655 LINE",
"1326 758 OFFCURVE",
"1213 818 OFFCURVE",
"1068 818 CURVE SMOOTH",
"851 818 OFFCURVE",
"688 668 OFFCURVE",
"688 435 CURVE SMOOTH",
"688 320 OFFCURVE",
"720 231 OFFCURVE",
"789 159 CURVE",
"789 152 LINE",
"767 154 OFFCURVE",
"745 155 OFFCURVE",
"722 155 CURVE SMOOTH",
"587 155 LINE SMOOTH",
"371 155 OFFCURVE",
"261 243 OFFCURVE",
"261 406 CURVE SMOOTH",
"261 421 LINE",
"125 413 LINE",
"124 408 OFFCURVE",
"122 393 OFFCURVE",
"122 380 CURVE",
"120 350 LINE",
"120 131 OFFCURVE",
"283 0 OFFCURVE",
"570 0 CURVE SMOOTH"
);
},
{
closed = 1;
nodes = (
"934 155 OFFCURVE",
"834 271 OFFCURVE",
"834 442 CURVE SMOOTH",
"834 581 OFFCURVE",
"930 668 OFFCURVE",
"1069 668 CURVE SMOOTH",
"1241 668 OFFCURVE",
"1335 552 OFFCURVE",
"1335 345 CURVE SMOOTH",
"1335 220 OFFCURVE",
"1282 155 OFFCURVE",
"1093 155 CURVE SMOOTH"
);
},
{
closed = 1;
nodes = (
"1514 155 OFFCURVE",
"1451 244 OFFCURVE",
"1451 413 CURVE SMOOTH",
"1451 577 OFFCURVE",
"1555 676 OFFCURVE",
"1694 676 CURVE SMOOTH",
"1847 676 OFFCURVE",
"1936 585 OFFCURVE",
"1936 428 CURVE SMOOTH",
"1936 256 OFFCURVE",
"1823 155 OFFCURVE",
"1663 155 CURVE SMOOTH"
);
}
);
width = 2201;
}
);
note = uni0723;
unicode = 0723;
},
{
glyphname = g70;
lastChange = "2016-11-30 01:19:36 +0000";
layers = (
{
layerId = "E7EC2184-43D4-43F6-AF81-545272527AF8";
paths = (
{
closed = 1;
nodes = (
"2231 0 LINE",
"2231 155 LINE",
"2039 155 LINE",
"2017 154 OFFCURVE",
"1995 153 OFFCURVE",
"1972 152 CURVE",
"1972 159 LINE",
"2037 214 OFFCURVE",
"2081 322 OFFCURVE",
"2081 426 CURVE SMOOTH",
"2081 667 OFFCURVE",
"1929 826 OFFCURVE",
"1693 826 CURVE SMOOTH",
"1561 826 OFFCURVE",
"1452 760 OFFCURVE",
"1397 655 CURVE",
"1390 655 LINE",
"1326 758 OFFCURVE",
"1213 818 OFFCURVE",
"1068 818 CURVE SMOOTH",
"851 818 OFFCURVE",
"688 668 OFFCURVE",
"688 435 CURVE SMOOTH",
"688 320 OFFCURVE",
"720 231 OFFCURVE",
"789 159 CURVE",
"789 152 LINE",
"767 154 OFFCURVE",
"745 155 OFFCURVE",
"722 155 CURVE SMOOTH",
"587 155 LINE SMOOTH",
"371 155 OFFCURVE",
"261 243 OFFCURVE",
"261 406 CURVE SMOOTH",
"261 421 LINE",
"125 413 LINE",
"124 408 OFFCURVE",
"122 393 OFFCURVE",
"122 380 CURVE",
"120 350 LINE",
"120 131 OFFCURVE",
"283 0 OFFCURVE",
"570 0 CURVE SMOOTH"
);
},
{
closed = 1;
nodes = (
"934 155 OFFCURVE",
"834 271 OFFCURVE",
"834 442 CURVE SMOOTH",
"834 581 OFFCURVE",
"930 668 OFFCURVE",
"1069 668 CURVE SMOOTH",
"1241 668 OFFCURVE",
"1335 552 OFFCURVE",
"1335 345 CURVE SMOOTH",
"1335 220 OFFCURVE",
"1282 155 OFFCURVE",
"1093 155 CURVE SMOOTH"
);
},
{
closed = 1;
nodes = (
"1514 155 OFFCURVE",
"1451 244 OFFCURVE",
"1451 413 CURVE SMOOTH",
"1451 577 OFFCURVE",
"1555 676 OFFCURVE",
"1694 676 CURVE SMOOTH",
"1847 676 OFFCURVE",
"1936 585 OFFCURVE",
"1936 428 CURVE SMOOTH",
"1936 256 OFFCURVE",
"1823 155 OFFCURVE",
"1663 155 CURVE SMOOTH"
);
}
);
width = 2231;
}
);
note = g70;
},
{
glyphname = g71;
lastChange = "2016-11-30 01:19:36 +0000";
layers = (
{
layerId = "E7EC2184-43D4-43F6-AF81-545272527AF8";
paths = (
{
closed = 1;
nodes = (
"1693 0 LINE",
"1693 155 LINE",
"1501 155 LINE",
"1479 154 OFFCURVE",
"1457 153 OFFCURVE",
"1434 152 CURVE",
"1434 159 LINE",
"1499 214 OFFCURVE",
"1543 322 OFFCURVE",
"1543 426 CURVE SMOOTH",
"1543 667 OFFCURVE",
"1391 826 OFFCURVE",
"1155 826 CURVE SMOOTH",
"1032 826 OFFCURVE",
"918 768 OFFCURVE",
"859 655 CURVE",
"852 655 LINE",
"788 758 OFFCURVE",
"675 818 OFFCURVE",
"530 818 CURVE SMOOTH",
"313 818 OFFCURVE",
"150 668 OFFCURVE",
"150 435 CURVE SMOOTH",
"150 320 OFFCURVE",
"182 231 OFFCURVE",
"251 159 CURVE",
"251 152 LINE",
"230 154 OFFCURVE",
"208 155 OFFCURVE",
"187 155 CURVE SMOOTH",
"0 155 LINE SMOOTH",
"-44 155 OFFCURVE",
"-80 125 OFFCURVE",
"-80 77 CURVE SMOOTH",
"-80 29 OFFCURVE",
"-44 0 OFFCURVE",
"0 0 CURVE SMOOTH"
);
},
{
closed = 1;
nodes = (
"396 155 OFFCURVE",
"296 271 OFFCURVE",
"296 442 CURVE SMOOTH",
"296 581 OFFCURVE",
"392 668 OFFCURVE",
"531 668 CURVE SMOOTH",
"703 668 OFFCURVE",
"797 552 OFFCURVE",
"797 345 CURVE SMOOTH",
"797 220 OFFCURVE",
"744 155 OFFCURVE",
"555 155 CURVE SMOOTH"
);
},
{
closed = 1;
nodes = (
"976 155 OFFCURVE",
"913 244 OFFCURVE",
"913 413 CURVE SMOOTH",
"913 577 OFFCURVE",
"1017 676 OFFCURVE",
"1156 676 CURVE SMOOTH",
"1309 676 OFFCURVE",
"1398 585 OFFCURVE",
"1398 428 CURVE SMOOTH",
"1398 256 OFFCURVE",
"1285 155 OFFCURVE",
"1125 155 CURVE SMOOTH"
);
}
);
width = 1693;
}
);
note = g71;
},
{
glyphname = g72;
lastChange = "2016-11-30 01:19:36 +0000";
layers = (
{
layerId = "E7EC2184-43D4-43F6-AF81-545272527AF8";
paths = (
{
closed = 1;
nodes = (
"1089 0 LINE SMOOTH",
"1380 0 OFFCURVE",
"1543 151 OFFCURVE",
"1543 416 CURVE SMOOTH",
"1543 661 OFFCURVE",
"1384 826 OFFCURVE",
"1155 826 CURVE SMOOTH",
"1023 826 OFFCURVE",
"914 760 OFFCURVE",
"859 655 CURVE",
"852 655 LINE",
"788 758 OFFCURVE",
"675 818 OFFCURVE",
"530 818 CURVE SMOOTH",
"313 818 OFFCURVE",
"150 668 OFFCURVE",
"150 435 CURVE SMOOTH",
"150 320 OFFCURVE",
"182 231 OFFCURVE",
"251 159 CURVE",
"251 152 LINE",
"230 154 OFFCURVE",
"208 155 OFFCURVE",
"187 155 CURVE SMOOTH",
"0 155 LINE SMOOTH",
"-44 155 OFFCURVE",
"-80 125 OFFCURVE",
"-80 77 CURVE SMOOTH",
"-80 29 OFFCURVE",
"-44 0 OFFCURVE",
"0 0 CURVE SMOOTH"
);
},
{
closed = 1;
nodes = (
"396 155 OFFCURVE",
"296 271 OFFCURVE",
"296 442 CURVE SMOOTH",
"296 581 OFFCURVE",
"392 668 OFFCURVE",
"531 668 CURVE SMOOTH",
"703 668 OFFCURVE",
"797 552 OFFCURVE",
"797 345 CURVE SMOOTH",
"797 220 OFFCURVE",
"744 155 OFFCURVE",
"555 155 CURVE SMOOTH"
);
},
{
closed = 1;
nodes = (
"976 155 OFFCURVE",
"913 244 OFFCURVE",
"913 413 CURVE SMOOTH",
"913 577 OFFCURVE",
"1017 676 OFFCURVE",
"1156 676 CURVE SMOOTH",
"1309 676 OFFCURVE",
"1398 585 OFFCURVE",
"1398 428 CURVE SMOOTH",
"1398 256 OFFCURVE",
"1285 155 OFFCURVE",
"1125 155 CURVE SMOOTH"
);
}
);
width = 1663;
}
);
note = g72;
},
{
glyphname = uni0724;
lastChange = "2016-11-30 01:19:36 +0000";
layers = (
{
layerId = "E7EC2184-43D4-43F6-AF81-545272527AF8";
paths = (
{
closed = 1;
nodes = (
"862 -325 LINE",
"875 -234 OFFCURVE",
"886 -121 OFFCURVE",
"895 0 CURVE",
"1059 0 LINE SMOOTH",
"1350 0 OFFCURVE",
"1513 151 OFFCURVE",
"1513 416 CURVE SMOOTH",
"1513 661 OFFCURVE",
"1354 826 OFFCURVE",
"1125 826 CURVE SMOOTH",
"993 826 OFFCURVE",
"884 760 OFFCURVE",
"829 655 CURVE",
"822 655 LINE",
"758 758 OFFCURVE",
"645 818 OFFCURVE",
"500 818 CURVE SMOOTH",
"283 818 OFFCURVE",
"120 668 OFFCURVE",
"120 435 CURVE SMOOTH",
"120 164 OFFCURVE",
"287 0 OFFCURVE",
"579 0 CURVE SMOOTH",
"752 0 LINE",
"740 -175 LINE",
"733 -255 LINE SMOOTH",
"730 -281 OFFCURVE",
"728 -304 OFFCURVE",
"727 -325 CURVE"
);
},
{
closed = 1;
nodes = (
"366 145 OFFCURVE",
"266 270 OFFCURVE",
"266 442 CURVE SMOOTH",
"266 581 OFFCURVE",
"362 668 OFFCURVE",
"501 668 CURVE SMOOTH",
"673 668 OFFCURVE",
"767 552 OFFCURVE",
"767 345 CURVE SMOOTH",
"767 213 OFFCURVE",
"701 145 OFFCURVE",
"525 145 CURVE SMOOTH"
);
},
{
closed = 1;
nodes = (
"952 145 OFFCURVE",
"883 238 OFFCURVE",
"883 413 CURVE SMOOTH",
"883 577 OFFCURVE",
"987 676 OFFCURVE",
"1126 676 CURVE SMOOTH",
"1279 676 OFFCURVE",
"1368 585 OFFCURVE",
"1368 428 CURVE SMOOTH",
"1368 251 OFFCURVE",
"1250 145 OFFCURVE",
"1095 145 CURVE SMOOTH"
);
}
);
width = 1633;
}
);
note = uni0724;
unicode = 0724;
},
{
glyphname = g74;
lastChange = "2016-11-30 01:19:36 +0000";
layers = (
{
layerId = "E7EC2184-43D4-43F6-AF81-545272527AF8";
paths = (
{
closed = 1;
nodes = (
"862 -325 LINE",
"875 -234 OFFCURVE",
"886 -121 OFFCURVE",
"895 0 CURVE",
"1663 0 LINE",
"1663 155 LINE",
"1471 155 LINE",
"1449 154 OFFCURVE",
"1427 153 OFFCURVE",
"1404 152 CURVE",
"1404 159 LINE",
"1469 214 OFFCURVE",
"1513 322 OFFCURVE",
"1513 426 CURVE SMOOTH",
"1513 667 OFFCURVE",
"1361 826 OFFCURVE",
"1125 826 CURVE SMOOTH",
"1002 826 OFFCURVE",
"888 768 OFFCURVE",
"829 655 CURVE",
"822 655 LINE",
"758 758 OFFCURVE",
"645 818 OFFCURVE",
"500 818 CURVE SMOOTH",
"283 818 OFFCURVE",
"120 668 OFFCURVE",
"120 435 CURVE SMOOTH",
"120 164 OFFCURVE",
"287 0 OFFCURVE",
"579 0 CURVE SMOOTH",
"752 0 LINE",
"740 -175 LINE",
"733 -255 LINE SMOOTH",
"730 -281 OFFCURVE",
"728 -304 OFFCURVE",
"727 -325 CURVE"
);
},
{
closed = 1;
nodes = (
"366 145 OFFCURVE",
"266 270 OFFCURVE",
"266 442 CURVE SMOOTH",
"266 581 OFFCURVE",
"362 668 OFFCURVE",
"501 668 CURVE SMOOTH",
"673 668 OFFCURVE",
"767 552 OFFCURVE",
"767 345 CURVE SMOOTH",
"767 213 OFFCURVE",
"701 145 OFFCURVE",
"525 145 CURVE SMOOTH"
);
},
{
closed = 1;
nodes = (
"954 146 OFFCURVE",
"883 237 OFFCURVE",
"883 413 CURVE SMOOTH",
"883 577 OFFCURVE",
"987 676 OFFCURVE",
"1126 676 CURVE SMOOTH",
"1279 676 OFFCURVE",
"1368 585 OFFCURVE",
"1368 428 CURVE SMOOTH",
"1368 252 OFFCURVE",
"1250 146 OFFCURVE",
"1095 146 CURVE SMOOTH"
);
}
);
width = 1663;
}
);
note = g74;
},
{
glyphname = g75;
lastChange = "2016-11-30 01:19:36 +0000";
layers = (
{
layerId = "E7EC2184-43D4-43F6-AF81-545272527AF8";
paths = (
{
closed = 1;
nodes = (
"1693 0 LINE",
"1693 155 LINE",
"1501 155 LINE",
"1479 154 OFFCURVE",
"1457 153 OFFCURVE",
"1434 152 CURVE",
"1434 159 LINE",
"1499 214 OFFCURVE",
"1543 322 OFFCURVE",
"1543 426 CURVE SMOOTH",
"1543 667 OFFCURVE",
"1391 826 OFFCURVE",
"1155 826 CURVE SMOOTH",
"1032 826 OFFCURVE",
"918 768 OFFCURVE",
"859 655 CURVE",
"852 655 LINE",
"788 758 OFFCURVE",
"675 818 OFFCURVE",
"530 818 CURVE SMOOTH",
"313 818 OFFCURVE",
"150 668 OFFCURVE",
"150 435 CURVE SMOOTH",
"150 320 OFFCURVE",
"182 231 OFFCURVE",
"251 159 CURVE",
"251 152 LINE",
"230 154 OFFCURVE",
"208 155 OFFCURVE",
"187 155 CURVE SMOOTH",
"0 155 LINE SMOOTH",
"-44 155 OFFCURVE",
"-80 125 OFFCURVE",
"-80 77 CURVE SMOOTH",
"-80 29 OFFCURVE",
"-44 0 OFFCURVE",
"0 0 CURVE SMOOTH"
);
},
{
closed = 1;
nodes = (
"396 155 OFFCURVE",
"296 271 OFFCURVE",
"296 442 CURVE SMOOTH",
"296 581 OFFCURVE",
"392 668 OFFCURVE",
"531 668 CURVE SMOOTH",
"703 668 OFFCURVE",
"797 552 OFFCURVE",
"797 345 CURVE SMOOTH",
"797 220 OFFCURVE",
"744 155 OFFCURVE",
"555 155 CURVE SMOOTH"
);
},
{
closed = 1;
nodes = (
"976 155 OFFCURVE",
"913 244 OFFCURVE",
"913 413 CURVE SMOOTH",
"913 577 OFFCURVE",
"1017 676 OFFCURVE",
"1156 676 CURVE SMOOTH",
"1309 676 OFFCURVE",
"1398 585 OFFCURVE",
"1398 428 CURVE SMOOTH",
"1398 256 OFFCURVE",
"1285 155 OFFCURVE",
"1125 155 CURVE SMOOTH"
);
}
);
width = 1693;
}
);
note = g75;
},
{
glyphname = g76;
lastChange = "2016-11-30 01:19:36 +0000";
layers = (
{
layerId = "E7EC2184-43D4-43F6-AF81-545272527AF8";
paths = (
{
closed = 1;
nodes = (
"1089 0 LINE SMOOTH",
"1380 0 OFFCURVE",
"1543 151 OFFCURVE",
"1543 416 CURVE SMOOTH",
"1543 661 OFFCURVE",
"1384 826 OFFCURVE",
"1155 826 CURVE SMOOTH",
"1023 826 OFFCURVE",
"914 760 OFFCURVE",
"859 655 CURVE",
"852 655 LINE",
"788 758 OFFCURVE",
"675 818 OFFCURVE",
"530 818 CURVE SMOOTH",
"313 818 OFFCURVE",
"150 668 OFFCURVE",
"150 435 CURVE SMOOTH",
"150 320 OFFCURVE",
"182 231 OFFCURVE",
"251 159 CURVE",
"251 152 LINE",
"230 154 OFFCURVE",
"208 155 OFFCURVE",
"187 155 CURVE SMOOTH",
"0 155 LINE SMOOTH",
"-44 155 OFFCURVE",
"-80 125 OFFCURVE",
"-80 77 CURVE SMOOTH",
"-80 29 OFFCURVE",
"-44 0 OFFCURVE",
"0 0 CURVE SMOOTH"
);
},
{
closed = 1;
nodes = (
"396 155 OFFCURVE",
"296 271 OFFCURVE",
"296 442 CURVE SMOOTH",
"296 581 OFFCURVE",
"392 668 OFFCURVE",
"531 668 CURVE SMOOTH",
"703 668 OFFCURVE",
"797 552 OFFCURVE",
"797 345 CURVE SMOOTH",
"797 220 OFFCURVE",
"744 155 OFFCURVE",
"555 155 CURVE SMOOTH"
);
},
{
closed = 1;
nodes = (
"976 155 OFFCURVE",
"913 244 OFFCURVE",
"913 413 CURVE SMOOTH",
"913 577 OFFCURVE",
"1017 676 OFFCURVE",
"1156 676 CURVE SMOOTH",
"1309 676 OFFCURVE",
"1398 585 OFFCURVE",
"1398 428 CURVE SMOOTH",
"1398 256 OFFCURVE",
"1285 155 OFFCURVE",
"1125 155 CURVE SMOOTH"
);
}
);
width = 1663;
}
);
note = g76;
},
{
glyphname = uni0725;
lastChange = "2016-11-30 01:19:36 +0000";
layers = (
{
layerId = "E7EC2184-43D4-43F6-AF81-545272527AF8";
paths = (
{
closed = 1;
nodes = (
"943 -35 OFFCURVE",
"1039 44 OFFCURVE",
"1066 168 CURVE",
"1074 168 LINE",
"1163 61 OFFCURVE",
"1280 -9 OFFCURVE",
"1397 -21 CURVE",
"1436 114 LINE",
"1319 143 OFFCURVE",
"1247 202 OFFCURVE",
"1151 313 CURVE SMOOTH",
"644 892 LINE",
"527 787 LINE",
"935 320 LINE SMOOTH",
"954 299 OFFCURVE",
"960 276 OFFCURVE",
"960 251 CURVE SMOOTH",
"960 179 OFFCURVE",
"895 120 OFFCURVE",
"807 120 CURVE SMOOTH",
"780 120 OFFCURVE",
"753 128 OFFCURVE",
"726 145 CURVE SMOOTH",
"699 161 OFFCURVE",
"660 197 OFFCURVE",
"610 253 CURVE SMOOTH",
"117 814 LINE",
"0 709 LINE",
"475 168 LINE SMOOTH",
"600 25 OFFCURVE",
"688 -35 OFFCURVE",
"799 -35 CURVE SMOOTH"
);
}
);
width = 1536;
}
);
note = uni0725;
unicode = 0725;
},
{
glyphname = g78;
lastChange = "2016-11-30 01:19:36 +0000";
layers = (
{
layerId = "E7EC2184-43D4-43F6-AF81-545272527AF8";
paths = (
{
closed = 1;
nodes = (
"943 -35 OFFCURVE",
"1039 45 OFFCURVE",
"1064 168 CURVE",
"1069 168 LINE",
"1181 39 OFFCURVE",
"1255 0 OFFCURVE",
"1350 0 CURVE",
"1350 155 LINE",
"1307 155 OFFCURVE",
"1269 179 OFFCURVE",
"1229 224 CURVE SMOOTH",
"644 892 LINE",
"527 787 LINE",
"936 319 LINE",
"951 303 OFFCURVE",
"960 278 OFFCURVE",
"960 251 CURVE SMOOTH",
"960 179 OFFCURVE",
"895 120 OFFCURVE",
"807 120 CURVE SMOOTH",
"780 120 OFFCURVE",
"753 128 OFFCURVE",
"726 145 CURVE SMOOTH",
"699 161 OFFCURVE",
"660 197 OFFCURVE",
"610 253 CURVE SMOOTH",
"117 814 LINE",
"0 709 LINE",
"475 168 LINE SMOOTH",
"600 25 OFFCURVE",
"688 -35 OFFCURVE",
"799 -35 CURVE SMOOTH"
);
}
);
width = 1350;
}
);
note = g78;
},
{
glyphname = g79;
lastChange = "2016-11-30 01:19:36 +0000";
layers = (
{
layerId = "E7EC2184-43D4-43F6-AF81-545272527AF8";
paths = (
{
closed = 1;
nodes = (
"455 0 LINE SMOOTH",
"602 0 OFFCURVE",
"676 23 OFFCURVE",
"715 72 CURVE",
"766 28 OFFCURVE",
"823 0 OFFCURVE",
"903 0 CURVE",
"903 155 LINE",
"860 155 OFFCURVE",
"822 179 OFFCURVE",
"782 224 CURVE SMOOTH",
"197 892 LINE",
"80 787 LINE",
"614 178 LINE",
"589 163 OFFCURVE",
"548 156 OFFCURVE",
"507 156 CURVE SMOOTH",
"477 155 LINE",
"0 155 LINE SMOOTH",
"-44 155 OFFCURVE",
"-80 125 OFFCURVE",
"-80 77 CURVE SMOOTH",
"-80 29 OFFCURVE",
"-44 0 OFFCURVE",
"0 0 CURVE SMOOTH"
);
}
);
width = 903;
}
);
note = g79;
},
{
glyphname = g80;
lastChange = "2016-11-30 01:19:36 +0000";
layers = (
{
layerId = "E7EC2184-43D4-43F6-AF81-545272527AF8";
paths = (
{
closed = 1;
nodes = (
"990 114 LINE",
"873 143 OFFCURVE",
"801 202 OFFCURVE",
"705 313 CURVE SMOOTH",
"197 892 LINE",
"80 787 LINE",
"617 175 LINE",
"593 162 OFFCURVE",
"562 156 OFFCURVE",
"514 156 CURVE",
"486 155 LINE",
"0 155 LINE SMOOTH",
"-44 155 OFFCURVE",
"-80 125 OFFCURVE",
"-80 77 CURVE SMOOTH",
"-80 29 OFFCURVE",
"-44 0 OFFCURVE",
"0 0 CURVE SMOOTH",
"464 0 LINE SMOOTH",
"612 0 OFFCURVE",
"689 24 OFFCURVE",
"726 75 CURVE",
"786 26 OFFCURVE",
"855 -12 OFFCURVE",
"951 -21 CURVE"
);
}
);
width = 1090;
}
);
note = g80;
},
{
glyphname = uni0726;
lastChange = "2016-11-30 01:19:36 +0000";
layers = (
{
layerId = "E7EC2184-43D4-43F6-AF81-545272527AF8";
paths = (
{
closed = 1;
nodes = (
"1059 0 LINE SMOOTH",
"1399 0 OFFCURVE",
"1575 142 OFFCURVE",
"1575 425 CURVE SMOOTH",
"1575 547 OFFCURVE",
"1549 660 OFFCURVE",
"1498 763 CURVE SMOOTH",
"1395 970 OFFCURVE",
"1209 1091 OFFCURVE",
"1030 1091 CURVE SMOOTH",
"799 1091 OFFCURVE",
"621 935 OFFCURVE",
"621 715 CURVE SMOOTH",
"621 502 OFFCURVE",
"778 383 OFFCURVE",
"1023 383 CURVE SMOOTH",
"1164 383 OFFCURVE",
"1317 443 OFFCURVE",
"1414 540 CURVE",
"1420 540 LINE",
"1425 508 OFFCURVE",
"1428 474 OFFCURVE",
"1428 439 CURVE SMOOTH",
"1428 248 OFFCURVE",
"1307 155 OFFCURVE",
"1071 155 CURVE SMOOTH",
"616 155 LINE SMOOTH",
"388 155 OFFCURVE",
"260 267 OFFCURVE",
"257 451 CURVE",
"124 443 LINE",
"123 440 OFFCURVE",
"122 436 OFFCURVE",
"122 431 CURVE",
"121 415 LINE",
"120 410 OFFCURVE",
"120 403 OFFCURVE",
"120 395 CURVE SMOOTH",
"120 146 OFFCURVE",
"308 0 OFFCURVE",
"608 0 CURVE SMOOTH"
);
},
{
closed = 1;
nodes = (
"865 532 OFFCURVE",
"771 600 OFFCURVE",
"771 729 CURVE SMOOTH",
"771 849 OFFCURVE",
"881 936 OFFCURVE",
"1030 936 CURVE SMOOTH",
"1173 936 OFFCURVE",
"1305 839 OFFCURVE",
"1377 682 CURVE",
"1298 591 OFFCURVE",
"1161 532 OFFCURVE",
"1028 532 CURVE SMOOTH"
);
}
);
width = 1715;
}
);
note = uni0726;
unicode = 0726;
},
{
glyphname = g82;
lastChange = "2016-11-30 01:19:36 +0000";
layers = (
{
layerId = "E7EC2184-43D4-43F6-AF81-545272527AF8";
paths = (
{
closed = 1;
nodes = (
"1080 0 LINE",
"1087 1 OFFCURVE",
"1094 1 OFFCURVE",
"1101 1 CURVE",
"1099 0 LINE",
"1743 0 LINE",
"1743 155 LINE",
"1532 155 LINE",
"1507 154 OFFCURVE",
"1483 153 OFFCURVE",
"1459 152 CURVE",
"1456 159 LINE",
"1536 222 OFFCURVE",
"1575 322 OFFCURVE",
"1575 445 CURVE SMOOTH",
"1575 560 OFFCURVE",
"1550 667 OFFCURVE",
"1500 766 CURVE SMOOTH",
"1399 965 OFFCURVE",
"1213 1091 OFFCURVE",
"1030 1091 CURVE SMOOTH",
"799 1091 OFFCURVE",
"621 935 OFFCURVE",
"621 715 CURVE SMOOTH",
"621 502 OFFCURVE",
"778 383 OFFCURVE",
"1023 383 CURVE SMOOTH",
"1164 383 OFFCURVE",
"1317 443 OFFCURVE",
"1414 540 CURVE",
"1420 540 LINE",
"1425 508 OFFCURVE",
"1428 474 OFFCURVE",
"1428 439 CURVE SMOOTH",
"1428 248 OFFCURVE",
"1307 155 OFFCURVE",
"1071 155 CURVE SMOOTH",
"616 155 LINE SMOOTH",
"388 155 OFFCURVE",
"260 267 OFFCURVE",
"257 451 CURVE",
"124 443 LINE",
"123 440 OFFCURVE",
"122 436 OFFCURVE",
"122 431 CURVE",
"121 415 LINE",
"120 410 OFFCURVE",
"120 403 OFFCURVE",
"120 395 CURVE SMOOTH",
"120 146 OFFCURVE",
"308 0 OFFCURVE",
"608 0 CURVE SMOOTH"
);
},
{
closed = 1;
nodes = (
"865 532 OFFCURVE",
"771 600 OFFCURVE",
"771 729 CURVE SMOOTH",
"771 849 OFFCURVE",
"881 936 OFFCURVE",
"1030 936 CURVE SMOOTH",
"1173 936 OFFCURVE",
"1305 839 OFFCURVE",
"1377 682 CURVE",
"1298 591 OFFCURVE",
"1161 532 OFFCURVE",
"1028 532 CURVE SMOOTH"
);
}
);
width = 1743;
}
);
note = g82;
},
{
glyphname = g83;
lastChange = "2016-11-30 01:19:36 +0000";
layers = (
{
layerId = "E7EC2184-43D4-43F6-AF81-545272527AF8";
paths = (
{
closed = 1;
nodes = (
"579 0 LINE",
"586 1 OFFCURVE",
"593 1 OFFCURVE",
"600 1 CURVE",
"598 0 LINE",
"1242 0 LINE",
"1242 155 LINE",
"1031 155 LINE",
"1006 154 OFFCURVE",
"982 153 OFFCURVE",
"958 152 CURVE",
"955 159 LINE",
"1035 222 OFFCURVE",
"1074 322 OFFCURVE",
"1074 445 CURVE SMOOTH",
"1074 560 OFFCURVE",
"1049 667 OFFCURVE",
"999 766 CURVE SMOOTH",
"898 965 OFFCURVE",
"712 1091 OFFCURVE",
"529 1091 CURVE SMOOTH",
"298 1091 OFFCURVE",
"120 935 OFFCURVE",
"120 715 CURVE SMOOTH",
"120 502 OFFCURVE",
"277 383 OFFCURVE",
"522 383 CURVE SMOOTH",
"663 383 OFFCURVE",
"816 443 OFFCURVE",
"913 540 CURVE",
"919 540 LINE",
"924 508 OFFCURVE",
"927 474 OFFCURVE",
"927 439 CURVE SMOOTH",
"927 248 OFFCURVE",
"806 155 OFFCURVE",
"570 155 CURVE SMOOTH",
"0 155 LINE SMOOTH",
"-44 155 OFFCURVE",
"-80 125 OFFCURVE",
"-80 77 CURVE SMOOTH",
"-80 29 OFFCURVE",
"-44 0 OFFCURVE",
"0 0 CURVE SMOOTH"
);
},
{
closed = 1;
nodes = (
"364 532 OFFCURVE",
"270 600 OFFCURVE",
"270 729 CURVE SMOOTH",
"270 849 OFFCURVE",
"380 936 OFFCURVE",
"529 936 CURVE SMOOTH",
"672 936 OFFCURVE",
"804 839 OFFCURVE",
"876 682 CURVE",
"797 591 OFFCURVE",
"660 532 OFFCURVE",
"527 532 CURVE SMOOTH"
);
}
);
width = 1242;
}
);
note = g83;
},
{
glyphname = g84;
lastChange = "2016-11-30 01:19:36 +0000";
layers = (
{
layerId = "E7EC2184-43D4-43F6-AF81-545272527AF8";
paths = (
{
closed = 1;
nodes = (
"558 0 LINE SMOOTH",
"898 0 OFFCURVE",
"1074 142 OFFCURVE",
"1074 425 CURVE SMOOTH",
"1074 547 OFFCURVE",
"1048 660 OFFCURVE",
"997 763 CURVE SMOOTH",
"894 970 OFFCURVE",
"708 1091 OFFCURVE",
"529 1091 CURVE SMOOTH",
"298 1091 OFFCURVE",
"120 935 OFFCURVE",
"120 715 CURVE SMOOTH",
"120 502 OFFCURVE",
"277 383 OFFCURVE",
"522 383 CURVE SMOOTH",
"669 383 OFFCURVE",
"820 447 OFFCURVE",
"913 540 CURVE",
"919 540 LINE",
"924 508 OFFCURVE",
"927 474 OFFCURVE",
"927 439 CURVE SMOOTH",
"927 248 OFFCURVE",
"806 155 OFFCURVE",
"570 155 CURVE SMOOTH",
"0 155 LINE SMOOTH",
"-44 155 OFFCURVE",
"-80 125 OFFCURVE",
"-80 77 CURVE SMOOTH",
"-80 29 OFFCURVE",
"-44 0 OFFCURVE",
"0 0 CURVE SMOOTH"
);
},
{
closed = 1;
nodes = (
"364 532 OFFCURVE",
"270 600 OFFCURVE",
"270 729 CURVE SMOOTH",
"270 849 OFFCURVE",
"380 936 OFFCURVE",
"529 936 CURVE SMOOTH",
"672 936 OFFCURVE",
"804 839 OFFCURVE",
"876 682 CURVE",
"797 591 OFFCURVE",
"660 532 OFFCURVE",
"527 532 CURVE SMOOTH"
);
}
);
width = 1214;
}
);
note = g84;
},
{
glyphname = uni0727;
lastChange = "2016-11-30 01:19:36 +0000";
layers = (
{
layerId = "E7EC2184-43D4-43F6-AF81-545272527AF8";
paths = (
{
closed = 1;
nodes = (
"1702 0 LINE",
"1702 155 LINE",
"1460 155 LINE SMOOTH",
"1321 155 OFFCURVE",
"1178 153 OFFCURVE",
"1038 196 CURVE SMOOTH",
"897 239 OFFCURVE",
"809 347 OFFCURVE",
"809 530 CURVE SMOOTH",
"809 742 OFFCURVE",
"981 906 OFFCURVE",
"1176 906 CURVE SMOOTH",
"1357 906 OFFCURVE",
"1463 826 OFFCURVE",
"1463 697 CURVE SMOOTH",
"1463 593 OFFCURVE",
"1391 532 OFFCURVE",
"1283 532 CURVE SMOOTH",
"1204 532 OFFCURVE",
"1137 580 OFFCURVE",
"1128 664 CURVE",
"1006 650 LINE",
"1006 502 OFFCURVE",
"1126 397 OFFCURVE",
"1289 397 CURVE SMOOTH",
"1474 397 OFFCURVE",
"1607 527 OFFCURVE",
"1607 700 CURVE SMOOTH",
"1607 905 OFFCURVE",
"1429 1061 OFFCURVE",
"1170 1061 CURVE SMOOTH",
"901 1061 OFFCURVE",
"657 811 OFFCURVE",
"657 518 CURVE SMOOTH",
"657 335 OFFCURVE",
"719 225 OFFCURVE",
"830 158 CURVE",
"827 151 LINE",
"780 154 OFFCURVE",
"732 155 OFFCURVE",
"688 155 CURVE SMOOTH",
"616 155 LINE SMOOTH",
"388 155 OFFCURVE",
"260 267 OFFCURVE",
"257 451 CURVE",
"124 443 LINE",
"123 440 OFFCURVE",
"122 436 OFFCURVE",
"122 431 CURVE",
"121 415 LINE",
"120 410 OFFCURVE",
"120 403 OFFCURVE",
"120 395 CURVE SMOOTH",
"120 146 OFFCURVE",
"308 0 OFFCURVE",
"608 0 CURVE SMOOTH"
);
}
);
width = 1822;
}
);
note = uni0727;
unicode = 0727;
},
{
glyphname = g86;
lastChange = "2016-11-30 01:19:36 +0000";
layers = (
{
layerId = "E7EC2184-43D4-43F6-AF81-545272527AF8";
paths = (
{
closed = 1;
nodes = (
"1742 0 LINE",
"1742 155 LINE",
"1460 155 LINE SMOOTH",
"1321 155 OFFCURVE",
"1178 153 OFFCURVE",
"1038 196 CURVE SMOOTH",
"897 239 OFFCURVE",
"809 347 OFFCURVE",
"809 530 CURVE SMOOTH",
"809 742 OFFCURVE",
"981 906 OFFCURVE",
"1176 906 CURVE SMOOTH",
"1357 906 OFFCURVE",
"1463 826 OFFCURVE",
"1463 697 CURVE SMOOTH",
"1463 593 OFFCURVE",
"1391 532 OFFCURVE",
"1283 532 CURVE SMOOTH",
"1204 532 OFFCURVE",
"1137 580 OFFCURVE",
"1128 664 CURVE",
"1006 650 LINE",
"1006 502 OFFCURVE",
"1126 397 OFFCURVE",
"1289 397 CURVE SMOOTH",
"1474 397 OFFCURVE",
"1607 527 OFFCURVE",
"1607 700 CURVE SMOOTH",
"1607 905 OFFCURVE",
"1429 1061 OFFCURVE",
"1170 1061 CURVE SMOOTH",
"901 1061 OFFCURVE",
"657 811 OFFCURVE",
"657 518 CURVE SMOOTH",
"657 335 OFFCURVE",
"719 225 OFFCURVE",
"830 158 CURVE",
"827 151 LINE",
"780 154 OFFCURVE",
"732 155 OFFCURVE",
"688 155 CURVE SMOOTH",
"616 155 LINE SMOOTH",
"388 155 OFFCURVE",
"260 267 OFFCURVE",
"257 451 CURVE",
"124 443 LINE",
"123 440 OFFCURVE",
"122 436 OFFCURVE",
"122 431 CURVE",
"121 415 LINE",
"120 410 OFFCURVE",
"120 403 OFFCURVE",
"120 395 CURVE SMOOTH",
"120 146 OFFCURVE",
"308 0 OFFCURVE",
"608 0 CURVE SMOOTH"
);
}
);
width = 1742;
}
);
note = g86;
},
{
glyphname = g87;
lastChange = "2016-11-30 01:19:36 +0000";
layers = (
{
layerId = "E7EC2184-43D4-43F6-AF81-545272527AF8";
paths = (
{
closed = 1;
nodes = (
"1260 0 LINE",
"1260 155 LINE",
"978 155 LINE SMOOTH",
"839 155 OFFCURVE",
"696 153 OFFCURVE",
"556 196 CURVE SMOOTH",
"415 239 OFFCURVE",
"327 347 OFFCURVE",
"327 530 CURVE SMOOTH",
"327 742 OFFCURVE",
"499 906 OFFCURVE",
"694 906 CURVE SMOOTH",
"875 906 OFFCURVE",
"981 826 OFFCURVE",
"981 697 CURVE SMOOTH",
"981 593 OFFCURVE",
"909 532 OFFCURVE",
"801 532 CURVE SMOOTH",
"722 532 OFFCURVE",
"655 580 OFFCURVE",
"646 664 CURVE",
"524 650 LINE",
"524 502 OFFCURVE",
"644 397 OFFCURVE",
"807 397 CURVE SMOOTH",
"992 397 OFFCURVE",
"1125 527 OFFCURVE",
"1125 700 CURVE SMOOTH",
"1125 905 OFFCURVE",
"947 1061 OFFCURVE",
"688 1061 CURVE SMOOTH",
"419 1061 OFFCURVE",
"175 811 OFFCURVE",
"175 518 CURVE SMOOTH",
"175 335 OFFCURVE",
"237 226 OFFCURVE",
"348 159 CURVE",
"345 152 LINE",
"322 154 OFFCURVE",
"298 155 OFFCURVE",
"275 155 CURVE SMOOTH",
"0 155 LINE SMOOTH",
"-44 155 OFFCURVE",
"-80 125 OFFCURVE",
"-80 77 CURVE SMOOTH",
"-80 29 OFFCURVE",
"-44 0 OFFCURVE",
"0 0 CURVE SMOOTH"
);
}
);
width = 1260;
}
);
note = g87;
},
{
glyphname = g88;
lastChange = "2016-11-30 01:19:36 +0000";
layers = (
{
layerId = "E7EC2184-43D4-43F6-AF81-545272527AF8";
paths = (
{
closed = 1;
nodes = (
"1220 0 LINE",
"1220 155 LINE",
"978 155 LINE SMOOTH",
"839 155 OFFCURVE",
"696 153 OFFCURVE",
"556 196 CURVE SMOOTH",
"415 239 OFFCURVE",
"327 347 OFFCURVE",
"327 530 CURVE SMOOTH",
"327 742 OFFCURVE",
"499 906 OFFCURVE",
"694 906 CURVE SMOOTH",
"875 906 OFFCURVE",
"981 826 OFFCURVE",
"981 697 CURVE SMOOTH",
"981 593 OFFCURVE",
"909 532 OFFCURVE",
"801 532 CURVE SMOOTH",
"722 532 OFFCURVE",
"655 580 OFFCURVE",
"646 664 CURVE",
"524 650 LINE",
"524 502 OFFCURVE",
"644 397 OFFCURVE",
"807 397 CURVE SMOOTH",
"992 397 OFFCURVE",
"1125 527 OFFCURVE",
"1125 700 CURVE SMOOTH",
"1125 905 OFFCURVE",
"947 1061 OFFCURVE",
"688 1061 CURVE SMOOTH",
"419 1061 OFFCURVE",
"175 811 OFFCURVE",
"175 518 CURVE SMOOTH",
"175 335 OFFCURVE",
"237 226 OFFCURVE",
"348 159 CURVE",
"345 152 LINE",
"322 154 OFFCURVE",
"298 155 OFFCURVE",
"275 155 CURVE SMOOTH",
"0 155 LINE SMOOTH",
"-44 155 OFFCURVE",
"-80 125 OFFCURVE",
"-80 77 CURVE SMOOTH",
"-80 29 OFFCURVE",
"-44 0 OFFCURVE",
"0 0 CURVE SMOOTH"
);
}
);
width = 1340;
}
);
note = g88;
},
{
glyphname = uni0728;
lastChange = "2016-11-30 01:19:36 +0000";
layers = (
{
layerId = "E7EC2184-43D4-43F6-AF81-545272527AF8";
paths = (
{
closed = 1;
nodes = (
"286 -780 OFFCURVE",
"408 -678 OFFCURVE",
"408 -510 CURVE SMOOTH",
"408 -421 OFFCURVE",
"371 -327 OFFCURVE",
"321 -227 CURVE SMOOTH",
"296 -178 OFFCURVE",
"283 -137 OFFCURVE",
"283 -104 CURVE SMOOTH",
"283 -68 OFFCURVE",
"292 -32 OFFCURVE",
"311 5 CURVE SMOOTH",
"347 78 OFFCURVE",
"391 163 OFFCURVE",
"391 260 CURVE SMOOTH",
"391 328 OFFCURVE",
"372 399 OFFCURVE",
"320 474 CURVE",
"192 400 LINE",
"231 343 OFFCURVE",
"241 286 OFFCURVE",
"241 238 CURVE SMOOTH",
"241 185 OFFCURVE",
"223 125 OFFCURVE",
"188 57 CURVE SMOOTH",
"152 -12 OFFCURVE",
"134 -73 OFFCURVE",
"134 -128 CURVE SMOOTH",
"134 -177 OFFCURVE",
"155 -239 OFFCURVE",
"197 -315 CURVE SMOOTH",
"239 -392 OFFCURVE",
"260 -456 OFFCURVE",
"260 -507 CURVE SMOOTH",
"260 -590 OFFCURVE",
"206 -631 OFFCURVE",
"93 -631 CURVE SMOOTH",
"-30 -631 OFFCURVE",
"-195 -565 OFFCURVE",
"-319 -473 CURVE",
"-400 -582 LINE",
"-272 -697 OFFCURVE",
"-70 -780 OFFCURVE",
"86 -780 CURVE SMOOTH"
);
}
);
width = 528;
}
);
note = uni0728;
unicode = 0728;
},
{
glyphname = g90;
lastChange = "2016-11-30 01:19:36 +0000";
layers = (
{
layerId = "E7EC2184-43D4-43F6-AF81-545272527AF8";
paths = (
{
closed = 1;
nodes = (
"286 -780 OFFCURVE",
"408 -678 OFFCURVE",
"408 -510 CURVE SMOOTH",
"408 -421 OFFCURVE",
"371 -327 OFFCURVE",
"321 -227 CURVE SMOOTH",
"296 -178 OFFCURVE",
"283 -137 OFFCURVE",
"283 -104 CURVE SMOOTH",
"283 -49 OFFCURVE",
"315 30 OFFCURVE",
"347 86 CURVE",
"354 86 LINE",
"389 29 OFFCURVE",
"445 0 OFFCURVE",
"520 0 CURVE",
"520 155 LINE",
"481 155 OFFCURVE",
"425 179 OFFCURVE",
"390 235 CURVE",
"391 247 LINE",
"391 260 LINE SMOOTH",
"391 328 OFFCURVE",
"372 399 OFFCURVE",
"320 474 CURVE",
"192 400 LINE",
"231 343 OFFCURVE",
"241 286 OFFCURVE",
"241 238 CURVE SMOOTH",
"241 185 OFFCURVE",
"223 125 OFFCURVE",
"188 60 CURVE SMOOTH",
"152 -6 OFFCURVE",
"134 -69 OFFCURVE",
"134 -128 CURVE SMOOTH",
"134 -177 OFFCURVE",
"155 -239 OFFCURVE",
"197 -315 CURVE SMOOTH",
"239 -392 OFFCURVE",
"260 -456 OFFCURVE",
"260 -507 CURVE SMOOTH",
"260 -590 OFFCURVE",
"206 -631 OFFCURVE",
"93 -631 CURVE SMOOTH",
"-30 -631 OFFCURVE",
"-195 -565 OFFCURVE",
"-319 -473 CURVE",
"-400 -582 LINE",
"-272 -697 OFFCURVE",
"-70 -780 OFFCURVE",
"86 -780 CURVE SMOOTH"
);
}
);
width = 520;
}
);
note = g90;
},
{
glyphname = uni0729;
lastChange = "2016-11-30 01:19:36 +0000";
layers = (
{
layerId = "E7EC2184-43D4-43F6-AF81-545272527AF8";
paths = (
{
closed = 1;
nodes = (
"1145 0 LINE SMOOTH",
"1422 0 OFFCURVE",
"1604 164 OFFCURVE",
"1604 421 CURVE SMOOTH",
"1604 673 OFFCURVE",
"1405 854 OFFCURVE",
"1124 854 CURVE SMOOTH",
"879 854 OFFCURVE",
"688 687 OFFCURVE",
"688 444 CURVE SMOOTH",
"688 328 OFFCURVE",
"730 238 OFFCURVE",
"809 159 CURVE",
"809 152 LINE",
"787 154 OFFCURVE",
"765 155 OFFCURVE",
"742 155 CURVE SMOOTH",
"587 155 LINE SMOOTH",
"371 155 OFFCURVE",
"261 243 OFFCURVE",
"261 406 CURVE SMOOTH",
"261 421 LINE",
"125 413 LINE",
"124 408 OFFCURVE",
"122 393 OFFCURVE",
"122 380 CURVE",
"120 350 LINE",
"120 131 OFFCURVE",
"283 0 OFFCURVE",
"570 0 CURVE SMOOTH"
);
},
{
closed = 1;
nodes = (
"972 155 OFFCURVE",
"837 283 OFFCURVE",
"837 451 CURVE SMOOTH",
"837 602 OFFCURVE",
"960 704 OFFCURVE",
"1124 704 CURVE SMOOTH",
"1320 704 OFFCURVE",
"1454 587 OFFCURVE",
"1454 424 CURVE SMOOTH",
"1454 260 OFFCURVE",
"1336 155 OFFCURVE",
"1165 155 CURVE SMOOTH"
);
}
);
width = 1733;
}
);
note = uni0729;
unicode = 0729;
},
{
glyphname = g92;
lastChange = "2016-11-30 01:19:36 +0000";
layers = (
{
layerId = "E7EC2184-43D4-43F6-AF81-545272527AF8";
paths = (
{
closed = 1;
nodes = (
"1733 0 LINE",
"1733 155 LINE",
"1580 155 LINE",
"1494 151 LINE",
"1494 158 LINE",
"1557 218 OFFCURVE",
"1604 327 OFFCURVE",
"1604 431 CURVE SMOOTH",
"1604 682 OFFCURVE",
"1407 854 OFFCURVE",
"1124 854 CURVE SMOOTH",
"879 854 OFFCURVE",
"688 683 OFFCURVE",
"688 439 CURVE SMOOTH",
"688 323 OFFCURVE",
"726 235 OFFCURVE",
"809 159 CURVE",
"809 152 LINE",
"787 154 OFFCURVE",
"765 155 OFFCURVE",
"742 155 CURVE SMOOTH",
"587 155 LINE SMOOTH",
"371 155 OFFCURVE",
"261 243 OFFCURVE",
"261 406 CURVE SMOOTH",
"261 421 LINE",
"125 413 LINE",
"124 408 OFFCURVE",
"122 393 OFFCURVE",
"122 380 CURVE",
"120 350 LINE",
"120 131 OFFCURVE",
"283 0 OFFCURVE",
"570 0 CURVE SMOOTH"
);
},
{
closed = 1;
nodes = (
"969 155 OFFCURVE",
"837 281 OFFCURVE",
"837 446 CURVE SMOOTH",
"837 599 OFFCURVE",
"964 704 OFFCURVE",
"1124 704 CURVE SMOOTH",
"1320 704 OFFCURVE",
"1454 587 OFFCURVE",
"1454 424 CURVE SMOOTH",
"1454 260 OFFCURVE",
"1336 155 OFFCURVE",
"1165 155 CURVE SMOOTH"
);
}
);
width = 1733;
}
);
note = g92;
},
{
glyphname = g93;
lastChange = "2016-11-30 01:19:36 +0000";
layers = (
{
layerId = "E7EC2184-43D4-43F6-AF81-545272527AF8";
paths = (
{
closed = 1;
nodes = (
"1175 0 LINE",
"1175 155 LINE",
"1022 155 LINE",
"936 151 LINE",
"936 158 LINE",
"999 218 OFFCURVE",
"1046 327 OFFCURVE",
"1046 431 CURVE SMOOTH",
"1046 682 OFFCURVE",
"849 854 OFFCURVE",
"566 854 CURVE SMOOTH",
"321 854 OFFCURVE",
"130 683 OFFCURVE",
"130 439 CURVE SMOOTH",
"130 323 OFFCURVE",
"168 235 OFFCURVE",
"251 159 CURVE",
"251 152 LINE",
"229 154 OFFCURVE",
"207 155 OFFCURVE",
"184 155 CURVE SMOOTH",
"0 155 LINE SMOOTH",
"-44 155 OFFCURVE",
"-80 125 OFFCURVE",
"-80 77 CURVE SMOOTH",
"-80 29 OFFCURVE",
"-44 0 OFFCURVE",
"0 0 CURVE SMOOTH"
);
},
{
closed = 1;
nodes = (
"411 155 OFFCURVE",
"279 281 OFFCURVE",
"279 446 CURVE SMOOTH",
"279 599 OFFCURVE",
"406 704 OFFCURVE",
"566 704 CURVE SMOOTH",
"762 704 OFFCURVE",
"896 587 OFFCURVE",
"896 424 CURVE SMOOTH",
"896 260 OFFCURVE",
"778 155 OFFCURVE",
"607 155 CURVE SMOOTH"
);
}
);
width = 1175;
}
);
note = g93;
},
{
glyphname = g94;
lastChange = "2016-11-30 01:19:36 +0000";
layers = (
{
layerId = "E7EC2184-43D4-43F6-AF81-545272527AF8";
paths = (
{
closed = 1;
nodes = (
"587 0 LINE SMOOTH",
"864 0 OFFCURVE",
"1046 164 OFFCURVE",
"1046 421 CURVE SMOOTH",
"1046 673 OFFCURVE",
"847 854 OFFCURVE",
"566 854 CURVE SMOOTH",
"321 854 OFFCURVE",
"130 683 OFFCURVE",
"130 439 CURVE SMOOTH",
"130 323 OFFCURVE",
"168 235 OFFCURVE",
"251 159 CURVE",
"251 152 LINE",
"229 154 OFFCURVE",
"207 155 OFFCURVE",
"184 155 CURVE SMOOTH",
"0 155 LINE SMOOTH",
"-44 155 OFFCURVE",
"-80 125 OFFCURVE",
"-80 77 CURVE SMOOTH",
"-80 29 OFFCURVE",
"-44 0 OFFCURVE",
"0 0 CURVE SMOOTH"
);
},
{
closed = 1;
nodes = (
"411 155 OFFCURVE",
"279 281 OFFCURVE",
"279 446 CURVE SMOOTH",
"279 599 OFFCURVE",
"406 704 OFFCURVE",
"566 704 CURVE SMOOTH",
"762 704 OFFCURVE",
"896 587 OFFCURVE",
"896 424 CURVE SMOOTH",
"896 260 OFFCURVE",
"778 155 OFFCURVE",
"607 155 CURVE SMOOTH"
);
}
);
width = 1175;
}
);
note = g94;
},
{
glyphname = g96;
lastChange = "2016-11-30 01:19:36 +0000";
layers = (
{
layerId = "E7EC2184-43D4-43F6-AF81-545272527AF8";
paths = (
{
closed = 1;
nodes = (
"366 -243 OFFCURVE",
"460 -130 OFFCURVE",
"507 7 CURVE",
"570 0 OFFCURVE",
"632 0 OFFCURVE",
"688 0 CURVE",
"688 155 LINE",
"571 155 OFFCURVE",
"531 186 OFFCURVE",
"484 256 CURVE SMOOTH",
"437 326 OFFCURVE",
"382 366 OFFCURVE",
"301 366 CURVE SMOOTH",
"212 366 OFFCURVE",
"140 294 OFFCURVE",
"140 206 CURVE SMOOTH",
"140 146 OFFCURVE",
"157 104 OFFCURVE",
"204 59 CURVE SMOOTH",
"259 8 LINE",
"276 -9 OFFCURVE",
"287 -26 OFFCURVE",
"290 -43 CURVE",
"290 -86 OFFCURVE",
"234 -171 OFFCURVE",
"170 -238 CURVE",
"258 -331 LINE"
);
},
{
closed = 1;
nodes = (
"411 540 OFFCURVE",
"450 580 OFFCURVE",
"450 655 CURVE SMOOTH",
"450 731 OFFCURVE",
"412 771 OFFCURVE",
"344 771 CURVE SMOOTH",
"280 771 OFFCURVE",
"243 731 OFFCURVE",
"243 655 CURVE SMOOTH",
"243 572 OFFCURVE",
"285 540 OFFCURVE",
"344 540 CURVE SMOOTH"
);
}
);
width = 688;
}
);
note = g96;
},
{
glyphname = uni072B;
lastChange = "2016-11-30 01:19:36 +0000";
layers = (
{
layerId = "E7EC2184-43D4-43F6-AF81-545272527AF8";
paths = (
{
closed = 1;
nodes = (
"633 0 OFFCURVE",
"768 20 OFFCURVE",
"927 81 CURVE",
"1014 34 OFFCURVE",
"1144 0 OFFCURVE",
"1247 0 CURVE SMOOTH",
"1363 0 OFFCURVE",
"1464 38 OFFCURVE",
"1517 90 CURVE",
"1456 189 LINE",
"1452 190 LINE",
"1416 166 OFFCURVE",
"1388 151 OFFCURVE",
"1344 151 CURVE SMOOTH",
"1275 151 OFFCURVE",
"1210 186 OFFCURVE",
"1163 238 CURVE",
"1224 302 OFFCURVE",
"1238 362 OFFCURVE",
"1238 431 CURVE SMOOTH",
"1238 595 OFFCURVE",
"1103 718 OFFCURVE",
"942 718 CURVE SMOOTH",
"743 718 OFFCURVE",
"621 599 OFFCURVE",
"621 410 CURVE SMOOTH",
"621 342 OFFCURVE",
"639 289 OFFCURVE",
"678 233 CURVE",
"665 182 OFFCURVE",
"593 155 OFFCURVE",
"512 155 CURVE SMOOTH",
"349 155 OFFCURVE",
"261 256 OFFCURVE",
"261 436 CURVE SMOOTH",
"261 451 LINE",
"125 443 LINE",
"124 438 OFFCURVE",
"122 423 OFFCURVE",
"122 410 CURVE",
"120 380 LINE",
"120 148 OFFCURVE",
"272 0 OFFCURVE",
"512 0 CURVE SMOOTH"
);
}
);
width = 1637;
}
);
note = uni072B;
unicode = 072B;
},
{
glyphname = g98;
lastChange = "2016-11-30 01:19:36 +0000";
layers = (
{
layerId = "E7EC2184-43D4-43F6-AF81-545272527AF8";
paths = (
{
closed = 1;
nodes = (
"635 0 OFFCURVE",
"774 20 OFFCURVE",
"934 84 CURVE",
"1049 32 OFFCURVE",
"1210 0 OFFCURVE",
"1357 0 CURVE SMOOTH",
"1408 0 LINE",
"1408 155 LINE",
"1401 155 LINE SMOOTH",
"1290 155 OFFCURVE",
"1213 187 OFFCURVE",
"1162 238 CURVE",
"1222 301 OFFCURVE",
"1238 356 OFFCURVE",
"1238 431 CURVE SMOOTH",
"1238 595 OFFCURVE",
"1103 718 OFFCURVE",
"942 718 CURVE SMOOTH",
"743 718 OFFCURVE",
"621 599 OFFCURVE",
"621 410 CURVE SMOOTH",
"621 342 OFFCURVE",
"639 289 OFFCURVE",
"678 233 CURVE",
"665 182 OFFCURVE",
"593 155 OFFCURVE",
"512 155 CURVE SMOOTH",
"349 155 OFFCURVE",
"261 256 OFFCURVE",
"261 436 CURVE SMOOTH",
"261 451 LINE",
"125 443 LINE",
"124 438 OFFCURVE",
"122 423 OFFCURVE",
"122 410 CURVE",
"120 380 LINE",
"120 148 OFFCURVE",
"272 0 OFFCURVE",
"512 0 CURVE SMOOTH"
);
}
);
width = 1408;
}
);
note = g98;
},
{
glyphname = g99;
lastChange = "2016-11-30 01:19:36 +0000";
layers = (
{
layerId = "E7EC2184-43D4-43F6-AF81-545272527AF8";
paths = (
{
closed = 1;
nodes = (
"187 0 OFFCURVE",
"340 19 OFFCURVE",
"485 83 CURVE",
"606 27 OFFCURVE",
"767 0 OFFCURVE",
"906 0 CURVE SMOOTH",
"957 0 LINE",
"957 155 LINE",
"950 155 LINE SMOOTH",
"839 155 OFFCURVE",
"762 187 OFFCURVE",
"711 238 CURVE",
"771 301 OFFCURVE",
"787 356 OFFCURVE",
"787 431 CURVE SMOOTH",
"787 595 OFFCURVE",
"652 718 OFFCURVE",
"491 718 CURVE SMOOTH",
"292 718 OFFCURVE",
"170 599 OFFCURVE",
"170 410 CURVE SMOOTH",
"170 342 OFFCURVE",
"188 289 OFFCURVE",
"227 233 CURVE",
"210 184 OFFCURVE",
"107 155 OFFCURVE",
"0 155 CURVE SMOOTH",
"-44 155 OFFCURVE",
"-80 125 OFFCURVE",
"-80 77 CURVE SMOOTH",
"-80 29 OFFCURVE",
"-44 0 OFFCURVE",
"0 0 CURVE SMOOTH"
);
}
);
width = 957;
}
);
note = g99;
},
{
glyphname = g100;
lastChange = "2016-11-30 01:19:36 +0000";
layers = (
{
layerId = "E7EC2184-43D4-43F6-AF81-545272527AF8";
paths = (
{
closed = 1;
nodes = (
"184 0 OFFCURVE",
"334 19 OFFCURVE",
"478 80 CURVE",
"578 29 OFFCURVE",
"699 0 OFFCURVE",
"796 0 CURVE SMOOTH",
"912 0 OFFCURVE",
"1013 38 OFFCURVE",
"1066 90 CURVE",
"1005 189 LINE",
"1001 190 LINE",
"965 166 OFFCURVE",
"937 151 OFFCURVE",
"893 151 CURVE SMOOTH",
"824 151 OFFCURVE",
"759 186 OFFCURVE",
"712 238 CURVE",
"773 302 OFFCURVE",
"787 362 OFFCURVE",
"787 431 CURVE SMOOTH",
"787 595 OFFCURVE",
"652 718 OFFCURVE",
"491 718 CURVE SMOOTH",
"292 718 OFFCURVE",
"170 599 OFFCURVE",
"170 410 CURVE SMOOTH",
"170 342 OFFCURVE",
"188 289 OFFCURVE",
"227 233 CURVE",
"210 184 OFFCURVE",
"107 155 OFFCURVE",
"0 155 CURVE SMOOTH",
"-44 155 OFFCURVE",
"-80 125 OFFCURVE",
"-80 77 CURVE SMOOTH",
"-80 29 OFFCURVE",
"-44 0 OFFCURVE",
"0 0 CURVE SMOOTH"
);
}
);
width = 1186;
}
);
note = g100;
},
{
glyphname = uni072C;
lastChange = "2016-11-30 01:19:36 +0000";
layers = (
{
layerId = "E7EC2184-43D4-43F6-AF81-545272527AF8";
paths = (
{
closed = 1;
nodes = (
"712 76 LINE",
"652 109 OFFCURVE",
"560 124 OFFCURVE",
"473 124 CURVE SMOOTH",
"445 124 OFFCURVE",
"383 120 OFFCURVE",
"311 101 CURVE",
"308 106 LINE",
"373 269 OFFCURVE",
"418 545 OFFCURVE",
"418 833 CURVE SMOOTH",
"418 973 OFFCURVE",
"415 1105 OFFCURVE",
"384 1250 CURVE",
"239 1222 LINE",
"252 1141 OFFCURVE",
"265 976 OFFCURVE",
"265 840 CURVE SMOOTH",
"265 477 OFFCURVE",
"221 215 OFFCURVE",
"140 36 CURVE",
"166 -50 LINE",
"211 -42 OFFCURVE",
"336 -30 OFFCURVE",
"433 -30 CURVE SMOOTH",
"516 -30 OFFCURVE",
"617 -43 OFFCURVE",
"669 -60 CURVE"
);
}
);
width = 812;
}
);
note = uni072C;
unicode = 072C;
},
{
glyphname = g102;
lastChange = "2016-11-30 01:19:36 +0000";
layers = (
{
layerId = "E7EC2184-43D4-43F6-AF81-545272527AF8";
paths = (
{
closed = 1;
nodes = (
"712 76 LINE",
"653 109 OFFCURVE",
"560 124 OFFCURVE",
"472 124 CURVE SMOOTH",
"445 124 OFFCURVE",
"381 118 OFFCURVE",
"313 102 CURVE",
"309 108 LINE",
"361 259 OFFCURVE",
"403 537 OFFCURVE",
"403 748 CURVE SMOOTH",
"403 800 OFFCURVE",
"402 851 OFFCURVE",
"398 902 CURVE",
"408 902 LINE",
"439 843 OFFCURVE",
"586 614 OFFCURVE",
"698 451 CURVE SMOOTH",
"756 367 LINE",
"827 267 LINE SMOOTH",
"870 205 OFFCURVE",
"907 157 OFFCURVE",
"936 123 CURVE SMOOTH",
"995 54 OFFCURVE",
"1061 0 OFFCURVE",
"1197 0 CURVE",
"1197 155 LINE",
"1149 155 OFFCURVE",
"1106 175 OFFCURVE",
"1067 216 CURVE SMOOTH",
"1028 256 OFFCURVE",
"969 329 OFFCURVE",
"891 436 CURVE SMOOTH",
"735 649 OFFCURVE",
"506 1002 OFFCURVE",
"391 1213 CURVE",
"251 1155 LINE",
"262 1054 OFFCURVE",
"263 955 OFFCURVE",
"263 835 CURVE SMOOTH",
"263 520 OFFCURVE",
"220 221 OFFCURVE",
"140 36 CURVE",
"167 -50 LINE",
"212 -42 OFFCURVE",
"337 -30 OFFCURVE",
"434 -30 CURVE SMOOTH",
"517 -30 OFFCURVE",
"620 -43 OFFCURVE",
"671 -60 CURVE"
);
}
);
width = 1197;
}
);
note = g102;
},
{
glyphname = uni072D;
lastChange = "2016-11-30 01:19:36 +0000";
layers = (
{
layerId = "E7EC2184-43D4-43F6-AF81-545272527AF8";
paths = (
{
closed = 1;
nodes = (
"1359 0 LINE SMOOTH",
"1575 0 OFFCURVE",
"1685 93 OFFCURVE",
"1685 268 CURVE SMOOTH",
"1685 375 OFFCURVE",
"1656 471 OFFCURVE",
"1598 558 CURVE SMOOTH",
"1482 731 OFFCURVE",
"1241 841 OFFCURVE",
"993 841 CURVE SMOOTH",
"962 841 OFFCURVE",
"929 839 OFFCURVE",
"900 836 CURVE",
"900 844 LINE",
"930 872 LINE",
"1013 952 LINE",
"1056 995 LINE",
"1094 1034 LINE SMOOTH",
"1106 1046 OFFCURVE",
"1116 1056 OFFCURVE",
"1124 1065 CURVE SMOOTH",
"1226 1175 LINE",
"1117 1266 LINE",
"702 792 LINE",
"735 681 LINE",
"818 692 OFFCURVE",
"896 695 OFFCURVE",
"944 695 CURVE SMOOTH",
"1271 695 OFFCURVE",
"1534 514 OFFCURVE",
"1534 275 CURVE SMOOTH",
"1534 198 OFFCURVE",
"1479 155 OFFCURVE",
"1390 155 CURVE SMOOTH",
"577 155 LINE SMOOTH",
"373 155 OFFCURVE",
"261 257 OFFCURVE",
"261 436 CURVE SMOOTH",
"261 451 LINE",
"125 443 LINE",
"124 438 OFFCURVE",
"122 423 OFFCURVE",
"122 410 CURVE",
"120 380 LINE",
"120 141 OFFCURVE",
"285 0 OFFCURVE",
"560 0 CURVE SMOOTH"
);
}
);
width = 1825;
}
);
note = uni072D;
unicode = 072D;
},
{
glyphname = g104;
lastChange = "2016-11-30 01:19:36 +0000";
layers = (
{
layerId = "E7EC2184-43D4-43F6-AF81-545272527AF8";
paths = (
{
closed = 1;
nodes = (
"1815 0 LINE",
"1815 155 LINE",
"1720 155 LINE",
"1695 154 OFFCURVE",
"1671 153 OFFCURVE",
"1647 152 CURVE",
"1644 159 LINE",
"1675 195 OFFCURVE",
"1686 251 OFFCURVE",
"1686 298 CURVE SMOOTH",
"1686 397 OFFCURVE",
"1655 488 OFFCURVE",
"1594 571 CURVE SMOOTH",
"1470 736 OFFCURVE",
"1229 841 OFFCURVE",
"993 841 CURVE SMOOTH",
"962 841 OFFCURVE",
"929 839 OFFCURVE",
"900 836 CURVE",
"900 844 LINE",
"930 872 LINE",
"1013 952 LINE",
"1056 995 LINE",
"1094 1034 LINE SMOOTH",
"1106 1046 OFFCURVE",
"1116 1056 OFFCURVE",
"1124 1065 CURVE SMOOTH",
"1226 1175 LINE",
"1117 1266 LINE",
"702 792 LINE",
"735 681 LINE",
"818 692 OFFCURVE",
"896 695 OFFCURVE",
"944 695 CURVE SMOOTH",
"1271 695 OFFCURVE",
"1534 514 OFFCURVE",
"1534 275 CURVE SMOOTH",
"1534 198 OFFCURVE",
"1479 155 OFFCURVE",
"1390 155 CURVE SMOOTH",
"577 155 LINE SMOOTH",
"373 155 OFFCURVE",
"261 257 OFFCURVE",
"261 436 CURVE SMOOTH",
"261 451 LINE",
"125 443 LINE",
"124 438 OFFCURVE",
"122 423 OFFCURVE",
"122 410 CURVE",
"120 380 LINE",
"120 141 OFFCURVE",
"285 0 OFFCURVE",
"560 0 CURVE SMOOTH"
);
}
);
width = 1815;
}
);
note = g104;
},
{
glyphname = g105;
lastChange = "2016-11-30 01:19:36 +0000";
layers = (
{
layerId = "E7EC2184-43D4-43F6-AF81-545272527AF8";
paths = (
{
closed = 1;
nodes = (
"1232 0 LINE",
"1232 155 LINE",
"1137 155 LINE",
"1112 154 OFFCURVE",
"1088 153 OFFCURVE",
"1064 152 CURVE",
"1061 159 LINE",
"1092 195 OFFCURVE",
"1103 251 OFFCURVE",
"1103 298 CURVE SMOOTH",
"1103 397 OFFCURVE",
"1072 488 OFFCURVE",
"1011 571 CURVE SMOOTH",
"887 736 OFFCURVE",
"646 841 OFFCURVE",
"410 841 CURVE SMOOTH",
"379 841 OFFCURVE",
"346 839 OFFCURVE",
"317 836 CURVE",
"317 844 LINE",
"347 872 LINE",
"430 952 LINE",
"473 995 LINE",
"511 1034 LINE SMOOTH",
"523 1046 OFFCURVE",
"533 1056 OFFCURVE",
"541 1065 CURVE SMOOTH",
"643 1175 LINE",
"534 1266 LINE",
"119 792 LINE",
"152 681 LINE",
"235 692 OFFCURVE",
"313 695 OFFCURVE",
"361 695 CURVE SMOOTH",
"688 695 OFFCURVE",
"951 514 OFFCURVE",
"951 275 CURVE SMOOTH",
"951 198 OFFCURVE",
"896 155 OFFCURVE",
"807 155 CURVE SMOOTH",
"0 155 LINE SMOOTH",
"-44 155 OFFCURVE",
"-80 125 OFFCURVE",
"-80 77 CURVE SMOOTH",
"-80 29 OFFCURVE",
"-44 0 OFFCURVE",
"0 0 CURVE SMOOTH"
);
}
);
width = 1232;
}
);
note = g105;
},
{
glyphname = g106;
lastChange = "2016-11-30 01:19:36 +0000";
layers = (
{
layerId = "E7EC2184-43D4-43F6-AF81-545272527AF8";
paths = (
{
closed = 1;
nodes = (
"776 0 LINE SMOOTH",
"992 0 OFFCURVE",
"1102 93 OFFCURVE",
"1102 268 CURVE SMOOTH",
"1102 375 OFFCURVE",
"1073 471 OFFCURVE",
"1015 558 CURVE SMOOTH",
"899 731 OFFCURVE",
"658 841 OFFCURVE",
"410 841 CURVE SMOOTH",
"379 841 OFFCURVE",
"346 839 OFFCURVE",
"317 836 CURVE",
"317 844 LINE",
"347 872 LINE",
"430 952 LINE",
"473 995 LINE",
"511 1034 LINE SMOOTH",
"523 1046 OFFCURVE",
"533 1056 OFFCURVE",
"541 1065 CURVE SMOOTH",
"643 1175 LINE",
"534 1266 LINE",
"119 792 LINE",
"152 681 LINE",
"235 692 OFFCURVE",
"313 695 OFFCURVE",
"361 695 CURVE SMOOTH",
"688 695 OFFCURVE",
"951 514 OFFCURVE",
"951 275 CURVE SMOOTH",
"951 198 OFFCURVE",
"896 155 OFFCURVE",
"807 155 CURVE SMOOTH",
"0 155 LINE SMOOTH",
"-44 155 OFFCURVE",
"-80 125 OFFCURVE",
"-80 77 CURVE SMOOTH",
"-80 29 OFFCURVE",
"-44 0 OFFCURVE",
"0 0 CURVE SMOOTH"
);
}
);
width = 1242;
}
);
note = g106;
},
{
glyphname = uni072E;
lastChange = "2016-11-30 01:19:36 +0000";
layers = (
{
layerId = "E7EC2184-43D4-43F6-AF81-545272527AF8";
paths = (
{
closed = 1;
nodes = (
"1598 -801 OFFCURVE",
"1727 -678 OFFCURVE",
"1727 -530 CURVE SMOOTH",
"1727 -450 OFFCURVE",
"1695 -388 OFFCURVE",
"1611 -325 CURVE SMOOTH",
"1086 67 LINE SMOOTH",
"1069 80 OFFCURVE",
"1050 93 OFFCURVE",
"1031 106 CURVE SMOOTH",
"1011 119 OFFCURVE",
"991 132 OFFCURVE",
"971 145 CURVE",
"971 153 LINE",
"1119 161 OFFCURVE",
"1212 262 OFFCURVE",
"1212 397 CURVE SMOOTH",
"1212 478 OFFCURVE",
"1160 546 OFFCURVE",
"1096 597 CURVE SMOOTH",
"1003 671 LINE",
"902 748 LINE",
"812 627 LINE",
"977 502 LINE SMOOTH",
"1030 459 OFFCURVE",
"1058 424 OFFCURVE",
"1058 380 CURVE SMOOTH",
"1058 301 OFFCURVE",
"991 255 OFFCURVE",
"895 255 CURVE SMOOTH",
"856 255 OFFCURVE",
"823 267 OFFCURVE",
"791 290 CURVE SMOOTH",
"750 319 LINE",
"658 190 LINE",
"1523 -451 LINE SMOOTH",
"1554 -474 OFFCURVE",
"1571 -499 OFFCURVE",
"1571 -530 CURVE SMOOTH",
"1571 -595 OFFCURVE",
"1502 -646 OFFCURVE",
"1403 -646 CURVE SMOOTH",
"1314 -646 OFFCURVE",
"1248 -607 OFFCURVE",
"1187 -560 CURVE SMOOTH",
"438 0 LINE SMOOTH",
"322 85 OFFCURVE",
"270 174 OFFCURVE",
"270 283 CURVE SMOOTH",
"270 330 OFFCURVE",
"281 365 OFFCURVE",
"301 408 CURVE",
"186 480 LINE",
"143 423 OFFCURVE",
"120 347 OFFCURVE",
"120 267 CURVE SMOOTH",
"120 122 OFFCURVE",
"189 -11 OFFCURVE",
"337 -122 CURVE SMOOTH",
"1072 -671 LINE SMOOTH",
"1196 -763 OFFCURVE",
"1299 -801 OFFCURVE",
"1398 -801 CURVE SMOOTH"
);
}
);
width = 1737;
}
);
note = uni072E;
unicode = 072E;
},
{
glyphname = g108;
lastChange = "2016-11-30 01:19:36 +0000";
layers = (
{
layerId = "E7EC2184-43D4-43F6-AF81-545272527AF8";
paths = (
{
closed = 1;
nodes = (
"1598 -801 OFFCURVE",
"1727 -678 OFFCURVE",
"1727 -530 CURVE SMOOTH",
"1727 -450 OFFCURVE",
"1695 -388 OFFCURVE",
"1611 -325 CURVE SMOOTH",
"1321 -108 LINE SMOOTH",
"1313 -102 OFFCURVE",
"1300 -93 OFFCURVE",
"1282 -80 CURVE SMOOTH",
"1226 -42 LINE",
"1172 -6 LINE SMOOTH",
"1155 5 OFFCURVE",
"1144 12 OFFCURVE",
"1138 15 CURVE",
"1138 22 LINE",
"1194 10 OFFCURVE",
"1284 0 OFFCURVE",
"1315 0 CURVE SMOOTH",
"1325 0 LINE",
"1325 155 LINE",
"1204 155 LINE",
"1068 151 LINE",
"1015 148 LINE",
"1015 161 LINE",
"1134 186 OFFCURVE",
"1214 275 OFFCURVE",
"1214 395 CURVE SMOOTH",
"1214 476 OFFCURVE",
"1162 544 OFFCURVE",
"1098 595 CURVE SMOOTH",
"1005 669 LINE",
"901 748 LINE",
"811 627 LINE",
"979 500 LINE SMOOTH",
"1032 457 OFFCURVE",
"1060 422 OFFCURVE",
"1060 378 CURVE SMOOTH",
"1060 299 OFFCURVE",
"993 253 OFFCURVE",
"897 253 CURVE SMOOTH",
"865 253 OFFCURVE",
"832 261 OFFCURVE",
"791 290 CURVE SMOOTH",
"750 319 LINE",
"658 190 LINE",
"1523 -451 LINE SMOOTH",
"1554 -474 OFFCURVE",
"1571 -499 OFFCURVE",
"1571 -530 CURVE SMOOTH",
"1571 -595 OFFCURVE",
"1502 -646 OFFCURVE",
"1403 -646 CURVE SMOOTH",
"1314 -646 OFFCURVE",
"1248 -607 OFFCURVE",
"1187 -560 CURVE SMOOTH",
"438 0 LINE SMOOTH",
"322 85 OFFCURVE",
"270 174 OFFCURVE",
"270 283 CURVE SMOOTH",
"270 330 OFFCURVE",
"281 365 OFFCURVE",
"301 408 CURVE",
"186 480 LINE",
"143 423 OFFCURVE",
"120 347 OFFCURVE",
"120 267 CURVE SMOOTH",
"120 122 OFFCURVE",
"189 -11 OFFCURVE",
"337 -122 CURVE SMOOTH",
"1072 -671 LINE SMOOTH",
"1196 -763 OFFCURVE",
"1299 -801 OFFCURVE",
"1398 -801 CURVE SMOOTH"
);
}
);
width = 1325;
}
);
note = g108;
},
{
glyphname = g109;
lastChange = "2016-11-30 01:19:36 +0000";
layers = (
{
layerId = "E7EC2184-43D4-43F6-AF81-545272527AF8";
paths = (
{
closed = 1;
nodes = (
"1566 -801 OFFCURVE",
"1695 -678 OFFCURVE",
"1695 -530 CURVE SMOOTH",
"1695 -450 OFFCURVE",
"1663 -388 OFFCURVE",
"1579 -325 CURVE SMOOTH",
"1289 -108 LINE SMOOTH",
"1281 -102 OFFCURVE",
"1268 -93 OFFCURVE",
"1250 -80 CURVE SMOOTH",
"1194 -42 LINE",
"1140 -6 LINE SMOOTH",
"1123 5 OFFCURVE",
"1112 12 OFFCURVE",
"1106 15 CURVE",
"1106 23 LINE",
"1151 14 OFFCURVE",
"1246 0 OFFCURVE",
"1283 0 CURVE SMOOTH",
"1293 0 LINE",
"1293 155 LINE",
"1172 155 LINE",
"1036 151 LINE",
"983 148 LINE",
"983 161 LINE",
"1102 186 OFFCURVE",
"1182 275 OFFCURVE",
"1182 395 CURVE SMOOTH",
"1182 476 OFFCURVE",
"1130 544 OFFCURVE",
"1066 595 CURVE SMOOTH",
"973 669 LINE",
"869 748 LINE",
"779 627 LINE",
"947 500 LINE SMOOTH",
"1000 457 OFFCURVE",
"1028 422 OFFCURVE",
"1028 378 CURVE SMOOTH",
"1028 299 OFFCURVE",
"961 253 OFFCURVE",
"865 253 CURVE SMOOTH",
"821 253 OFFCURVE",
"790 267 OFFCURVE",
"759 290 CURVE SMOOTH",
"718 319 LINE",
"626 190 LINE",
"1491 -451 LINE SMOOTH",
"1522 -474 OFFCURVE",
"1539 -499 OFFCURVE",
"1539 -530 CURVE SMOOTH",
"1539 -595 OFFCURVE",
"1470 -646 OFFCURVE",
"1371 -646 CURVE SMOOTH",
"1282 -646 OFFCURVE",
"1216 -607 OFFCURVE",
"1155 -560 CURVE SMOOTH",
"383 18 LINE SMOOTH",
"219 137 OFFCURVE",
"140 155 OFFCURVE",
"53 155 CURVE SMOOTH",
"0 155 LINE SMOOTH",
"-44 155 OFFCURVE",
"-80 126 OFFCURVE",
"-80 78 CURVE SMOOTH",
"-80 30 OFFCURVE",
"-44 0 OFFCURVE",
"0 0 CURVE SMOOTH",
"35 0 LINE SMOOTH",
"104 0 OFFCURVE",
"167 -20 OFFCURVE",
"282 -104 CURVE SMOOTH",
"1040 -671 LINE SMOOTH",
"1164 -763 OFFCURVE",
"1267 -801 OFFCURVE",
"1366 -801 CURVE SMOOTH"
);
}
);
width = 1293;
}
);
note = g109;
},
{
glyphname = g110;
lastChange = "2016-11-30 01:19:36 +0000";
layers = (
{
layerId = "E7EC2184-43D4-43F6-AF81-545272527AF8";
paths = (
{
closed = 1;
nodes = (
"1566 -801 OFFCURVE",
"1695 -678 OFFCURVE",
"1695 -530 CURVE SMOOTH",
"1695 -450 OFFCURVE",
"1663 -388 OFFCURVE",
"1579 -325 CURVE SMOOTH",
"1054 67 LINE SMOOTH",
"1037 80 OFFCURVE",
"1018 93 OFFCURVE",
"999 106 CURVE SMOOTH",
"979 119 OFFCURVE",
"959 132 OFFCURVE",
"939 145 CURVE",
"939 153 LINE",
"1087 161 OFFCURVE",
"1180 262 OFFCURVE",
"1180 397 CURVE SMOOTH",
"1180 478 OFFCURVE",
"1128 546 OFFCURVE",
"1064 597 CURVE SMOOTH",
"971 671 LINE",
"817 788 LINE",
"727 667 LINE",
"945 502 LINE SMOOTH",
"998 459 OFFCURVE",
"1026 424 OFFCURVE",
"1026 380 CURVE SMOOTH",
"1026 301 OFFCURVE",
"959 255 OFFCURVE",
"863 255 CURVE SMOOTH",
"831 255 OFFCURVE",
"789 269 OFFCURVE",
"757 292 CURVE SMOOTH",
"685 344 LINE",
"593 215 LINE",
"1491 -451 LINE SMOOTH",
"1522 -474 OFFCURVE",
"1539 -499 OFFCURVE",
"1539 -530 CURVE SMOOTH",
"1539 -595 OFFCURVE",
"1470 -646 OFFCURVE",
"1371 -646 CURVE SMOOTH",
"1282 -646 OFFCURVE",
"1216 -607 OFFCURVE",
"1155 -560 CURVE SMOOTH",
"383 18 LINE SMOOTH",
"219 137 OFFCURVE",
"140 155 OFFCURVE",
"53 155 CURVE SMOOTH",
"0 155 LINE SMOOTH",
"-44 155 OFFCURVE",
"-80 126 OFFCURVE",
"-80 78 CURVE SMOOTH",
"-80 30 OFFCURVE",
"-44 0 OFFCURVE",
"0 0 CURVE SMOOTH",
"35 0 LINE SMOOTH",
"104 0 OFFCURVE",
"167 -20 OFFCURVE",
"282 -104 CURVE SMOOTH",
"1040 -671 LINE SMOOTH",
"1164 -763 OFFCURVE",
"1267 -801 OFFCURVE",
"1366 -801 CURVE SMOOTH"
);
}
);
width = 1705;
}
);
note = g110;
},
{
glyphname = g112;
lastChange = "2016-11-30 01:19:36 +0000";
layers = (
{
layerId = "E7EC2184-43D4-43F6-AF81-545272527AF8";
paths = (
{
closed = 1;
nodes = (
"386 -243 OFFCURVE",
"480 -130 OFFCURVE",
"527 7 CURVE",
"590 0 OFFCURVE",
"652 0 OFFCURVE",
"708 0 CURVE",
"708 155 LINE",
"591 155 OFFCURVE",
"551 186 OFFCURVE",
"504 256 CURVE SMOOTH",
"457 326 OFFCURVE",
"402 366 OFFCURVE",
"321 366 CURVE SMOOTH",
"232 366 OFFCURVE",
"160 294 OFFCURVE",
"160 206 CURVE SMOOTH",
"160 146 OFFCURVE",
"177 104 OFFCURVE",
"224 59 CURVE SMOOTH",
"279 8 LINE",
"296 -9 OFFCURVE",
"307 -26 OFFCURVE",
"310 -43 CURVE",
"310 -86 OFFCURVE",
"254 -171 OFFCURVE",
"190 -238 CURVE",
"278 -331 LINE"
);
},
{
closed = 1;
nodes = (
"225 -677 OFFCURVE",
"264 -637 OFFCURVE",
"264 -562 CURVE SMOOTH",
"264 -486 OFFCURVE",
"226 -446 OFFCURVE",
"158 -446 CURVE SMOOTH",
"94 -446 OFFCURVE",
"57 -486 OFFCURVE",
"57 -562 CURVE SMOOTH",
"57 -645 OFFCURVE",
"99 -677 OFFCURVE",
"158 -677 CURVE SMOOTH"
);
},
{
closed = 1;
nodes = (
"65 -340 OFFCURVE",
"104 -300 OFFCURVE",
"104 -225 CURVE SMOOTH",
"104 -149 OFFCURVE",
"66 -109 OFFCURVE",
"-2 -109 CURVE SMOOTH",
"-66 -109 OFFCURVE",
"-103 -149 OFFCURVE",
"-103 -225 CURVE SMOOTH",
"-103 -308 OFFCURVE",
"-61 -340 OFFCURVE",
"-2 -340 CURVE SMOOTH"
);
}
);
width = 708;
}
);
note = g112;
},
{
glyphname = uni074D;
lastChange = "2016-11-30 01:19:36 +0000";
layers = (
{
layerId = "E7EC2184-43D4-43F6-AF81-545272527AF8";
paths = (
{
closed = 1;
nodes = (
"620 -740 LINE",
"800 -491 OFFCURVE",
"1018 40 OFFCURVE",
"1054 503 CURVE",
"913 503 LINE",
"886 192 OFFCURVE",
"776 -204 OFFCURVE",
"584 -552 CURVE",
"456 -225 OFFCURVE",
"360 120 OFFCURVE",
"287 503 CURVE",
"140 503 LINE",
"189 148 OFFCURVE",
"366 -448 OFFCURVE",
"499 -740 CURVE"
);
}
);
width = 1194;
}
);
note = uni074D;
unicode = 074D;
},
{
glyphname = g114;
lastChange = "2016-11-30 01:19:36 +0000";
layers = (
{
layerId = "E7EC2184-43D4-43F6-AF81-545272527AF8";
paths = (
{
closed = 1;
nodes = (
"620 -740 LINE",
"748 -563 OFFCURVE",
"902 -217 OFFCURVE",
"977 66 CURVE",
"983 66 LINE",
"1022 23 OFFCURVE",
"1082 0 OFFCURVE",
"1194 0 CURVE",
"1194 155 LINE",
"1149 156 LINE SMOOTH",
"1090 156 OFFCURVE",
"1033 168 OFFCURVE",
"1009 192 CURVE",
"1030 288 OFFCURVE",
"1046 387 OFFCURVE",
"1054 503 CURVE",
"913 503 LINE",
"886 192 OFFCURVE",
"776 -204 OFFCURVE",
"584 -552 CURVE",
"456 -225 OFFCURVE",
"360 120 OFFCURVE",
"287 503 CURVE",
"140 503 LINE",
"189 148 OFFCURVE",
"366 -448 OFFCURVE",
"499 -740 CURVE"
);
}
);
width = 1194;
}
);
note = g114;
},
{
glyphname = uni074E;
lastChange = "2016-11-30 01:19:36 +0000";
layers = (
{
layerId = "E7EC2184-43D4-43F6-AF81-545272527AF8";
paths = (
{
closed = 1;
nodes = (
"1059 0 LINE SMOOTH",
"1424 0 OFFCURVE",
"1575 118 OFFCURVE",
"1575 385 CURVE SMOOTH",
"1575 576 OFFCURVE",
"1507 724 OFFCURVE",
"1370 832 CURVE",
"1370 838 LINE",
"1471 874 OFFCURVE",
"1525 961 OFFCURVE",
"1525 1066 CURVE SMOOTH",
"1525 1177 OFFCURVE",
"1444 1269 OFFCURVE",
"1292 1330 CURVE SMOOTH",
"1148 1388 LINE",
"1087 1256 LINE",
"1231 1197 LINE SMOOTH",
"1336 1154 OFFCURVE",
"1371 1102 OFFCURVE",
"1371 1041 CURVE SMOOTH",
"1371 976 OFFCURVE",
"1330 932 OFFCURVE",
"1254 921 CURVE",
"1173 964 OFFCURVE",
"1070 995 OFFCURVE",
"937 995 CURVE",
"910 852 LINE",
"967 847 LINE SMOOTH",
"1227 822 OFFCURVE",
"1428 650 OFFCURVE",
"1428 399 CURVE SMOOTH",
"1428 336 OFFCURVE",
"1416 288 OFFCURVE",
"1391 253 CURVE SMOOTH",
"1341 184 OFFCURVE",
"1272 155 OFFCURVE",
"1071 155 CURVE SMOOTH",
"616 155 LINE SMOOTH",
"388 155 OFFCURVE",
"260 267 OFFCURVE",
"257 451 CURVE",
"124 443 LINE",
"123 440 OFFCURVE",
"122 436 OFFCURVE",
"122 431 CURVE",
"121 415 LINE",
"120 410 OFFCURVE",
"120 403 OFFCURVE",
"120 395 CURVE SMOOTH",
"120 146 OFFCURVE",
"308 0 OFFCURVE",
"608 0 CURVE SMOOTH"
);
}
);
width = 1715;
}
);
note = uni074E;
unicode = 074E;
},
{
glyphname = g116;
lastChange = "2016-11-30 01:19:36 +0000";
layers = (
{
layerId = "E7EC2184-43D4-43F6-AF81-545272527AF8";
paths = (
{
closed = 1;
nodes = (
"1743 0 LINE",
"1743 155 LINE",
"1567 155 LINE SMOOTH",
"1550 155 OFFCURVE",
"1532 154 OFFCURVE",
"1513 153 CURVE",
"1513 159 LINE",
"1552 215 OFFCURVE",
"1575 288 OFFCURVE",
"1575 385 CURVE SMOOTH",
"1575 576 OFFCURVE",
"1507 724 OFFCURVE",
"1370 832 CURVE",
"1370 838 LINE",
"1471 874 OFFCURVE",
"1525 961 OFFCURVE",
"1525 1066 CURVE SMOOTH",
"1525 1177 OFFCURVE",
"1444 1269 OFFCURVE",
"1292 1330 CURVE SMOOTH",
"1148 1388 LINE",
"1087 1256 LINE",
"1231 1197 LINE SMOOTH",
"1336 1154 OFFCURVE",
"1371 1102 OFFCURVE",
"1371 1041 CURVE SMOOTH",
"1371 976 OFFCURVE",
"1330 932 OFFCURVE",
"1254 921 CURVE",
"1173 964 OFFCURVE",
"1070 995 OFFCURVE",
"937 995 CURVE",
"910 852 LINE",
"967 847 LINE SMOOTH",
"1227 822 OFFCURVE",
"1428 650 OFFCURVE",
"1428 399 CURVE SMOOTH",
"1428 336 OFFCURVE",
"1416 288 OFFCURVE",
"1391 253 CURVE SMOOTH",
"1341 184 OFFCURVE",
"1272 155 OFFCURVE",
"1071 155 CURVE SMOOTH",
"616 155 LINE SMOOTH",
"388 155 OFFCURVE",
"260 267 OFFCURVE",
"257 451 CURVE",
"124 443 LINE",
"123 440 OFFCURVE",
"122 436 OFFCURVE",
"122 431 CURVE",
"121 415 LINE",
"120 410 OFFCURVE",
"120 403 OFFCURVE",
"120 395 CURVE SMOOTH",
"120 146 OFFCURVE",
"308 0 OFFCURVE",
"608 0 CURVE SMOOTH"
);
}
);
width = 1743;
}
);
note = g116;
},
{
glyphname = g117;
lastChange = "2016-11-30 01:19:36 +0000";
layers = (
{
layerId = "E7EC2184-43D4-43F6-AF81-545272527AF8";
paths = (
{
closed = 1;
nodes = (
"1242 0 LINE",
"1242 155 LINE",
"1066 155 LINE SMOOTH",
"1049 155 OFFCURVE",
"1031 154 OFFCURVE",
"1012 153 CURVE",
"1012 159 LINE",
"1051 215 OFFCURVE",
"1074 288 OFFCURVE",
"1074 385 CURVE SMOOTH",
"1074 576 OFFCURVE",
"1006 724 OFFCURVE",
"869 832 CURVE",
"869 838 LINE",
"970 874 OFFCURVE",
"1024 961 OFFCURVE",
"1024 1066 CURVE SMOOTH",
"1024 1177 OFFCURVE",
"943 1269 OFFCURVE",
"791 1330 CURVE SMOOTH",
"647 1388 LINE",
"586 1256 LINE",
"730 1197 LINE SMOOTH",
"835 1154 OFFCURVE",
"870 1102 OFFCURVE",
"870 1041 CURVE SMOOTH",
"870 976 OFFCURVE",
"829 932 OFFCURVE",
"753 921 CURVE",
"672 964 OFFCURVE",
"569 995 OFFCURVE",
"436 995 CURVE",
"409 852 LINE",
"466 847 LINE SMOOTH",
"726 822 OFFCURVE",
"927 650 OFFCURVE",
"927 399 CURVE SMOOTH",
"927 336 OFFCURVE",
"915 288 OFFCURVE",
"890 253 CURVE SMOOTH",
"840 184 OFFCURVE",
"771 155 OFFCURVE",
"570 155 CURVE SMOOTH",
"0 155 LINE SMOOTH",
"-44 155 OFFCURVE",
"-80 125 OFFCURVE",
"-80 77 CURVE SMOOTH",
"-80 29 OFFCURVE",
"-44 0 OFFCURVE",
"0 0 CURVE SMOOTH"
);
}
);
width = 1242;
}
);
note = g117;
},
{
glyphname = g118;
lastChange = "2016-11-30 01:19:36 +0000";
layers = (
{
layerId = "E7EC2184-43D4-43F6-AF81-545272527AF8";
paths = (
{
closed = 1;
nodes = (
"558 0 LINE SMOOTH",
"923 0 OFFCURVE",
"1074 118 OFFCURVE",
"1074 385 CURVE SMOOTH",
"1074 576 OFFCURVE",
"1006 724 OFFCURVE",
"869 832 CURVE",
"869 838 LINE",
"970 874 OFFCURVE",
"1024 961 OFFCURVE",
"1024 1066 CURVE SMOOTH",
"1024 1177 OFFCURVE",
"943 1269 OFFCURVE",
"791 1330 CURVE SMOOTH",
"647 1388 LINE",
"586 1256 LINE",
"730 1197 LINE SMOOTH",
"835 1154 OFFCURVE",
"870 1102 OFFCURVE",
"870 1041 CURVE SMOOTH",
"870 976 OFFCURVE",
"829 932 OFFCURVE",
"753 921 CURVE",
"672 964 OFFCURVE",
"569 995 OFFCURVE",
"436 995 CURVE",
"409 852 LINE",
"466 847 LINE SMOOTH",
"726 822 OFFCURVE",
"927 650 OFFCURVE",
"927 399 CURVE SMOOTH",
"927 336 OFFCURVE",
"915 288 OFFCURVE",
"890 253 CURVE SMOOTH",
"840 184 OFFCURVE",
"771 155 OFFCURVE",
"570 155 CURVE SMOOTH",
"0 155 LINE SMOOTH",
"-44 155 OFFCURVE",
"-80 125 OFFCURVE",
"-80 77 CURVE SMOOTH",
"-80 29 OFFCURVE",
"-44 0 OFFCURVE",
"0 0 CURVE SMOOTH"
);
}
);
width = 1214;
}
);
note = g118;
},
{
glyphname = uni074F;
lastChange = "2016-11-30 01:19:36 +0000";
layers = (
{
layerId = "E7EC2184-43D4-43F6-AF81-545272527AF8";
paths = (
{
closed = 1;
nodes = (
"1325 81 LINE",
"1074 468 LINE",
"1078 473 LINE",
"1183 478 OFFCURVE",
"1262 555 OFFCURVE",
"1262 670 CURVE SMOOTH",
"1262 786 OFFCURVE",
"1183 863 OFFCURVE",
"1064 863 CURVE SMOOTH",
"987 863 OFFCURVE",
"927 829 OFFCURVE",
"894 761 CURVE",
"887 761 LINE",
"718 1025 LINE",
"587 939 LINE",
"1057 204 LINE",
"1049 187 OFFCURVE",
"1032 175 OFFCURVE",
"1005 167 CURVE SMOOTH",
"978 159 OFFCURVE",
"941 155 OFFCURVE",
"893 155 CURVE SMOOTH",
"595 155 LINE SMOOTH",
"339 155 OFFCURVE",
"260 205 OFFCURVE",
"257 372 CURVE",
"124 364 LINE",
"123 361 OFFCURVE",
"122 357 OFFCURVE",
"122 352 CURVE",
"121 336 LINE",
"120 331 OFFCURVE",
"120 324 OFFCURVE",
"120 316 CURVE SMOOTH",
"120 88 OFFCURVE",
"252 0 OFFCURVE",
"587 0 CURVE SMOOTH",
"871 0 LINE SMOOTH",
"1024 0 OFFCURVE",
"1098 28 OFFCURVE",
"1133 77 CURVE",
"1139 77 LINE",
"1192 -6 LINE"
);
},
{
closed = 1;
nodes = (
"1008 562 OFFCURVE",
"965 600 OFFCURVE",
"965 667 CURVE SMOOTH",
"965 734 OFFCURVE",
"1004 772 OFFCURVE",
"1064 772 CURVE SMOOTH",
"1121 772 OFFCURVE",
"1164 734 OFFCURVE",
"1164 667 CURVE SMOOTH",
"1164 600 OFFCURVE",
"1123 562 OFFCURVE",
"1064 562 CURVE SMOOTH"
);
}
);
width = 1425;
}
);
note = uni074F;
unicode = 074F;
},
{
glyphname = g120;
lastChange = "2016-11-30 01:19:36 +0000";
layers = (
{
layerId = "E7EC2184-43D4-43F6-AF81-545272527AF8";
paths = (
{
closed = 1;
nodes = (
"871 0 LINE SMOOTH",
"1024 0 OFFCURVE",
"1107 26 OFFCURVE",
"1143 89 CURVE",
"1196 32 OFFCURVE",
"1261 0 OFFCURVE",
"1349 0 CURVE",
"1349 155 LINE",
"1300 155 OFFCURVE",
"1257 184 OFFCURVE",
"1214 252 CURVE SMOOTH",
"1074 468 LINE",
"1078 473 LINE",
"1183 478 OFFCURVE",
"1262 555 OFFCURVE",
"1262 670 CURVE SMOOTH",
"1262 786 OFFCURVE",
"1183 863 OFFCURVE",
"1064 863 CURVE SMOOTH",
"987 863 OFFCURVE",
"927 829 OFFCURVE",
"894 761 CURVE",
"887 761 LINE",
"718 1025 LINE",
"587 939 LINE",
"1057 205 LINE",
"1049 188 OFFCURVE",
"1032 176 OFFCURVE",
"1006 168 CURVE SMOOTH",
"979 159 OFFCURVE",
"942 155 OFFCURVE",
"893 155 CURVE SMOOTH",
"595 155 LINE SMOOTH",
"339 155 OFFCURVE",
"260 205 OFFCURVE",
"257 372 CURVE",
"124 364 LINE",
"123 361 OFFCURVE",
"122 357 OFFCURVE",
"122 352 CURVE",
"121 336 LINE",
"120 331 OFFCURVE",
"120 324 OFFCURVE",
"120 316 CURVE SMOOTH",
"120 88 OFFCURVE",
"252 0 OFFCURVE",
"587 0 CURVE SMOOTH"
);
},
{
closed = 1;
nodes = (
"1008 562 OFFCURVE",
"965 600 OFFCURVE",
"965 667 CURVE SMOOTH",
"965 734 OFFCURVE",
"1004 772 OFFCURVE",
"1064 772 CURVE SMOOTH",
"1121 772 OFFCURVE",
"1164 734 OFFCURVE",
"1164 667 CURVE SMOOTH",
"1164 600 OFFCURVE",
"1123 562 OFFCURVE",
"1064 562 CURVE SMOOTH"
);
}
);
width = 1349;
}
);
note = g120;
},
{
glyphname = g121;
lastChange = "2016-11-30 01:19:36 +0000";
layers = (
{
layerId = "E7EC2184-43D4-43F6-AF81-545272527AF8";
paths = (
{
closed = 1;
nodes = (
"439 0 LINE SMOOTH",
"592 0 OFFCURVE",
"675 26 OFFCURVE",
"711 89 CURVE",
"764 32 OFFCURVE",
"829 0 OFFCURVE",
"917 0 CURVE",
"917 155 LINE",
"868 155 OFFCURVE",
"825 184 OFFCURVE",
"782 252 CURVE SMOOTH",
"642 468 LINE",
"646 473 LINE",
"751 478 OFFCURVE",
"830 555 OFFCURVE",
"830 670 CURVE SMOOTH",
"830 786 OFFCURVE",
"751 863 OFFCURVE",
"632 863 CURVE SMOOTH",
"555 863 OFFCURVE",
"495 829 OFFCURVE",
"462 761 CURVE",
"455 761 LINE",
"286 1025 LINE",
"155 939 LINE",
"625 205 LINE",
"617 188 OFFCURVE",
"600 176 OFFCURVE",
"574 168 CURVE SMOOTH",
"547 159 OFFCURVE",
"510 155 OFFCURVE",
"461 155 CURVE SMOOTH",
"0 155 LINE SMOOTH",
"-44 155 OFFCURVE",
"-80 125 OFFCURVE",
"-80 77 CURVE SMOOTH",
"-80 29 OFFCURVE",
"-44 0 OFFCURVE",
"0 0 CURVE SMOOTH"
);
},
{
closed = 1;
nodes = (
"576 562 OFFCURVE",
"533 600 OFFCURVE",
"533 667 CURVE SMOOTH",
"533 734 OFFCURVE",
"572 772 OFFCURVE",
"632 772 CURVE SMOOTH",
"689 772 OFFCURVE",
"732 734 OFFCURVE",
"732 667 CURVE SMOOTH",
"732 600 OFFCURVE",
"691 562 OFFCURVE",
"632 562 CURVE SMOOTH"
);
}
);
width = 917;
}
);
note = g121;
},
{
glyphname = g122;
lastChange = "2016-11-30 01:19:36 +0000";
layers = (
{
layerId = "E7EC2184-43D4-43F6-AF81-545272527AF8";
paths = (
{
closed = 1;
nodes = (
"893 81 LINE",
"642 468 LINE",
"646 473 LINE",
"751 478 OFFCURVE",
"830 555 OFFCURVE",
"830 670 CURVE SMOOTH",
"830 786 OFFCURVE",
"751 863 OFFCURVE",
"632 863 CURVE SMOOTH",
"555 863 OFFCURVE",
"495 829 OFFCURVE",
"462 761 CURVE",
"455 761 LINE",
"286 1025 LINE",
"155 939 LINE",
"625 204 LINE",
"617 187 OFFCURVE",
"600 175 OFFCURVE",
"573 167 CURVE SMOOTH",
"546 159 OFFCURVE",
"509 155 OFFCURVE",
"461 155 CURVE SMOOTH",
"0 155 LINE SMOOTH",
"-44 155 OFFCURVE",
"-80 125 OFFCURVE",
"-80 77 CURVE SMOOTH",
"-80 29 OFFCURVE",
"-44 0 OFFCURVE",
"0 0 CURVE SMOOTH",
"439 0 LINE SMOOTH",
"592 0 OFFCURVE",
"666 28 OFFCURVE",
"701 77 CURVE",
"707 77 LINE",
"760 -6 LINE"
);
},
{
closed = 1;
nodes = (
"576 562 OFFCURVE",
"533 600 OFFCURVE",
"533 667 CURVE SMOOTH",
"533 734 OFFCURVE",
"572 772 OFFCURVE",
"632 772 CURVE SMOOTH",
"689 772 OFFCURVE",
"732 734 OFFCURVE",
"732 667 CURVE SMOOTH",
"732 600 OFFCURVE",
"691 562 OFFCURVE",
"632 562 CURVE SMOOTH"
);
}
);
width = 993;
}
);
note = g122;
},
{
glyphname = afii57409;
lastChange = "2016-11-30 01:19:36 +0000";
layers = (
{
layerId = "E7EC2184-43D4-43F6-AF81-545272527AF8";
paths = (
{
closed = 1;
nodes = (
"802 15 LINE",
"802 155 LINE",
"594 155 LINE SMOOTH",
"527 155 OFFCURVE",
"476 164 OFFCURVE",
"439 183 CURVE SMOOTH",
"365 219 OFFCURVE",
"308 303 OFFCURVE",
"308 395 CURVE SMOOTH",
"308 530 OFFCURVE",
"403 614 OFFCURVE",
"550 614 CURVE SMOOTH",
"599 614 OFFCURVE",
"651 606 OFFCURVE",
"707 591 CURVE",
"753 713 LINE",
"681 745 OFFCURVE",
"597 752 OFFCURVE",
"534 752 CURVE SMOOTH",
"326 752 OFFCURVE",
"160 604 OFFCURVE",
"160 392 CURVE SMOOTH",
"160 293 OFFCURVE",
"200 206 OFFCURVE",
"285 150 CURVE",
"285 144 LINE",
"91 144 LINE",
"91 15 LINE"
);
}
);
width = 946;
}
);
note = afii57409;
unicode = 0621;
},
{
glyphname = afii57440;
lastChange = "2016-11-30 01:19:36 +0000";
layers = (
{
layerId = "E7EC2184-43D4-43F6-AF81-545272527AF8";
paths = (
{
closed = 1;
nodes = (
"777 0 LINE",
"777 155 LINE",
"0 155 LINE SMOOTH",
"-44 155 OFFCURVE",
"-80 125 OFFCURVE",
"-80 77 CURVE SMOOTH",
"-80 29 OFFCURVE",
"-44 0 OFFCURVE",
"0 0 CURVE SMOOTH"
);
}
);
width = 777;
}
);
note = afii57440;
unicode = 0640;
},
{
glyphname = uni070A;
lastChange = "2016-11-30 01:19:36 +0000";
layers = (
{
layerId = "E7EC2184-43D4-43F6-AF81-545272527AF8";
paths = (
{
closed = 1;
nodes = (
"941 871 LINE",
"941 996 LINE",
"879 996 LINE SMOOTH",
"819 996 OFFCURVE",
"790 1020 OFFCURVE",
"790 1075 CURVE SMOOTH",
"790 1174 LINE",
"700 1174 LINE",
"700 1075 LINE SMOOTH",
"700 1020 OFFCURVE",
"668 996 OFFCURVE",
"607 996 CURVE SMOOTH",
"579 996 LINE SMOOTH",
"518 996 OFFCURVE",
"486 1020 OFFCURVE",
"486 1075 CURVE SMOOTH",
"486 1174 LINE",
"396 1174 LINE",
"396 1075 LINE SMOOTH",
"396 1020 OFFCURVE",
"367 996 OFFCURVE",
"307 996 CURVE SMOOTH",
"245 996 LINE",
"245 871 LINE"
);
},
{
closed = 1;
nodes = (
"650 -23 OFFCURVE",
"700 14 OFFCURVE",
"700 94 CURVE SMOOTH",
"700 167 OFFCURVE",
"658 210 OFFCURVE",
"594 210 CURVE SMOOTH",
"533 210 OFFCURVE",
"487 175 OFFCURVE",
"487 94 CURVE SMOOTH",
"487 14 OFFCURVE",
"533 -23 OFFCURVE",
"594 -23 CURVE SMOOTH"
);
},
{
closed = 1;
nodes = (
"650 440 OFFCURVE",
"700 477 OFFCURVE",
"700 557 CURVE SMOOTH",
"700 630 OFFCURVE",
"658 673 OFFCURVE",
"594 673 CURVE SMOOTH",
"533 673 OFFCURVE",
"487 638 OFFCURVE",
"487 557 CURVE SMOOTH",
"487 477 OFFCURVE",
"533 440 OFFCURVE",
"594 440 CURVE SMOOTH"
);
}
);
width = 1186;
}
);
note = uni070A;
unicode = 070A;
},
{
glyphname = uni070B;
lastChange = "2016-11-30 01:19:36 +0000";
layers = (
{
layerId = "E7EC2184-43D4-43F6-AF81-545272527AF8";
paths = (
{
closed = 1;
nodes = (
"1646 1200 LINE",
"1646 1325 LINE",
"244 1325 LINE",
"244 1200 LINE"
);
},
{
closed = 1;
nodes = (
"1002 803 OFFCURVE",
"1052 840 OFFCURVE",
"1052 920 CURVE SMOOTH",
"1052 993 OFFCURVE",
"1010 1036 OFFCURVE",
"946 1036 CURVE SMOOTH",
"885 1036 OFFCURVE",
"839 1001 OFFCURVE",
"839 920 CURVE SMOOTH",
"839 840 OFFCURVE",
"885 803 OFFCURVE",
"946 803 CURVE SMOOTH"
);
}
);
width = 1890;
}
);
note = uni070B;
unicode = 070B;
},
{
glyphname = uni070C;
lastChange = "2016-11-30 01:19:36 +0000";
layers = (
{
layerId = "E7EC2184-43D4-43F6-AF81-545272527AF8";
paths = (
{
closed = 1;
nodes = (
"1162 743 OFFCURVE",
"1158 837 OFFCURVE",
"1149 940 CURVE",
"1139 940 LINE",
"1069 808 LINE",
"334 1543 LINE",
"260 1472 LINE",
"995 734 LINE",
"867 663 LINE",
"867 653 LINE",
"968 644 OFFCURVE",
"1061 640 OFFCURVE",
"1162 640 CURVE"
);
}
);
width = 1422;
}
);
note = uni070C;
unicode = 070C;
},
{
glyphname = uni070D;
lastChange = "2016-11-30 01:19:36 +0000";
layers = (
{
layerId = "E7EC2184-43D4-43F6-AF81-545272527AF8";
paths = (
{
closed = 1;
nodes = (
"829 142 LINE",
"829 661 LINE",
"1328 661 LINE",
"1328 766 LINE",
"829 766 LINE",
"829 1285 LINE",
"724 1285 LINE",
"724 766 LINE",
"225 766 LINE",
"225 661 LINE",
"724 661 LINE",
"724 142 LINE"
);
},
{
closed = 1;
nodes = (
"570 364 OFFCURVE",
"610 394 OFFCURVE",
"610 458 CURVE SMOOTH",
"610 523 OFFCURVE",
"570 551 OFFCURVE",
"525 551 CURVE SMOOTH",
"476 551 OFFCURVE",
"439 523 OFFCURVE",
"439 458 CURVE SMOOTH",
"439 394 OFFCURVE",
"476 364 OFFCURVE",
"525 364 CURVE SMOOTH"
);
},
{
closed = 1;
nodes = (
"1074 364 OFFCURVE",
"1114 394 OFFCURVE",
"1114 458 CURVE SMOOTH",
"1114 523 OFFCURVE",
"1074 551 OFFCURVE",
"1029 551 CURVE SMOOTH",
"980 551 OFFCURVE",
"943 523 OFFCURVE",
"943 458 CURVE SMOOTH",
"943 394 OFFCURVE",
"980 364 OFFCURVE",
"1029 364 CURVE SMOOTH"
);
},
{
closed = 1;
nodes = (
"570 876 OFFCURVE",
"610 906 OFFCURVE",
"610 970 CURVE SMOOTH",
"610 1035 OFFCURVE",
"570 1063 OFFCURVE",
"525 1063 CURVE SMOOTH",
"476 1063 OFFCURVE",
"439 1035 OFFCURVE",
"439 970 CURVE SMOOTH",
"439 906 OFFCURVE",
"476 876 OFFCURVE",
"525 876 CURVE SMOOTH"
);
},
{
closed = 1;
nodes = (
"1074 876 OFFCURVE",
"1114 906 OFFCURVE",
"1114 970 CURVE SMOOTH",
"1114 1035 OFFCURVE",
"1074 1063 OFFCURVE",
"1029 1063 CURVE SMOOTH",
"980 1063 OFFCURVE",
"943 1035 OFFCURVE",
"943 970 CURVE SMOOTH",
"943 906 OFFCURVE",
"980 876 OFFCURVE",
"1029 876 CURVE SMOOTH"
);
}
);
width = 1553;
}
);
note = uni070D;
unicode = 070D;
},
{
glyphname = uni070F;
lastChange = "2016-11-30 01:19:36 +0000";
layers = (
{
layerId = "E7EC2184-43D4-43F6-AF81-545272527AF8";
paths = (
{
closed = 1;
nodes = (
"49 -185 LINE",
"49 1595 LINE",
"199 1595 LINE",
"199 1665 LINE",
"-176 1665 LINE",
"-176 1595 LINE",
"-26 1595 LINE",
"-26 -185 LINE"
);
}
);
width = 0;
}
);
note = uni070F;
unicode = 070F;
},
{
glyphname = uni0730;
lastChange = "2016-11-30 01:19:36 +0000";
layers = (
{
layerId = "E7EC2184-43D4-43F6-AF81-545272527AF8";
paths = (
{
closed = 1;
nodes = (
"229 1481 LINE",
"180 1534 LINE",
"124 1483 LINE",
"-179 1507 LINE",
"-183 1198 LINE",
"-243 1144 LINE",
"-194 1091 LINE"
);
},
{
closed = 1;
nodes = (
"-109 1427 LINE",
"53 1417 LINE",
"-115 1263 LINE"
);
}
);
width = 0;
}
);
note = uni0730;
unicode = 0730;
},
{
glyphname = uni0731;
lastChange = "2016-11-30 01:19:36 +0000";
layers = (
{
layerId = "E7EC2184-43D4-43F6-AF81-545272527AF8";
paths = (
{
closed = 1;
nodes = (
"-124 -374 LINE",
"179 -398 LINE",
"183 -89 LINE",
"243 -35 LINE",
"193 18 LINE",
"-230 -372 LINE",
"-180 -425 LINE"
);
},
{
closed = 1;
nodes = (
"-53 -308 LINE",
"115 -153 LINE",
"109 -318 LINE"
);
}
);
width = 0;
}
);
note = uni0731;
unicode = 0731;
},
{
glyphname = uni0733;
lastChange = "2016-11-30 01:19:36 +0000";
layers = (
{
layerId = "E7EC2184-43D4-43F6-AF81-545272527AF8";
paths = (
{
closed = 1;
nodes = (
"-10 1174 OFFCURVE",
"71 1239 OFFCURVE",
"107 1282 CURVE SMOOTH",
"142 1325 OFFCURVE",
"160 1370 OFFCURVE",
"160 1415 CURVE SMOOTH",
"160 1487 OFFCURVE",
"114 1542 OFFCURVE",
"30 1542 CURVE SMOOTH",
"-67 1542 OFFCURVE",
"-123 1464 OFFCURVE",
"-123 1361 CURVE SMOOTH",
"-123 1308 OFFCURVE",
"-110 1263 OFFCURVE",
"-86 1210 CURVE",
"-98 1201 OFFCURVE",
"-112 1191 OFFCURVE",
"-127 1181 CURVE SMOOTH",
"-143 1170 OFFCURVE",
"-160 1158 OFFCURVE",
"-178 1145 CURVE",
"-136 1087 LINE"
);
},
{
closed = 1;
nodes = (
"-38 1286 OFFCURVE",
"-50 1322 OFFCURVE",
"-50 1361 CURVE SMOOTH",
"-50 1421 OFFCURVE",
"-23 1468 OFFCURVE",
"26 1468 CURVE SMOOTH",
"61 1468 OFFCURVE",
"83 1444 OFFCURVE",
"83 1407 CURVE SMOOTH",
"83 1358 OFFCURVE",
"41 1310 OFFCURVE",
"-23 1259 CURVE"
);
}
);
width = 0;
}
);
note = uni0733;
unicode = 0733;
},
{
glyphname = uni0734;
lastChange = "2016-11-30 01:19:36 +0000";
layers = (
{
layerId = "E7EC2184-43D4-43F6-AF81-545272527AF8";
paths = (
{
closed = 1;
nodes = (
"67 -439 OFFCURVE",
"124 -362 OFFCURVE",
"124 -257 CURVE SMOOTH",
"124 -205 OFFCURVE",
"112 -159 OFFCURVE",
"88 -106 CURVE",
"112 -87 OFFCURVE",
"144 -65 OFFCURVE",
"180 -41 CURVE",
"137 18 LINE",
"18 -64 OFFCURVE",
"-61 -127 OFFCURVE",
"-100 -172 CURVE SMOOTH",
"-139 -217 OFFCURVE",
"-159 -264 OFFCURVE",
"-159 -311 CURVE SMOOTH",
"-159 -383 OFFCURVE",
"-112 -439 OFFCURVE",
"-29 -439 CURVE SMOOTH"
);
},
{
closed = 1;
nodes = (
"-60 -363 OFFCURVE",
"-81 -340 OFFCURVE",
"-81 -303 CURVE SMOOTH",
"-81 -276 OFFCURVE",
"-70 -244 OFFCURVE",
"-35 -209 CURVE SMOOTH",
"-7 -181 LINE SMOOTH",
"2 -172 OFFCURVE",
"13 -163 OFFCURVE",
"25 -154 CURVE",
"40 -182 OFFCURVE",
"52 -218 OFFCURVE",
"52 -257 CURVE SMOOTH",
"52 -317 OFFCURVE",
"26 -363 OFFCURVE",
"-25 -363 CURVE SMOOTH"
);
}
);
width = 0;
}
);
note = uni0734;
unicode = 0734;
},
{
glyphname = uni0735;
lastChange = "2016-11-30 01:19:36 +0000";
layers = (
{
layerId = "E7EC2184-43D4-43F6-AF81-545272527AF8";
paths = (
{
closed = 1;
nodes = (
"-21 1363 OFFCURVE",
"65 1479 OFFCURVE",
"65 1530 CURVE SMOOTH",
"65 1555 OFFCURVE",
"47 1577 OFFCURVE",
"18 1577 CURVE SMOOTH",
"-35 1577 OFFCURVE",
"-120 1461 OFFCURVE",
"-120 1410 CURVE SMOOTH",
"-120 1383 OFFCURVE",
"-104 1363 OFFCURVE",
"-73 1363 CURVE SMOOTH"
);
},
{
closed = 1;
nodes = (
"39 1117 OFFCURVE",
"125 1233 OFFCURVE",
"125 1284 CURVE SMOOTH",
"125 1309 OFFCURVE",
"107 1331 OFFCURVE",
"78 1331 CURVE SMOOTH",
"25 1331 OFFCURVE",
"-60 1216 OFFCURVE",
"-60 1164 CURVE SMOOTH",
"-60 1137 OFFCURVE",
"-44 1117 OFFCURVE",
"-13 1117 CURVE SMOOTH"
);
}
);
width = 0;
}
);
note = uni0735;
unicode = 0735;
},
{
glyphname = uni0736;
lastChange = "2016-11-30 01:19:36 +0000";
layers = (
{
layerId = "E7EC2184-43D4-43F6-AF81-545272527AF8";
paths = (
{
closed = 1;
nodes = (
"223 1134 OFFCURVE",
"229 1171 OFFCURVE",
"229 1206 CURVE SMOOTH",
"229 1381 OFFCURVE",
"135 1448 OFFCURVE",
"8 1448 CURVE SMOOTH",
"-103 1448 OFFCURVE",
"-181 1391 OFFCURVE",
"-246 1244 CURVE",
"-176 1218 LINE",
"-124 1333 OFFCURVE",
"-71 1379 OFFCURVE",
"4 1379 CURVE",
"19 1378 LINE",
"-58 1175 LINE",
"13 1152 LINE",
"90 1356 LINE",
"131 1332 OFFCURVE",
"152 1286 OFFCURVE",
"152 1199 CURVE SMOOTH",
"152 1180 OFFCURVE",
"147 1144 OFFCURVE",
"143 1123 CURVE",
"216 1106 LINE"
);
}
);
width = 0;
}
);
note = uni0736;
unicode = 0736;
},
{
glyphname = uni0737;
lastChange = "2016-11-30 01:19:36 +0000";
layers = (
{
layerId = "E7EC2184-43D4-43F6-AF81-545272527AF8";
paths = (
{
closed = 1;
nodes = (
"104 -339 OFFCURVE",
"182 -282 OFFCURVE",
"247 -135 CURVE",
"177 -109 LINE",
"128 -216 OFFCURVE",
"80 -270 OFFCURVE",
"-3 -270 CURVE",
"-18 -269 LINE",
"59 -66 LINE",
"-12 -43 LINE",
"-89 -247 LINE",
"-130 -223 OFFCURVE",
"-151 -177 OFFCURVE",
"-151 -90 CURVE SMOOTH",
"-151 -71 OFFCURVE",
"-146 -35 OFFCURVE",
"-142 -14 CURVE",
"-215 3 LINE",
"-222 -25 OFFCURVE",
"-228 -62 OFFCURVE",
"-228 -97 CURVE SMOOTH",
"-228 -272 OFFCURVE",
"-134 -339 OFFCURVE",
"-7 -339 CURVE SMOOTH"
);
}
);
width = 0;
}
);
note = uni0737;
unicode = 0737;
},
{
glyphname = uni073A;
lastChange = "2016-11-30 01:19:36 +0000";
layers = (
{
layerId = "E7EC2184-43D4-43F6-AF81-545272527AF8";
paths = (
{
closed = 1;
nodes = (
"226 1358 LINE",
"178 1408 LINE",
"54 1300 LINE",
"-10 1373 LINE",
"116 1483 LINE",
"67 1533 LINE",
"-240 1268 LINE",
"-191 1216 LINE",
"-65 1325 LINE",
"-1 1253 LINE",
"-128 1142 LINE",
"-81 1091 LINE"
);
}
);
width = 0;
}
);
note = uni073A;
unicode = 073A;
},
{
glyphname = uni073B;
lastChange = "2016-11-30 01:19:36 +0000";
layers = (
{
layerId = "E7EC2184-43D4-43F6-AF81-545272527AF8";
paths = (
{
closed = 1;
nodes = (
"240 -159 LINE",
"191 -107 LINE",
"65 -216 LINE",
"1 -144 LINE",
"128 -34 LINE",
"81 18 LINE",
"-226 -249 LINE",
"-178 -299 LINE",
"-54 -191 LINE",
"10 -264 LINE",
"-116 -374 LINE",
"-68 -425 LINE"
);
}
);
width = 0;
}
);
note = uni073B;
unicode = 073B;
},
{
glyphname = uni073D;
lastChange = "2016-11-30 01:19:36 +0000";
layers = (
{
layerId = "E7EC2184-43D4-43F6-AF81-545272527AF8";
paths = (
{
closed = 1;
nodes = (
"213 1226 LINE",
"46 1407 LINE",
"143 1517 LINE",
"86 1561 LINE",
"-214 1225 LINE",
"-158 1180 LINE",
"-4 1351 LINE",
"158 1174 LINE"
);
},
{
closed = 1;
nodes = (
"31 1109 OFFCURVE",
"59 1131 OFFCURVE",
"59 1179 CURVE SMOOTH",
"59 1226 OFFCURVE",
"31 1246 OFFCURVE",
"-2 1246 CURVE SMOOTH",
"-38 1246 OFFCURVE",
"-64 1226 OFFCURVE",
"-64 1179 CURVE SMOOTH",
"-64 1131 OFFCURVE",
"-38 1109 OFFCURVE",
"-2 1109 CURVE SMOOTH"
);
}
);
width = 0;
}
);
note = uni073D;
unicode = 073D;
},
{
glyphname = uni073E;
lastChange = "2016-11-30 01:19:36 +0000";
layers = (
{
layerId = "E7EC2184-43D4-43F6-AF81-545272527AF8";
paths = (
{
closed = 1;
nodes = (
"214 -116 LINE",
"159 -71 LINE",
"4 -242 LINE",
"-158 -65 LINE",
"-214 -117 LINE",
"-47 -298 LINE",
"-143 -408 LINE",
"-87 -452 LINE"
);
},
{
closed = 1;
nodes = (
"38 -137 OFFCURVE",
"64 -117 OFFCURVE",
"64 -70 CURVE SMOOTH",
"64 -23 OFFCURVE",
"38 0 OFFCURVE",
"2 0 CURVE SMOOTH",
"-30 0 OFFCURVE",
"-60 -23 OFFCURVE",
"-60 -70 CURVE SMOOTH",
"-60 -117 OFFCURVE",
"-30 -137 OFFCURVE",
"2 -137 CURVE SMOOTH"
);
}
);
width = 0;
}
);
note = uni073E;
unicode = 073E;
},
{
glyphname = uni0747;
lastChange = "2016-11-30 01:19:36 +0000";
layers = (
{
layerId = "E7EC2184-43D4-43F6-AF81-545272527AF8";
paths = (
{
closed = 1;
nodes = (
"208 1391 LINE",
"151 1452 LINE",
"-231 1134 LINE",
"-173 1073 LINE"
);
}
);
width = 0;
}
);
note = uni0747;
unicode = 0747;
},
{
glyphname = uni0748;
lastChange = "2016-11-30 01:15:49 +0000";
layers = (
{
layerId = "E7EC2184-43D4-43F6-AF81-545272527AF8";
paths = (
{
closed = 1;
nodes = (
"208 -282 LINE",
"-173 36 LINE",
"-232 -27 LINE",
"150 -345 LINE"
);
}
);
width = 0;
}
);
note = uni0748;
unicode = 0748;
},
{
glyphname = uni0749;
lastChange = "2016-11-30 01:19:36 +0000";
layers = (
{
layerId = "E7EC2184-43D4-43F6-AF81-545272527AF8";
paths = (
{
closed = 1;
nodes = (
"188 1216 LINE",
"334 1133 LINE",
"361 1176 LINE",
"214 1261 LINE",
"273 1363 LINE",
"232 1387 LINE",
"173 1286 LINE",
"124 1314 LINE",
"183 1414 LINE",
"142 1439 LINE",
"83 1337 LINE",
"34 1365 LINE",
"92 1467 LINE",
"51 1490 LINE",
"-7 1390 LINE",
"-56 1417 LINE",
"2 1517 LINE",
"-41 1543 LINE",
"-98 1442 LINE",
"-146 1470 LINE",
"-89 1570 LINE",
"-132 1594 LINE",
"-189 1494 LINE",
"-326 1574 LINE",
"-353 1530 LINE",
"-214 1449 LINE",
"-277 1343 LINE",
"-235 1319 LINE",
"-173 1426 LINE",
"-124 1397 LINE",
"-187 1291 LINE",
"-145 1268 LINE",
"-83 1372 LINE",
"-34 1345 LINE",
"-95 1238 LINE",
"-53 1215 LINE",
"8 1320 LINE",
"56 1292 LINE",
"-5 1188 LINE",
"37 1163 LINE",
"98 1269 LINE",
"146 1241 LINE",
"85 1135 LINE",
"127 1111 LINE"
);
}
);
width = 0;
}
);
note = uni0749;
unicode = 0749;
},
{
glyphname = uni074A;
lastChange = "2016-11-30 01:19:36 +0000";
layers = (
{
layerId = "E7EC2184-43D4-43F6-AF81-545272527AF8";
paths = (
{
closed = 1;
nodes = (
"24 1109 LINE",
"24 1342 LINE",
"247 1342 LINE",
"247 1390 LINE",
"24 1390 LINE",
"24 1623 LINE",
"-25 1623 LINE",
"-25 1390 LINE",
"-249 1390 LINE",
"-249 1342 LINE",
"-25 1342 LINE",
"-25 1109 LINE"
);
},
{
closed = 1;
nodes = (
"-93 1209 OFFCURVE",
"-75 1223 OFFCURVE",
"-75 1251 CURVE SMOOTH",
"-75 1280 OFFCURVE",
"-93 1292 OFFCURVE",
"-114 1292 CURVE SMOOTH",
"-137 1292 OFFCURVE",
"-152 1280 OFFCURVE",
"-152 1251 CURVE SMOOTH",
"-152 1223 OFFCURVE",
"-137 1209 OFFCURVE",
"-114 1209 CURVE SMOOTH"
);
},
{
closed = 1;
nodes = (
"133 1209 OFFCURVE",
"151 1223 OFFCURVE",
"151 1251 CURVE SMOOTH",
"151 1280 OFFCURVE",
"133 1292 OFFCURVE",
"114 1292 CURVE SMOOTH",
"91 1292 OFFCURVE",
"74 1280 OFFCURVE",
"74 1251 CURVE SMOOTH",
"74 1223 OFFCURVE",
"91 1209 OFFCURVE",
"114 1209 CURVE SMOOTH"
);
},
{
closed = 1;
nodes = (
"-93 1440 OFFCURVE",
"-75 1453 OFFCURVE",
"-75 1481 CURVE SMOOTH",
"-75 1512 OFFCURVE",
"-93 1523 OFFCURVE",
"-114 1523 CURVE SMOOTH",
"-137 1523 OFFCURVE",
"-152 1512 OFFCURVE",
"-152 1481 CURVE SMOOTH",
"-152 1453 OFFCURVE",
"-137 1440 OFFCURVE",
"-114 1440 CURVE SMOOTH"
);
},
{
closed = 1;
nodes = (
"133 1440 OFFCURVE",
"151 1453 OFFCURVE",
"151 1481 CURVE SMOOTH",
"151 1512 OFFCURVE",
"133 1523 OFFCURVE",
"114 1523 CURVE SMOOTH",
"91 1523 OFFCURVE",
"74 1512 OFFCURVE",
"74 1481 CURVE SMOOTH",
"74 1453 OFFCURVE",
"91 1440 OFFCURVE",
"114 1440 CURVE SMOOTH"
);
}
);
width = 0;
}
);
note = uni074A;
unicode = 074A;
},
{
glyphname = tildecomb;
lastChange = "2016-11-30 01:19:36 +0000";
layers = (
{
layerId = "E7EC2184-43D4-43F6-AF81-545272527AF8";
paths = (
{
closed = 1;
nodes = (
"201 1108 OFFCURVE",
"257 1172 OFFCURVE",
"268 1289 CURVE",
"193 1289 LINE",
"182 1229 OFFCURVE",
"163 1205 OFFCURVE",
"116 1205 CURVE SMOOTH",
"94 1205 OFFCURVE",
"60 1219 OFFCURVE",
"14 1248 CURVE SMOOTH",
"-33 1277 OFFCURVE",
"-73 1291 OFFCURVE",
"-108 1291 CURVE SMOOTH",
"-199 1291 OFFCURVE",
"-255 1226 OFFCURVE",
"-267 1109 CURVE",
"-191 1109 LINE",
"-182 1169 OFFCURVE",
"-162 1193 OFFCURVE",
"-115 1193 CURVE SMOOTH",
"-90 1193 OFFCURVE",
"-55 1179 OFFCURVE",
"-8 1151 CURVE SMOOTH",
"39 1122 OFFCURVE",
"78 1108 OFFCURVE",
"110 1108 CURVE SMOOTH"
);
}
);
width = 0;
}
);
note = tildecomb;
unicode = 0303;
},
{
glyphname = uni0304;
lastChange = "2016-11-30 01:15:49 +0000";
layers = (
{
layerId = "E7EC2184-43D4-43F6-AF81-545272527AF8";
paths = (
{
closed = 1;
nodes = (
"261 1127 LINE",
"261 1220 LINE",
"-261 1220 LINE",
"-261 1127 LINE"
);
}
);
width = 0;
}
);
note = uni0304;
unicode = 0304;
},
{
glyphname = uni030A;
lastChange = "2016-11-30 01:15:49 +0000";
layers = (
{
layerId = "E7EC2184-43D4-43F6-AF81-545272527AF8";
paths = (
{
closed = 1;
nodes = (
"73 1121 OFFCURVE",
"132 1175 OFFCURVE",
"132 1255 CURVE SMOOTH",
"132 1338 OFFCURVE",
"76 1383 OFFCURVE",
"0 1383 CURVE SMOOTH",
"-77 1383 OFFCURVE",
"-132 1327 OFFCURVE",
"-132 1250 CURVE SMOOTH",
"-132 1170 OFFCURVE",
"-77 1121 OFFCURVE",
"0 1121 CURVE SMOOTH"
);
},
{
closed = 1;
nodes = (
"-39 1182 OFFCURVE",
"-67 1208 OFFCURVE",
"-67 1252 CURVE SMOOTH",
"-67 1296 OFFCURVE",
"-39 1322 OFFCURVE",
"0 1322 CURVE SMOOTH",
"37 1322 OFFCURVE",
"66 1296 OFFCURVE",
"66 1252 CURVE SMOOTH",
"66 1208 OFFCURVE",
"39 1182 OFFCURVE",
"0 1182 CURVE SMOOTH"
);
}
);
width = 0;
}
);
note = uni030A;
unicode = 030A;
},
{
glyphname = dotbelowcomb;
lastChange = "2016-11-30 01:19:36 +0000";
layers = (
{
layerId = "E7EC2184-43D4-43F6-AF81-545272527AF8";
paths = (
{
closed = 1;
nodes = (
"66 -236 OFFCURVE",
"105 -196 OFFCURVE",
"105 -121 CURVE SMOOTH",
"105 -45 OFFCURVE",
"67 -5 OFFCURVE",
"-1 -5 CURVE SMOOTH",
"-65 -5 OFFCURVE",
"-102 -45 OFFCURVE",
"-102 -121 CURVE SMOOTH",
"-102 -204 OFFCURVE",
"-60 -236 OFFCURVE",
"-1 -236 CURVE SMOOTH"
);
}
);
width = 0;
}
);
note = dotbelowcomb;
unicode = 0323;
},
{
glyphname = uni0325;
lastChange = "2016-11-30 01:19:36 +0000";
layers = (
{
layerId = "E7EC2184-43D4-43F6-AF81-545272527AF8";
paths = (
{
closed = 1;
nodes = (
"77 -274 OFFCURVE",
"132 -218 OFFCURVE",
"132 -141 CURVE SMOOTH",
"132 -61 OFFCURVE",
"77 -12 OFFCURVE",
"0 -12 CURVE SMOOTH",
"-73 -12 OFFCURVE",
"-132 -66 OFFCURVE",
"-132 -146 CURVE SMOOTH",
"-132 -229 OFFCURVE",
"-76 -274 OFFCURVE",
"0 -274 CURVE SMOOTH"
);
},
{
closed = 1;
nodes = (
"-37 -213 OFFCURVE",
"-66 -187 OFFCURVE",
"-66 -143 CURVE SMOOTH",
"-66 -99 OFFCURVE",
"-39 -73 OFFCURVE",
"0 -73 CURVE SMOOTH",
"39 -73 OFFCURVE",
"67 -99 OFFCURVE",
"67 -143 CURVE SMOOTH",
"67 -187 OFFCURVE",
"39 -213 OFFCURVE",
"0 -213 CURVE SMOOTH"
);
}
);
width = 0;
}
);
note = uni0325;
unicode = 0325;
},
{
glyphname = uni032D;
lastChange = "2016-11-30 01:15:49 +0000";
layers = (
{
layerId = "E7EC2184-43D4-43F6-AF81-545272527AF8";
paths = (
{
closed = 1;
nodes = (
"-154 -205 LINE",
"-131 -187 OFFCURVE",
"-106 -167 OFFCURVE",
"-79 -146 CURVE SMOOTH",
"-2 -83 LINE",
"73 -148 LINE SMOOTH",
"98 -170 OFFCURVE",
"121 -189 OFFCURVE",
"142 -205 CURVE",
"245 -205 LINE",
"245 -196 LINE",
"195 -149 LINE SMOOTH",
"142 -98 OFFCURVE",
"85 -43 OFFCURVE",
"46 0 CURVE",
"-43 0 LINE",
"-89 -46 LINE SMOOTH",
"-106 -63 OFFCURVE",
"-123 -81 OFFCURVE",
"-141 -98 CURVE SMOOTH",
"-194 -149 LINE",
"-245 -196 LINE",
"-245 -205 LINE"
);
}
);
width = 0;
}
);
note = uni032D;
unicode = 032D;
},
{
glyphname = uni032E;
lastChange = "2016-11-30 01:19:36 +0000";
layers = (
{
layerId = "E7EC2184-43D4-43F6-AF81-545272527AF8";
paths = (
{
closed = 1;
nodes = (
"144 -124 OFFCURVE",
"251 -34 OFFCURVE",
"262 101 CURVE",
"183 101 LINE",
"168 25 OFFCURVE",
"104 -29 OFFCURVE",
"0 -29 CURVE SMOOTH",
"-101 -29 OFFCURVE",
"-161 16 OFFCURVE",
"-180 101 CURVE",
"-259 101 LINE",
"-252 -43 OFFCURVE",
"-155 -124 OFFCURVE",
"-4 -124 CURVE SMOOTH"
);
}
);
width = 0;
}
);
note = uni032E;
unicode = 032E;
},
{
glyphname = uni0330;
lastChange = "2016-11-30 01:19:36 +0000";
layers = (
{
layerId = "E7EC2184-43D4-43F6-AF81-545272527AF8";
paths = (
{
closed = 1;
nodes = (
"199 -182 OFFCURVE",
"255 -117 OFFCURVE",
"267 0 CURVE",
"191 0 LINE",
"182 -60 OFFCURVE",
"162 -83 OFFCURVE",
"115 -83 CURVE SMOOTH",
"90 -83 OFFCURVE",
"55 -69 OFFCURVE",
"8 -40 CURVE SMOOTH",
"-39 -12 OFFCURVE",
"-78 2 OFFCURVE",
"-110 2 CURVE SMOOTH",
"-201 2 OFFCURVE",
"-257 -63 OFFCURVE",
"-268 -180 CURVE",
"-194 -180 LINE",
"-183 -120 OFFCURVE",
"-163 -97 OFFCURVE",
"-116 -97 CURVE SMOOTH",
"-93 -97 OFFCURVE",
"-59 -111 OFFCURVE",
"-13 -139 CURVE SMOOTH",
"33 -168 OFFCURVE",
"73 -182 OFFCURVE",
"108 -182 CURVE SMOOTH"
);
}
);
width = 0;
}
);
note = uni0330;
unicode = 0330;
},
{
glyphname = uni0320;
lastChange = "2016-11-30 01:19:36 +0000";
layers = (
{
layerId = "E7EC2184-43D4-43F6-AF81-545272527AF8";
paths = (
{
closed = 1;
nodes = (
"261 -106 LINE",
"261 -18 LINE",
"-261 -18 LINE",
"-261 -106 LINE"
);
}
);
width = 0;
}
);
note = uni0320;
unicode = 0320;
},
{
glyphname = afii57451;
lastChange = "2016-11-30 01:19:36 +0000";
layers = (
{
layerId = "E7EC2184-43D4-43F6-AF81-545272527AF8";
paths = (
{
closed = 1;
nodes = (
"180 1398 LINE",
"177 1470 LINE",
"-200 1328 LINE",
"-197 1256 LINE"
);
},
{
closed = 1;
nodes = (
"191 1243 LINE",
"188 1314 LINE",
"-189 1172 LINE",
"-186 1101 LINE"
);
}
);
width = 0;
}
);
note = afii57451;
unicode = 064B;
},
{
glyphname = afii57452;
lastChange = "2016-11-30 01:19:36 +0000";
layers = (
{
layerId = "E7EC2184-43D4-43F6-AF81-545272527AF8";
paths = (
{
closed = 1;
nodes = (
"-82 1142 LINE SMOOTH",
"23 1181 OFFCURVE",
"95 1215 OFFCURVE",
"133 1243 CURVE SMOOTH",
"170 1270 OFFCURVE",
"189 1308 OFFCURVE",
"189 1355 CURVE SMOOTH",
"189 1422 OFFCURVE",
"137 1468 OFFCURVE",
"73 1468 CURVE SMOOTH",
"2 1468 OFFCURVE",
"-55 1412 OFFCURVE",
"-55 1341 CURVE SMOOTH",
"-55 1300 OFFCURVE",
"-37 1264 OFFCURVE",
"-10 1243 CURVE",
"-27 1235 OFFCURVE",
"-47 1227 OFFCURVE",
"-68 1218 CURVE SMOOTH",
"-132 1191 LINE",
"-121 1208 OFFCURVE",
"-120 1228 OFFCURVE",
"-120 1244 CURVE SMOOTH",
"-120 1312 OFFCURVE",
"-170 1349 OFFCURVE",
"-238 1349 CURVE",
"-235 1281 LINE",
"-199 1278 OFFCURVE",
"-183 1252 OFFCURVE",
"-183 1225 CURVE SMOOTH",
"-183 1204 OFFCURVE",
"-188 1186 OFFCURVE",
"-201 1167 CURVE",
"-195 1100 LINE"
);
},
{
closed = 1;
nodes = (
"27 1287 OFFCURVE",
"11 1312 OFFCURVE",
"11 1341 CURVE SMOOTH",
"11 1376 OFFCURVE",
"37 1397 OFFCURVE",
"68 1397 CURVE SMOOTH",
"99 1397 OFFCURVE",
"120 1377 OFFCURVE",
"120 1346 CURVE SMOOTH",
"120 1311 OFFCURVE",
"93 1288 OFFCURVE",
"61 1275 CURVE SMOOTH",
"54 1272 LINE"
);
}
);
width = 0;
}
);
note = afii57452;
unicode = 064C;
},
{
glyphname = afii57453;
lastChange = "2016-11-30 01:19:36 +0000";
layers = (
{
layerId = "E7EC2184-43D4-43F6-AF81-545272527AF8";
paths = (
{
closed = 1;
nodes = (
"180 -61 LINE",
"177 11 LINE",
"-200 -131 LINE",
"-197 -203 LINE"
);
},
{
closed = 1;
nodes = (
"191 -216 LINE",
"188 -145 LINE",
"-189 -287 LINE",
"-186 -358 LINE"
);
}
);
width = 0;
}
);
note = afii57453;
unicode = 064D;
},
{
glyphname = afii57454;
lastChange = "2016-11-30 01:19:36 +0000";
layers = (
{
layerId = "E7EC2184-43D4-43F6-AF81-545272527AF8";
paths = (
{
closed = 1;
nodes = (
"191 1243 LINE",
"188 1314 LINE",
"-189 1172 LINE",
"-186 1101 LINE"
);
}
);
width = 0;
}
);
note = afii57454;
unicode = 064E;
},
{
glyphname = afii57455;
lastChange = "2016-11-30 01:19:36 +0000";
layers = (
{
layerId = "E7EC2184-43D4-43F6-AF81-545272527AF8";
paths = (
{
closed = 1;
nodes = (
"-33 1156 OFFCURVE",
"69 1198 OFFCURVE",
"115 1228 CURVE SMOOTH",
"161 1258 OFFCURVE",
"184 1299 OFFCURVE",
"184 1351 CURVE SMOOTH",
"184 1418 OFFCURVE",
"128 1464 OFFCURVE",
"64 1464 CURVE SMOOTH",
"-8 1464 OFFCURVE",
"-69 1407 OFFCURVE",
"-69 1335 CURVE SMOOTH",
"-69 1290 OFFCURVE",
"-47 1261 OFFCURVE",
"-20 1240 CURVE",
"-34 1234 OFFCURVE",
"-49 1228 OFFCURVE",
"-65 1222 CURVE SMOOTH",
"-158 1187 LINE",
"-173 1182 OFFCURVE",
"-185 1177 OFFCURVE",
"-195 1174 CURVE",
"-192 1101 LINE"
);
},
{
closed = 1;
nodes = (
"18 1282 OFFCURVE",
"0 1306 OFFCURVE",
"0 1335 CURVE SMOOTH",
"0 1370 OFFCURVE",
"27 1391 OFFCURVE",
"59 1391 CURVE SMOOTH",
"98 1391 OFFCURVE",
"116 1369 OFFCURVE",
"116 1342 CURVE SMOOTH",
"116 1311 OFFCURVE",
"95 1289 OFFCURVE",
"52 1269 CURVE",
"45 1267 LINE"
);
}
);
width = 0;
}
);
note = afii57455;
unicode = 064F;
},
{
glyphname = afii57456;
lastChange = "2016-11-30 01:19:36 +0000";
layers = (
{
layerId = "E7EC2184-43D4-43F6-AF81-545272527AF8";
paths = (
{
closed = 1;
nodes = (
"180 -61 LINE",
"177 11 LINE",
"-200 -131 LINE",
"-197 -203 LINE"
);
}
);
width = 0;
}
);
note = afii57456;
unicode = 0650;
},
{
glyphname = afii57457;
lastChange = "2016-11-30 01:19:36 +0000";
layers = (
{
layerId = "E7EC2184-43D4-43F6-AF81-545272527AF8";
paths = (
{
closed = 1;
nodes = (
"-60 1113 OFFCURVE",
"-23 1154 OFFCURVE",
"-15 1222 CURVE",
"2 1194 OFFCURVE",
"33 1180 OFFCURVE",
"66 1180 CURVE SMOOTH",
"129 1180 OFFCURVE",
"175 1227 OFFCURVE",
"175 1304 CURVE SMOOTH",
"175 1347 OFFCURVE",
"159 1383 OFFCURVE",
"132 1410 CURVE",
"72 1387 LINE",
"88 1368 OFFCURVE",
"110 1341 OFFCURVE",
"110 1305 CURVE SMOOTH",
"110 1274 OFFCURVE",
"97 1250 OFFCURVE",
"62 1250 CURVE SMOOTH",
"46 1250 OFFCURVE",
"32 1257 OFFCURVE",
"20 1270 CURVE SMOOTH",
"8 1283 OFFCURVE",
"-3 1308 OFFCURVE",
"-14 1345 CURVE",
"-77 1321 LINE",
"-70 1302 OFFCURVE",
"-65 1277 OFFCURVE",
"-65 1254 CURVE SMOOTH",
"-65 1218 OFFCURVE",
"-79 1183 OFFCURVE",
"-120 1183 CURVE SMOOTH",
"-161 1183 OFFCURVE",
"-182 1225 OFFCURVE",
"-182 1288 CURVE",
"-241 1270 LINE",
"-241 1261 LINE SMOOTH",
"-241 1176 OFFCURVE",
"-196 1113 OFFCURVE",
"-124 1113 CURVE SMOOTH"
);
}
);
width = 0;
}
);
note = afii57457;
unicode = 0651;
},
{
glyphname = afii57458;
lastChange = "2016-11-30 01:19:36 +0000";
layers = (
{
layerId = "E7EC2184-43D4-43F6-AF81-545272527AF8";
paths = (
{
closed = 1;
nodes = (
"68 1109 OFFCURVE",
"128 1167 OFFCURVE",
"128 1238 CURVE SMOOTH",
"128 1321 OFFCURVE",
"67 1381 OFFCURVE",
"-12 1381 CURVE SMOOTH",
"-81 1381 OFFCURVE",
"-146 1317 OFFCURVE",
"-146 1242 CURVE SMOOTH",
"-146 1163 OFFCURVE",
"-89 1109 OFFCURVE",
"-9 1109 CURVE SMOOTH"
);
},
{
closed = 1;
nodes = (
"-54 1174 OFFCURVE",
"-82 1205 OFFCURVE",
"-82 1244 CURVE SMOOTH",
"-82 1283 OFFCURVE",
"-52 1315 OFFCURVE",
"-9 1315 CURVE SMOOTH",
"34 1315 OFFCURVE",
"64 1288 OFFCURVE",
"64 1245 CURVE SMOOTH",
"64 1206 OFFCURVE",
"38 1174 OFFCURVE",
"-11 1174 CURVE SMOOTH"
);
}
);
width = 0;
}
);
note = afii57458;
unicode = 0652;
},
{
glyphname = uni0653;
lastChange = "2016-11-30 01:15:49 +0000";
layers = (
{
layerId = "E7EC2184-43D4-43F6-AF81-545272527AF8";
paths = (
{
closed = 1;
nodes = (
"-170 1133 LINE SMOOTH",
"-159 1146 OFFCURVE",
"-150 1156 OFFCURVE",
"-145 1161 CURVE",
"-96 1138 OFFCURVE",
"-46 1125 OFFCURVE",
"30 1125 CURVE SMOOTH",
"101 1125 OFFCURVE",
"192 1152 OFFCURVE",
"237 1188 CURVE",
"195 1248 LINE",
"154 1223 OFFCURVE",
"98 1206 OFFCURVE",
"41 1206 CURVE SMOOTH",
"-18 1206 OFFCURVE",
"-69 1213 OFFCURVE",
"-160 1246 CURVE",
"-166 1241 OFFCURVE",
"-173 1233 OFFCURVE",
"-181 1224 CURVE SMOOTH",
"-208 1193 LINE SMOOTH",
"-227 1170 OFFCURVE",
"-245 1147 OFFCURVE",
"-260 1127 CURVE",
"-204 1092 LINE"
);
}
);
width = 0;
}
);
note = uni0653;
unicode = 0653;
},
{
glyphname = uni0654;
lastChange = "2016-11-30 01:19:36 +0000";
layers = (
{
layerId = "E7EC2184-43D4-43F6-AF81-545272527AF8";
paths = (
{
closed = 1;
nodes = (
"138 1144 LINE",
"138 1220 LINE",
"46 1210 LINE",
"43 1209 OFFCURVE",
"39 1209 OFFCURVE",
"34 1209 CURVE",
"19 1208 LINE",
"-28 1208 OFFCURVE",
"-56 1244 OFFCURVE",
"-56 1281 CURVE SMOOTH",
"-56 1328 OFFCURVE",
"-23 1355 OFFCURVE",
"28 1355 CURVE SMOOTH",
"49 1355 OFFCURVE",
"72 1353 OFFCURVE",
"97 1344 CURVE",
"120 1410 LINE",
"89 1426 OFFCURVE",
"48 1432 OFFCURVE",
"21 1432 CURVE SMOOTH",
"-64 1432 OFFCURVE",
"-135 1369 OFFCURVE",
"-135 1280 CURVE SMOOTH",
"-135 1253 OFFCURVE",
"-126 1218 OFFCURVE",
"-97 1191 CURVE",
"-159 1184 LINE",
"-159 1109 LINE"
);
}
);
width = 0;
}
);
note = uni0654;
unicode = 0654;
},
{
glyphname = uni0655;
lastChange = "2016-11-30 01:19:36 +0000";
layers = (
{
layerId = "E7EC2184-43D4-43F6-AF81-545272527AF8";
paths = (
{
closed = 1;
nodes = (
"138 -288 LINE",
"138 -212 LINE",
"29 -223 LINE",
"26 -224 OFFCURVE",
"22 -224 OFFCURVE",
"19 -224 CURVE SMOOTH",
"-24 -224 OFFCURVE",
"-56 -192 OFFCURVE",
"-56 -151 CURVE SMOOTH",
"-56 -104 OFFCURVE",
"-23 -75 OFFCURVE",
"28 -75 CURVE SMOOTH",
"50 -75 OFFCURVE",
"73 -79 OFFCURVE",
"97 -88 CURVE",
"120 -20 LINE",
"89 -5 OFFCURVE",
"48 0 OFFCURVE",
"21 0 CURVE SMOOTH",
"-63 0 OFFCURVE",
"-135 -62 OFFCURVE",
"-135 -151 CURVE SMOOTH",
"-135 -178 OFFCURVE",
"-126 -214 OFFCURVE",
"-97 -241 CURVE",
"-159 -248 LINE",
"-159 -322 LINE"
);
}
);
width = 0;
}
);
note = uni0655;
unicode = 0655;
},
{
glyphname = uni0670;
lastChange = "2016-11-30 01:19:36 +0000";
layers = (
{
layerId = "E7EC2184-43D4-43F6-AF81-545272527AF8";
paths = (
{
closed = 1;
nodes = (
"47 1109 LINE",
"47 1478 LINE",
"-47 1478 LINE",
"-47 1109 LINE"
);
}
);
width = 0;
}
);
note = uni0670;
unicode = 0670;
},
{
glyphname = g191;
lastChange = "2016-11-30 01:19:36 +0000";
layers = (
{
layerId = "E7EC2184-43D4-43F6-AF81-545272527AF8";
paths = (
{
closed = 1;
nodes = (
"-129 1432 LINE SMOOTH",
"-24 1471 OFFCURVE",
"48 1505 OFFCURVE",
"86 1533 CURVE SMOOTH",
"123 1560 OFFCURVE",
"142 1598 OFFCURVE",
"142 1645 CURVE SMOOTH",
"142 1712 OFFCURVE",
"90 1758 OFFCURVE",
"26 1758 CURVE SMOOTH",
"-45 1758 OFFCURVE",
"-102 1702 OFFCURVE",
"-102 1631 CURVE SMOOTH",
"-102 1590 OFFCURVE",
"-84 1554 OFFCURVE",
"-57 1533 CURVE",
"-74 1525 OFFCURVE",
"-94 1517 OFFCURVE",
"-115 1508 CURVE SMOOTH",
"-179 1481 LINE",
"-168 1498 OFFCURVE",
"-167 1518 OFFCURVE",
"-167 1534 CURVE SMOOTH",
"-167 1602 OFFCURVE",
"-217 1639 OFFCURVE",
"-285 1639 CURVE",
"-282 1571 LINE",
"-246 1568 OFFCURVE",
"-230 1542 OFFCURVE",
"-230 1515 CURVE SMOOTH",
"-230 1494 OFFCURVE",
"-235 1476 OFFCURVE",
"-248 1457 CURVE",
"-242 1390 LINE"
);
},
{
closed = 1;
nodes = (
"-60 1113 OFFCURVE",
"-23 1154 OFFCURVE",
"-15 1222 CURVE",
"2 1194 OFFCURVE",
"33 1180 OFFCURVE",
"66 1180 CURVE SMOOTH",
"129 1180 OFFCURVE",
"175 1227 OFFCURVE",
"175 1304 CURVE SMOOTH",
"175 1347 OFFCURVE",
"159 1383 OFFCURVE",
"132 1410 CURVE",
"72 1387 LINE",
"88 1368 OFFCURVE",
"110 1341 OFFCURVE",
"110 1305 CURVE SMOOTH",
"110 1274 OFFCURVE",
"97 1250 OFFCURVE",
"62 1250 CURVE SMOOTH",
"46 1250 OFFCURVE",
"32 1257 OFFCURVE",
"20 1270 CURVE SMOOTH",
"8 1283 OFFCURVE",
"-3 1308 OFFCURVE",
"-14 1345 CURVE",
"-77 1321 LINE",
"-70 1302 OFFCURVE",
"-65 1277 OFFCURVE",
"-65 1254 CURVE SMOOTH",
"-65 1218 OFFCURVE",
"-79 1183 OFFCURVE",
"-120 1183 CURVE SMOOTH",
"-161 1183 OFFCURVE",
"-182 1225 OFFCURVE",
"-182 1288 CURVE",
"-241 1270 LINE",
"-241 1261 LINE SMOOTH",
"-241 1176 OFFCURVE",
"-196 1113 OFFCURVE",
"-124 1113 CURVE SMOOTH"
);
},
{
closed = 1;
nodes = (
"-20 1577 OFFCURVE",
"-36 1602 OFFCURVE",
"-36 1631 CURVE SMOOTH",
"-36 1666 OFFCURVE",
"-10 1687 OFFCURVE",
"21 1687 CURVE SMOOTH",
"52 1687 OFFCURVE",
"73 1667 OFFCURVE",
"73 1636 CURVE SMOOTH",
"73 1601 OFFCURVE",
"46 1578 OFFCURVE",
"14 1565 CURVE SMOOTH",
"7 1562 LINE"
);
}
);
width = 0;
}
);
note = g191;
},
{
glyphname = g192;
lastChange = "2016-11-30 01:19:36 +0000";
layers = (
{
layerId = "E7EC2184-43D4-43F6-AF81-545272527AF8";
paths = (
{
closed = 1;
nodes = (
"-62 1476 OFFCURVE",
"-25 1517 OFFCURVE",
"-17 1585 CURVE",
"0 1557 OFFCURVE",
"31 1543 OFFCURVE",
"64 1543 CURVE SMOOTH",
"127 1543 OFFCURVE",
"173 1590 OFFCURVE",
"173 1667 CURVE SMOOTH",
"173 1710 OFFCURVE",
"157 1746 OFFCURVE",
"130 1773 CURVE",
"70 1750 LINE",
"86 1731 OFFCURVE",
"108 1704 OFFCURVE",
"108 1668 CURVE SMOOTH",
"108 1637 OFFCURVE",
"95 1613 OFFCURVE",
"60 1613 CURVE SMOOTH",
"44 1613 OFFCURVE",
"30 1620 OFFCURVE",
"18 1633 CURVE SMOOTH",
"6 1646 OFFCURVE",
"-5 1671 OFFCURVE",
"-16 1708 CURVE",
"-79 1684 LINE",
"-72 1665 OFFCURVE",
"-67 1640 OFFCURVE",
"-67 1617 CURVE SMOOTH",
"-67 1581 OFFCURVE",
"-81 1546 OFFCURVE",
"-122 1546 CURVE SMOOTH",
"-163 1546 OFFCURVE",
"-184 1588 OFFCURVE",
"-184 1651 CURVE",
"-243 1633 LINE",
"-243 1624 LINE SMOOTH",
"-243 1539 OFFCURVE",
"-198 1476 OFFCURVE",
"-126 1476 CURVE SMOOTH"
);
},
{
closed = 1;
nodes = (
"191 1243 LINE",
"188 1314 LINE",
"-189 1172 LINE",
"-186 1101 LINE"
);
},
{
closed = 1;
nodes = (
"180 1398 LINE",
"177 1470 LINE",
"-200 1328 LINE",
"-197 1256 LINE"
);
}
);
width = 0;
}
);
note = g192;
},
{
glyphname = g193;
lastChange = "2016-11-30 01:19:36 +0000";
layers = (
{
layerId = "E7EC2184-43D4-43F6-AF81-545272527AF8";
paths = (
{
closed = 1;
nodes = (
"-60 1113 OFFCURVE",
"-23 1154 OFFCURVE",
"-15 1222 CURVE",
"2 1194 OFFCURVE",
"33 1180 OFFCURVE",
"66 1180 CURVE SMOOTH",
"129 1180 OFFCURVE",
"175 1227 OFFCURVE",
"175 1304 CURVE SMOOTH",
"175 1347 OFFCURVE",
"159 1383 OFFCURVE",
"132 1410 CURVE",
"72 1387 LINE",
"88 1368 OFFCURVE",
"110 1341 OFFCURVE",
"110 1305 CURVE SMOOTH",
"110 1274 OFFCURVE",
"97 1250 OFFCURVE",
"62 1250 CURVE SMOOTH",
"46 1250 OFFCURVE",
"32 1257 OFFCURVE",
"20 1270 CURVE SMOOTH",
"8 1283 OFFCURVE",
"-3 1308 OFFCURVE",
"-14 1345 CURVE",
"-77 1321 LINE",
"-70 1302 OFFCURVE",
"-65 1277 OFFCURVE",
"-65 1254 CURVE SMOOTH",
"-65 1218 OFFCURVE",
"-79 1183 OFFCURVE",
"-120 1183 CURVE SMOOTH",
"-161 1183 OFFCURVE",
"-182 1225 OFFCURVE",
"-182 1288 CURVE",
"-241 1270 LINE",
"-241 1261 LINE SMOOTH",
"-241 1176 OFFCURVE",
"-196 1113 OFFCURVE",
"-124 1113 CURVE SMOOTH"
);
},
{
closed = 1;
nodes = (
"144 1525 LINE",
"141 1596 LINE",
"-236 1454 LINE",
"-233 1383 LINE"
);
},
{
closed = 1;
nodes = (
"133 1680 LINE",
"130 1752 LINE",
"-247 1610 LINE",
"-244 1538 LINE"
);
}
);
width = 0;
}
);
note = g193;
},
{
glyphname = g194;
lastChange = "2016-11-30 01:19:36 +0000";
layers = (
{
layerId = "E7EC2184-43D4-43F6-AF81-545272527AF8";
paths = (
{
closed = 1;
nodes = (
"-60 1113 OFFCURVE",
"-23 1154 OFFCURVE",
"-15 1222 CURVE",
"2 1194 OFFCURVE",
"33 1180 OFFCURVE",
"66 1180 CURVE SMOOTH",
"129 1180 OFFCURVE",
"175 1227 OFFCURVE",
"175 1304 CURVE SMOOTH",
"175 1347 OFFCURVE",
"159 1383 OFFCURVE",
"132 1410 CURVE",
"72 1387 LINE",
"88 1368 OFFCURVE",
"110 1341 OFFCURVE",
"110 1305 CURVE SMOOTH",
"110 1274 OFFCURVE",
"97 1250 OFFCURVE",
"62 1250 CURVE SMOOTH",
"46 1250 OFFCURVE",
"32 1257 OFFCURVE",
"20 1270 CURVE SMOOTH",
"8 1283 OFFCURVE",
"-3 1308 OFFCURVE",
"-14 1345 CURVE",
"-77 1321 LINE",
"-70 1302 OFFCURVE",
"-65 1277 OFFCURVE",
"-65 1254 CURVE SMOOTH",
"-65 1218 OFFCURVE",
"-79 1183 OFFCURVE",
"-120 1183 CURVE SMOOTH",
"-161 1183 OFFCURVE",
"-182 1225 OFFCURVE",
"-182 1288 CURVE",
"-241 1270 LINE",
"-241 1261 LINE SMOOTH",
"-241 1176 OFFCURVE",
"-196 1113 OFFCURVE",
"-124 1113 CURVE SMOOTH"
);
},
{
closed = 1;
nodes = (
"144 1525 LINE",
"141 1596 LINE",
"-236 1454 LINE",
"-233 1383 LINE"
);
}
);
width = 0;
}
);
note = g194;
},
{
glyphname = g195;
lastChange = "2016-11-30 01:19:36 +0000";
layers = (
{
layerId = "E7EC2184-43D4-43F6-AF81-545272527AF8";
paths = (
{
closed = 1;
nodes = (
"-80 1442 OFFCURVE",
"22 1484 OFFCURVE",
"68 1514 CURVE SMOOTH",
"114 1544 OFFCURVE",
"137 1585 OFFCURVE",
"137 1637 CURVE SMOOTH",
"137 1704 OFFCURVE",
"81 1750 OFFCURVE",
"17 1750 CURVE SMOOTH",
"-55 1750 OFFCURVE",
"-116 1693 OFFCURVE",
"-116 1621 CURVE SMOOTH",
"-116 1576 OFFCURVE",
"-94 1547 OFFCURVE",
"-67 1526 CURVE",
"-81 1520 OFFCURVE",
"-96 1514 OFFCURVE",
"-112 1508 CURVE SMOOTH",
"-205 1473 LINE",
"-220 1468 OFFCURVE",
"-232 1463 OFFCURVE",
"-242 1460 CURVE",
"-239 1387 LINE"
);
},
{
closed = 1;
nodes = (
"-60 1113 OFFCURVE",
"-23 1154 OFFCURVE",
"-15 1222 CURVE",
"2 1194 OFFCURVE",
"33 1180 OFFCURVE",
"66 1180 CURVE SMOOTH",
"129 1180 OFFCURVE",
"175 1227 OFFCURVE",
"175 1304 CURVE SMOOTH",
"175 1347 OFFCURVE",
"159 1383 OFFCURVE",
"132 1410 CURVE",
"72 1387 LINE",
"88 1368 OFFCURVE",
"110 1341 OFFCURVE",
"110 1305 CURVE SMOOTH",
"110 1274 OFFCURVE",
"97 1250 OFFCURVE",
"62 1250 CURVE SMOOTH",
"46 1250 OFFCURVE",
"32 1257 OFFCURVE",
"20 1270 CURVE SMOOTH",
"8 1283 OFFCURVE",
"-3 1308 OFFCURVE",
"-14 1345 CURVE",
"-77 1321 LINE",
"-70 1302 OFFCURVE",
"-65 1277 OFFCURVE",
"-65 1254 CURVE SMOOTH",
"-65 1218 OFFCURVE",
"-79 1183 OFFCURVE",
"-120 1183 CURVE SMOOTH",
"-161 1183 OFFCURVE",
"-182 1225 OFFCURVE",
"-182 1288 CURVE",
"-241 1270 LINE",
"-241 1261 LINE SMOOTH",
"-241 1176 OFFCURVE",
"-196 1113 OFFCURVE",
"-124 1113 CURVE SMOOTH"
);
},
{
closed = 1;
nodes = (
"-29 1568 OFFCURVE",
"-47 1592 OFFCURVE",
"-47 1621 CURVE SMOOTH",
"-47 1656 OFFCURVE",
"-20 1677 OFFCURVE",
"12 1677 CURVE SMOOTH",
"51 1677 OFFCURVE",
"69 1655 OFFCURVE",
"69 1628 CURVE SMOOTH",
"69 1597 OFFCURVE",
"48 1575 OFFCURVE",
"5 1555 CURVE",
"-2 1553 LINE"
);
}
);
width = 0;
}
);
note = g195;
},
{
glyphname = g196;
lastChange = "2016-11-30 01:19:36 +0000";
layers = (
{
layerId = "E7EC2184-43D4-43F6-AF81-545272527AF8";
paths = (
{
closed = 1;
nodes = (
"-52 1321 OFFCURVE",
"-15 1362 OFFCURVE",
"-7 1430 CURVE",
"10 1402 OFFCURVE",
"41 1388 OFFCURVE",
"74 1388 CURVE SMOOTH",
"137 1388 OFFCURVE",
"183 1435 OFFCURVE",
"183 1512 CURVE SMOOTH",
"183 1555 OFFCURVE",
"167 1591 OFFCURVE",
"140 1618 CURVE",
"80 1595 LINE",
"96 1576 OFFCURVE",
"118 1549 OFFCURVE",
"118 1513 CURVE SMOOTH",
"118 1482 OFFCURVE",
"105 1458 OFFCURVE",
"70 1458 CURVE SMOOTH",
"54 1458 OFFCURVE",
"40 1465 OFFCURVE",
"28 1478 CURVE SMOOTH",
"16 1491 OFFCURVE",
"5 1516 OFFCURVE",
"-6 1553 CURVE",
"-69 1529 LINE",
"-62 1510 OFFCURVE",
"-57 1485 OFFCURVE",
"-57 1462 CURVE SMOOTH",
"-57 1426 OFFCURVE",
"-71 1391 OFFCURVE",
"-112 1391 CURVE SMOOTH",
"-153 1391 OFFCURVE",
"-174 1433 OFFCURVE",
"-174 1496 CURVE",
"-233 1478 LINE",
"-233 1469 LINE SMOOTH",
"-233 1384 OFFCURVE",
"-188 1321 OFFCURVE",
"-116 1321 CURVE SMOOTH"
);
},
{
closed = 1;
nodes = (
"191 1243 LINE",
"188 1314 LINE",
"-189 1172 LINE",
"-186 1101 LINE"
);
}
);
width = 0;
}
);
note = g196;
},
{
glyphname = g197;
lastChange = "2016-11-30 01:19:36 +0000";
layers = (
{
layerId = "E7EC2184-43D4-43F6-AF81-545272527AF8";
paths = (
{
closed = 1;
nodes = (
"-60 1113 OFFCURVE",
"-23 1154 OFFCURVE",
"-15 1222 CURVE",
"2 1194 OFFCURVE",
"33 1180 OFFCURVE",
"66 1180 CURVE SMOOTH",
"129 1180 OFFCURVE",
"175 1227 OFFCURVE",
"175 1304 CURVE SMOOTH",
"175 1347 OFFCURVE",
"159 1383 OFFCURVE",
"132 1410 CURVE",
"72 1387 LINE",
"88 1368 OFFCURVE",
"110 1341 OFFCURVE",
"110 1305 CURVE SMOOTH",
"110 1274 OFFCURVE",
"97 1250 OFFCURVE",
"62 1250 CURVE SMOOTH",
"46 1250 OFFCURVE",
"32 1257 OFFCURVE",
"20 1270 CURVE SMOOTH",
"8 1283 OFFCURVE",
"-3 1308 OFFCURVE",
"-14 1345 CURVE",
"-77 1321 LINE",
"-70 1302 OFFCURVE",
"-65 1277 OFFCURVE",
"-65 1254 CURVE SMOOTH",
"-65 1218 OFFCURVE",
"-79 1183 OFFCURVE",
"-120 1183 CURVE SMOOTH",
"-161 1183 OFFCURVE",
"-182 1225 OFFCURVE",
"-182 1288 CURVE",
"-241 1270 LINE",
"-241 1261 LINE SMOOTH",
"-241 1176 OFFCURVE",
"-196 1113 OFFCURVE",
"-124 1113 CURVE SMOOTH"
);
},
{
closed = 1;
nodes = (
"-6 1444 LINE",
"-6 1755 LINE",
"-90 1755 LINE",
"-90 1444 LINE"
);
}
);
width = 0;
}
);
note = g197;
},
{
glyphname = g198;
lastChange = "2016-11-30 01:19:36 +0000";
layers = (
{
layerId = "E7EC2184-43D4-43F6-AF81-545272527AF8";
paths = (
{
closed = 1;
nodes = (
"138 1144 LINE",
"138 1220 LINE",
"46 1210 LINE",
"43 1209 OFFCURVE",
"39 1209 OFFCURVE",
"34 1209 CURVE",
"19 1208 LINE",
"-28 1208 OFFCURVE",
"-56 1244 OFFCURVE",
"-56 1281 CURVE SMOOTH",
"-56 1328 OFFCURVE",
"-23 1355 OFFCURVE",
"28 1355 CURVE SMOOTH",
"49 1355 OFFCURVE",
"72 1353 OFFCURVE",
"97 1344 CURVE",
"120 1410 LINE",
"89 1426 OFFCURVE",
"48 1432 OFFCURVE",
"21 1432 CURVE SMOOTH",
"-64 1432 OFFCURVE",
"-135 1369 OFFCURVE",
"-135 1280 CURVE SMOOTH",
"-135 1253 OFFCURVE",
"-126 1218 OFFCURVE",
"-97 1191 CURVE",
"-159 1184 LINE",
"-159 1109 LINE"
);
},
{
closed = 1;
nodes = (
"173 1600 LINE",
"170 1671 LINE",
"-207 1529 LINE",
"-204 1458 LINE"
);
},
{
closed = 1;
nodes = (
"162 1755 LINE",
"159 1827 LINE",
"-218 1685 LINE",
"-215 1613 LINE"
);
}
);
width = 0;
}
);
note = g198;
},
{
glyphname = g199;
lastChange = "2016-11-30 01:19:36 +0000";
layers = (
{
layerId = "E7EC2184-43D4-43F6-AF81-545272527AF8";
paths = (
{
closed = 1;
nodes = (
"138 1144 LINE",
"138 1220 LINE",
"46 1210 LINE",
"43 1209 OFFCURVE",
"39 1209 OFFCURVE",
"34 1209 CURVE",
"19 1208 LINE",
"-28 1208 OFFCURVE",
"-56 1244 OFFCURVE",
"-56 1281 CURVE SMOOTH",
"-56 1328 OFFCURVE",
"-23 1355 OFFCURVE",
"28 1355 CURVE SMOOTH",
"49 1355 OFFCURVE",
"72 1353 OFFCURVE",
"97 1344 CURVE",
"120 1410 LINE",
"89 1426 OFFCURVE",
"48 1432 OFFCURVE",
"21 1432 CURVE SMOOTH",
"-64 1432 OFFCURVE",
"-135 1369 OFFCURVE",
"-135 1280 CURVE SMOOTH",
"-135 1253 OFFCURVE",
"-126 1218 OFFCURVE",
"-97 1191 CURVE",
"-159 1184 LINE",
"-159 1109 LINE"
);
},
{
closed = 1;
nodes = (
"173 1610 LINE",
"170 1681 LINE",
"-207 1539 LINE",
"-204 1468 LINE"
);
}
);
width = 0;
}
);
note = g199;
},
{
glyphname = g200;
lastChange = "2016-11-30 01:19:36 +0000";
layers = (
{
layerId = "E7EC2184-43D4-43F6-AF81-545272527AF8";
paths = (
{
closed = 1;
nodes = (
"-100 1499 LINE SMOOTH",
"5 1538 OFFCURVE",
"77 1572 OFFCURVE",
"115 1600 CURVE SMOOTH",
"152 1627 OFFCURVE",
"171 1665 OFFCURVE",
"171 1712 CURVE SMOOTH",
"171 1779 OFFCURVE",
"119 1825 OFFCURVE",
"55 1825 CURVE SMOOTH",
"-16 1825 OFFCURVE",
"-73 1769 OFFCURVE",
"-73 1698 CURVE SMOOTH",
"-73 1657 OFFCURVE",
"-55 1621 OFFCURVE",
"-28 1600 CURVE",
"-45 1592 OFFCURVE",
"-65 1584 OFFCURVE",
"-86 1575 CURVE SMOOTH",
"-150 1548 LINE",
"-139 1565 OFFCURVE",
"-138 1585 OFFCURVE",
"-138 1601 CURVE SMOOTH",
"-138 1669 OFFCURVE",
"-188 1706 OFFCURVE",
"-256 1706 CURVE",
"-253 1638 LINE",
"-217 1635 OFFCURVE",
"-201 1609 OFFCURVE",
"-201 1582 CURVE SMOOTH",
"-201 1561 OFFCURVE",
"-206 1543 OFFCURVE",
"-219 1524 CURVE",
"-213 1457 LINE"
);
},
{
closed = 1;
nodes = (
"138 1144 LINE",
"138 1220 LINE",
"46 1210 LINE",
"43 1209 OFFCURVE",
"39 1209 OFFCURVE",
"34 1209 CURVE",
"19 1208 LINE",
"-28 1208 OFFCURVE",
"-56 1244 OFFCURVE",
"-56 1281 CURVE SMOOTH",
"-56 1328 OFFCURVE",
"-23 1355 OFFCURVE",
"28 1355 CURVE SMOOTH",
"49 1355 OFFCURVE",
"72 1353 OFFCURVE",
"97 1344 CURVE",
"120 1410 LINE",
"89 1426 OFFCURVE",
"48 1432 OFFCURVE",
"21 1432 CURVE SMOOTH",
"-64 1432 OFFCURVE",
"-135 1369 OFFCURVE",
"-135 1280 CURVE SMOOTH",
"-135 1253 OFFCURVE",
"-126 1218 OFFCURVE",
"-97 1191 CURVE",
"-159 1184 LINE",
"-159 1109 LINE"
);
},
{
closed = 1;
nodes = (
"9 1644 OFFCURVE",
"-7 1669 OFFCURVE",
"-7 1698 CURVE SMOOTH",
"-7 1733 OFFCURVE",
"19 1754 OFFCURVE",
"50 1754 CURVE SMOOTH",
"81 1754 OFFCURVE",
"102 1734 OFFCURVE",
"102 1703 CURVE SMOOTH",
"102 1668 OFFCURVE",
"75 1645 OFFCURVE",
"43 1632 CURVE SMOOTH",
"36 1629 LINE"
);
}
);
width = 0;
}
);
note = g200;
},
{
glyphname = g201;
lastChange = "2016-11-30 01:19:36 +0000";
layers = (
{
layerId = "E7EC2184-43D4-43F6-AF81-545272527AF8";
paths = (
{
closed = 1;
nodes = (
"-51 1513 OFFCURVE",
"51 1555 OFFCURVE",
"97 1585 CURVE SMOOTH",
"143 1615 OFFCURVE",
"166 1656 OFFCURVE",
"166 1708 CURVE SMOOTH",
"166 1775 OFFCURVE",
"110 1821 OFFCURVE",
"46 1821 CURVE SMOOTH",
"-26 1821 OFFCURVE",
"-87 1764 OFFCURVE",
"-87 1692 CURVE SMOOTH",
"-87 1647 OFFCURVE",
"-65 1618 OFFCURVE",
"-38 1597 CURVE",
"-52 1591 OFFCURVE",
"-67 1585 OFFCURVE",
"-83 1579 CURVE SMOOTH",
"-176 1544 LINE",
"-191 1539 OFFCURVE",
"-203 1534 OFFCURVE",
"-213 1531 CURVE",
"-210 1458 LINE"
);
},
{
closed = 1;
nodes = (
"138 1144 LINE",
"138 1220 LINE",
"46 1210 LINE",
"43 1209 OFFCURVE",
"39 1209 OFFCURVE",
"34 1209 CURVE",
"19 1208 LINE",
"-28 1208 OFFCURVE",
"-56 1244 OFFCURVE",
"-56 1281 CURVE SMOOTH",
"-56 1328 OFFCURVE",
"-23 1355 OFFCURVE",
"28 1355 CURVE SMOOTH",
"49 1355 OFFCURVE",
"72 1353 OFFCURVE",
"97 1344 CURVE",
"120 1410 LINE",
"89 1426 OFFCURVE",
"48 1432 OFFCURVE",
"21 1432 CURVE SMOOTH",
"-64 1432 OFFCURVE",
"-135 1369 OFFCURVE",
"-135 1280 CURVE SMOOTH",
"-135 1253 OFFCURVE",
"-126 1218 OFFCURVE",
"-97 1191 CURVE",
"-159 1184 LINE",
"-159 1109 LINE"
);
},
{
closed = 1;
nodes = (
"0 1639 OFFCURVE",
"-18 1663 OFFCURVE",
"-18 1692 CURVE SMOOTH",
"-18 1727 OFFCURVE",
"9 1748 OFFCURVE",
"41 1748 CURVE SMOOTH",
"80 1748 OFFCURVE",
"98 1726 OFFCURVE",
"98 1699 CURVE SMOOTH",
"98 1668 OFFCURVE",
"77 1646 OFFCURVE",
"34 1626 CURVE",
"27 1624 LINE"
);
}
);
width = 0;
}
);
note = g201;
},
{
glyphname = g202;
lastChange = "2016-11-30 01:19:36 +0000";
layers = (
{
layerId = "E7EC2184-43D4-43F6-AF81-545272527AF8";
paths = (
{
closed = 1;
nodes = (
"138 1144 LINE",
"138 1220 LINE",
"46 1210 LINE",
"43 1209 OFFCURVE",
"39 1209 OFFCURVE",
"34 1209 CURVE",
"19 1208 LINE",
"-28 1208 OFFCURVE",
"-56 1244 OFFCURVE",
"-56 1281 CURVE SMOOTH",
"-56 1328 OFFCURVE",
"-23 1355 OFFCURVE",
"28 1355 CURVE SMOOTH",
"49 1355 OFFCURVE",
"72 1353 OFFCURVE",
"97 1344 CURVE",
"120 1410 LINE",
"89 1426 OFFCURVE",
"48 1432 OFFCURVE",
"21 1432 CURVE SMOOTH",
"-64 1432 OFFCURVE",
"-135 1369 OFFCURVE",
"-135 1280 CURVE SMOOTH",
"-135 1253 OFFCURVE",
"-126 1218 OFFCURVE",
"-97 1191 CURVE",
"-159 1184 LINE",
"-159 1109 LINE"
);
},
{
closed = 1;
nodes = (
"69 1523 OFFCURVE",
"129 1581 OFFCURVE",
"129 1652 CURVE SMOOTH",
"129 1735 OFFCURVE",
"68 1795 OFFCURVE",
"-11 1795 CURVE SMOOTH",
"-80 1795 OFFCURVE",
"-145 1731 OFFCURVE",
"-145 1656 CURVE SMOOTH",
"-145 1577 OFFCURVE",
"-88 1523 OFFCURVE",
"-8 1523 CURVE SMOOTH"
);
},
{
closed = 1;
nodes = (
"-53 1588 OFFCURVE",
"-81 1619 OFFCURVE",
"-81 1658 CURVE SMOOTH",
"-81 1697 OFFCURVE",
"-51 1729 OFFCURVE",
"-8 1729 CURVE SMOOTH",
"35 1729 OFFCURVE",
"65 1702 OFFCURVE",
"65 1659 CURVE SMOOTH",
"65 1620 OFFCURVE",
"39 1588 OFFCURVE",
"-10 1588 CURVE SMOOTH"
);
}
);
width = 0;
}
);
note = g202;
},
{
glyphname = g203;
lastChange = "2016-11-30 01:19:36 +0000";
layers = (
{
layerId = "E7EC2184-43D4-43F6-AF81-545272527AF8";
paths = (
{
closed = 1;
nodes = (
"138 -288 LINE",
"138 -212 LINE",
"29 -223 LINE",
"26 -224 OFFCURVE",
"22 -224 OFFCURVE",
"19 -224 CURVE SMOOTH",
"-24 -224 OFFCURVE",
"-56 -192 OFFCURVE",
"-56 -151 CURVE SMOOTH",
"-56 -104 OFFCURVE",
"-23 -75 OFFCURVE",
"28 -75 CURVE SMOOTH",
"50 -75 OFFCURVE",
"73 -79 OFFCURVE",
"97 -88 CURVE",
"120 -20 LINE",
"89 -5 OFFCURVE",
"48 0 OFFCURVE",
"21 0 CURVE SMOOTH",
"-63 0 OFFCURVE",
"-135 -62 OFFCURVE",
"-135 -151 CURVE SMOOTH",
"-135 -178 OFFCURVE",
"-126 -214 OFFCURVE",
"-97 -241 CURVE",
"-159 -248 LINE",
"-159 -322 LINE"
);
},
{
closed = 1;
nodes = (
"180 -441 LINE",
"177 -369 LINE",
"-200 -511 LINE",
"-197 -583 LINE"
);
}
);
width = 0;
}
);
note = g203;
},
{
glyphname = g204;
lastChange = "2016-11-30 01:19:36 +0000";
layers = (
{
layerId = "E7EC2184-43D4-43F6-AF81-545272527AF8";
paths = (
{
closed = 1;
nodes = (
"138 -288 LINE",
"138 -212 LINE",
"29 -223 LINE",
"26 -224 OFFCURVE",
"22 -224 OFFCURVE",
"19 -224 CURVE SMOOTH",
"-24 -224 OFFCURVE",
"-56 -192 OFFCURVE",
"-56 -151 CURVE SMOOTH",
"-56 -104 OFFCURVE",
"-23 -75 OFFCURVE",
"28 -75 CURVE SMOOTH",
"50 -75 OFFCURVE",
"73 -79 OFFCURVE",
"97 -88 CURVE",
"120 -20 LINE",
"89 -5 OFFCURVE",
"48 0 OFFCURVE",
"21 0 CURVE SMOOTH",
"-63 0 OFFCURVE",
"-135 -62 OFFCURVE",
"-135 -151 CURVE SMOOTH",
"-135 -178 OFFCURVE",
"-126 -214 OFFCURVE",
"-97 -241 CURVE",
"-159 -248 LINE",
"-159 -322 LINE"
);
},
{
closed = 1;
nodes = (
"191 -586 LINE",
"188 -515 LINE",
"-189 -657 LINE",
"-186 -728 LINE"
);
},
{
closed = 1;
nodes = (
"180 -431 LINE",
"177 -359 LINE",
"-200 -501 LINE",
"-197 -573 LINE"
);
}
);
width = 0;
}
);
note = g204;
},
{
glyphname = afii57392;
lastChange = "2016-11-30 01:15:49 +0000";
layers = (
{
layerId = "E7EC2184-43D4-43F6-AF81-545272527AF8";
paths = (
{
closed = 1;
nodes = (
"267 359 OFFCURVE",
"329 416 OFFCURVE",
"329 493 CURVE SMOOTH",
"329 565 OFFCURVE",
"260 623 OFFCURVE",
"193 623 CURVE SMOOTH",
"129 623 OFFCURVE",
"60 564 OFFCURVE",
"60 493 CURVE SMOOTH",
"60 414 OFFCURVE",
"124 359 OFFCURVE",
"199 359 CURVE SMOOTH"
);
}
);
width = 389;
}
);
note = afii57392;
unicode = 0660;
},
{
glyphname = afii57393;
lastChange = "2016-11-30 01:19:36 +0000";
layers = (
{
layerId = "E7EC2184-43D4-43F6-AF81-545272527AF8";
paths = (
{
closed = 1;
nodes = (
"384 0 LINE",
"334 1200 LINE",
"191 1200 LINE",
"241 0 LINE"
);
}
);
width = 574;
}
);
note = afii57393;
unicode = 0661;
},
{
glyphname = afii57394;
lastChange = "2016-11-30 01:19:36 +0000";
layers = (
{
layerId = "E7EC2184-43D4-43F6-AF81-545272527AF8";
paths = (
{
closed = 1;
nodes = (
"390 0 LINE",
"243 938 LINE",
"244 938 LINE",
"295 905 OFFCURVE",
"359 896 OFFCURVE",
"418 896 CURVE SMOOTH",
"625 896 OFFCURVE",
"760 1003 OFFCURVE",
"803 1200 CURVE",
"665 1200 LINE",
"625 1088 OFFCURVE",
"553 1039 OFFCURVE",
"400 1039 CURVE SMOOTH",
"324 1039 OFFCURVE",
"250 1064 OFFCURVE",
"213 1108 CURVE",
"198 1200 LINE",
"50 1200 LINE",
"77 1052 OFFCURVE",
"112 834 OFFCURVE",
"143 641 CURVE SMOOTH",
"244 0 LINE"
);
}
);
width = 833;
}
);
note = afii57394;
unicode = 0662;
},
{
glyphname = afii57395;
lastChange = "2016-11-30 01:19:36 +0000";
layers = (
{
layerId = "E7EC2184-43D4-43F6-AF81-545272527AF8";
paths = (
{
closed = 1;
nodes = (
"390 0 LINE",
"249 897 LINE",
"251 898 LINE",
"279 877 OFFCURVE",
"315 872 OFFCURVE",
"346 872 CURVE SMOOTH",
"402 872 OFFCURVE",
"457 885 OFFCURVE",
"497 932 CURVE",
"537 896 OFFCURVE",
"587 873 OFFCURVE",
"666 873 CURVE SMOOTH",
"817 873 OFFCURVE",
"919 995 OFFCURVE",
"919 1200 CURVE",
"787 1200 LINE",
"783 1073 OFFCURVE",
"745 1008 OFFCURVE",
"656 1008 CURVE SMOOTH",
"617 1008 OFFCURVE",
"580 1020 OFFCURVE",
"560 1047 CURVE",
"571 1080 OFFCURVE",
"581 1135 OFFCURVE",
"581 1200 CURVE",
"449 1200 LINE",
"442 1069 OFFCURVE",
"409 1006 OFFCURVE",
"329 1006 CURVE SMOOTH",
"288 1006 OFFCURVE",
"244 1026 OFFCURVE",
"221 1061 CURVE",
"198 1200 LINE",
"50 1200 LINE",
"77 1052 OFFCURVE",
"112 834 OFFCURVE",
"143 641 CURVE SMOOTH",
"244 0 LINE"
);
}
);
width = 949;
}
);
note = afii57395;
unicode = 0663;
},
{
glyphname = afii57396;
lastChange = "2016-11-30 01:19:36 +0000";
layers = (
{
layerId = "E7EC2184-43D4-43F6-AF81-545272527AF8";
paths = (
{
closed = 1;
nodes = (
"588 -5 OFFCURVE",
"670 11 OFFCURVE",
"758 34 CURVE",
"758 176 LINE",
"667 155 OFFCURVE",
"573 141 OFFCURVE",
"489 141 CURVE SMOOTH",
"408 141 OFFCURVE",
"346 148 OFFCURVE",
"302 162 CURVE SMOOTH",
"258 176 OFFCURVE",
"236 196 OFFCURVE",
"236 223 CURVE SMOOTH",
"236 246 OFFCURVE",
"246 271 OFFCURVE",
"265 297 CURVE SMOOTH",
"284 322 OFFCURVE",
"317 355 OFFCURVE",
"363 396 CURVE SMOOTH",
"506 521 LINE SMOOTH",
"543 554 OFFCURVE",
"566 580 OFFCURVE",
"573 597 CURVE SMOOTH",
"580 614 OFFCURVE",
"583 628 OFFCURVE",
"583 641 CURVE SMOOTH",
"583 696 OFFCURVE",
"560 725 OFFCURVE",
"463 750 CURVE SMOOTH",
"407 764 LINE SMOOTH",
"339 781 OFFCURVE",
"287 798 OFFCURVE",
"252 816 CURVE SMOOTH",
"217 833 OFFCURVE",
"199 854 OFFCURVE",
"199 878 CURVE SMOOTH",
"199 917 OFFCURVE",
"231 955 OFFCURVE",
"295 990 CURVE SMOOTH",
"358 1025 OFFCURVE",
"451 1060 OFFCURVE",
"574 1093 CURVE",
"574 1228 LINE",
"230 1156 OFFCURVE",
"60 1031 OFFCURVE",
"60 864 CURVE SMOOTH",
"60 764 OFFCURVE",
"127 694 OFFCURVE",
"282 651 CURVE SMOOTH",
"419 615 LINE",
"369 576 LINE SMOOTH",
"161 413 OFFCURVE",
"96 317 OFFCURVE",
"96 201 CURVE SMOOTH",
"96 66 OFFCURVE",
"208 -5 OFFCURVE",
"480 -5 CURVE SMOOTH"
);
}
);
width = 798;
}
);
note = afii57396;
unicode = 0664;
},
{
glyphname = afii57397;
lastChange = "2016-11-30 01:19:36 +0000";
layers = (
{
layerId = "E7EC2184-43D4-43F6-AF81-545272527AF8";
paths = (
{
closed = 1;
nodes = (
"713 80 OFFCURVE",
"860 249 OFFCURVE",
"860 557 CURVE SMOOTH",
"860 866 OFFCURVE",
"715 1084 OFFCURVE",
"474 1084 CURVE SMOOTH",
"237 1084 OFFCURVE",
"70 843 OFFCURVE",
"70 535 CURVE SMOOTH",
"70 243 OFFCURVE",
"221 80 OFFCURVE",
"461 80 CURVE SMOOTH"
);
},
{
closed = 1;
nodes = (
"305 230 OFFCURVE",
"220 342 OFFCURVE",
"220 534 CURVE SMOOTH",
"220 781 OFFCURVE",
"319 932 OFFCURVE",
"474 932 CURVE SMOOTH",
"618 932 OFFCURVE",
"710 780 OFFCURVE",
"710 552 CURVE SMOOTH",
"710 335 OFFCURVE",
"629 230 OFFCURVE",
"461 230 CURVE SMOOTH"
);
}
);
width = 930;
}
);
note = afii57397;
unicode = 0665;
},
{
glyphname = afii57398;
lastChange = "2016-11-30 01:19:36 +0000";
layers = (
{
layerId = "E7EC2184-43D4-43F6-AF81-545272527AF8";
paths = (
{
closed = 1;
nodes = (
"737 0 LINE",
"724 162 LINE SMOOTH",
"719 222 OFFCURVE",
"714 285 OFFCURVE",
"709 352 CURVE SMOOTH",
"695 557 LINE SMOOTH",
"682 732 OFFCURVE",
"670 985 OFFCURVE",
"670 1104 CURVE SMOOTH",
"670 1200 LINE",
"397 1200 LINE",
"325 1201 LINE SMOOTH",
"232 1201 OFFCURVE",
"109 1206 OFFCURVE",
"37 1213 CURVE",
"20 1075 LINE",
"144 1060 OFFCURVE",
"276 1056 OFFCURVE",
"397 1056 CURVE SMOOTH",
"528 1056 LINE",
"531 801 OFFCURVE",
"563 305 OFFCURVE",
"590 0 CURVE"
);
}
);
width = 837;
}
);
note = afii57398;
unicode = 0666;
},
{
glyphname = afii57399;
lastChange = "2016-11-30 01:19:36 +0000";
layers = (
{
layerId = "E7EC2184-43D4-43F6-AF81-545272527AF8";
paths = (
{
closed = 1;
nodes = (
"511 0 LINE",
"572 169 LINE SMOOTH",
"595 233 OFFCURVE",
"621 301 OFFCURVE",
"648 374 CURVE SMOOTH",
"731 598 LINE SMOOTH",
"759 675 OFFCURVE",
"787 749 OFFCURVE",
"814 822 CURVE SMOOTH",
"956 1200 LINE",
"797 1200 LINE",
"742 1055 OFFCURVE",
"690 908 OFFCURVE",
"631 736 CURVE SMOOTH",
"550 500 LINE SMOOTH",
"523 421 OFFCURVE",
"494 340 OFFCURVE",
"465 257 CURVE",
"460 257 LINE",
"418 399 LINE",
"317 729 LINE",
"214 1058 LINE SMOOTH",
"198 1109 OFFCURVE",
"183 1157 OFFCURVE",
"169 1200 CURVE",
"0 1200 LINE",
"79 972 OFFCURVE",
"140 784 OFFCURVE",
"211 568 CURVE SMOOTH",
"279 355 LINE",
"389 0 LINE"
);
}
);
width = 956;
}
);
note = afii57399;
unicode = 0667;
},
{
glyphname = afii57400;
lastChange = "2016-11-30 01:19:36 +0000";
layers = (
{
layerId = "E7EC2184-43D4-43F6-AF81-545272527AF8";
paths = (
{
closed = 1;
nodes = (
"169 0 LINE",
"221 145 OFFCURVE",
"271 292 OFFCURVE",
"327 465 CURVE SMOOTH",
"404 700 LINE SMOOTH",
"430 779 OFFCURVE",
"457 860 OFFCURVE",
"485 943 CURVE",
"490 943 LINE",
"503 900 OFFCURVE",
"518 852 OFFCURVE",
"535 801 CURVE SMOOTH",
"586 641 LINE",
"641 471 LINE",
"797 0 LINE",
"966 0 LINE",
"943 61 OFFCURVE",
"920 127 OFFCURVE",
"895 198 CURVE SMOOTH",
"820 413 LINE SMOOTH",
"771 554 OFFCURVE",
"720 705 OFFCURVE",
"673 846 CURVE SMOOTH",
"609 1039 LINE SMOOTH",
"589 1099 OFFCURVE",
"571 1153 OFFCURVE",
"556 1200 CURVE",
"434 1200 LINE",
"418 1152 OFFCURVE",
"399 1096 OFFCURVE",
"376 1032 CURVE SMOOTH",
"304 826 LINE SMOOTH",
"279 753 OFFCURVE",
"252 679 OFFCURVE",
"225 602 CURVE SMOOTH",
"71 172 LINE",
"10 0 LINE"
);
}
);
width = 966;
}
);
note = afii57400;
unicode = 0668;
},
{
glyphname = afii57401;
lastChange = "2016-11-30 01:19:36 +0000";
layers = (
{
layerId = "E7EC2184-43D4-43F6-AF81-545272527AF8";
paths = (
{
closed = 1;
nodes = (
"772 0 LINE",
"700 822 LINE SMOOTH",
"677 1101 OFFCURVE",
"565 1227 OFFCURVE",
"366 1227 CURVE SMOOTH",
"186 1227 OFFCURVE",
"30 1034 OFFCURVE",
"30 835 CURVE SMOOTH",
"30 648 OFFCURVE",
"152 533 OFFCURVE",
"363 533 CURVE SMOOTH",
"431 533 OFFCURVE",
"512 552 OFFCURVE",
"575 585 CURVE",
"624 0 LINE"
);
},
{
closed = 1;
nodes = (
"236 680 OFFCURVE",
"172 744 OFFCURVE",
"172 849 CURVE SMOOTH",
"172 984 OFFCURVE",
"266 1084 OFFCURVE",
"367 1084 CURVE SMOOTH",
"500 1084 OFFCURVE",
"545 997 OFFCURVE",
"557 816 CURVE SMOOTH",
"563 720 LINE",
"498 692 OFFCURVE",
"445 680 OFFCURVE",
"377 680 CURVE SMOOTH"
);
}
);
width = 860;
}
);
note = afii57401;
unicode = 0669;
},
{
glyphname = afii57381;
lastChange = "2016-11-30 01:19:36 +0000";
layers = (
{
layerId = "E7EC2184-43D4-43F6-AF81-545272527AF8";
paths = (
{
closed = 1;
nodes = (
"281 0 LINE",
"899 1200 LINE",
"750 1200 LINE",
"130 0 LINE"
);
},
{
closed = 1;
nodes = (
"825 -20 OFFCURVE",
"878 33 OFFCURVE",
"878 101 CURVE SMOOTH",
"878 164 OFFCURVE",
"816 218 OFFCURVE",
"755 218 CURVE SMOOTH",
"698 218 OFFCURVE",
"635 165 OFFCURVE",
"635 101 CURVE SMOOTH",
"635 29 OFFCURVE",
"696 -20 OFFCURVE",
"761 -20 CURVE SMOOTH"
);
},
{
closed = 1;
nodes = (
"329 962 OFFCURVE",
"382 1015 OFFCURVE",
"382 1083 CURVE SMOOTH",
"382 1146 OFFCURVE",
"320 1200 OFFCURVE",
"259 1200 CURVE SMOOTH",
"202 1200 OFFCURVE",
"139 1147 OFFCURVE",
"139 1083 CURVE SMOOTH",
"139 1011 OFFCURVE",
"200 962 OFFCURVE",
"265 962 CURVE SMOOTH"
);
}
);
width = 979;
}
);
note = afii57381;
unicode = 066A;
},
{
glyphname = uni066B;
lastChange = "2016-11-30 01:19:36 +0000";
layers = (
{
layerId = "E7EC2184-43D4-43F6-AF81-545272527AF8";
paths = (
{
closed = 1;
nodes = (
"237 -264 LINE",
"280 -145 OFFCURVE",
"349 74 OFFCURVE",
"389 215 CURVE",
"374 238 LINE",
"227 238 LINE",
"172 -9 LINE",
"141 -145 LINE SMOOTH",
"130 -190 OFFCURVE",
"121 -229 OFFCURVE",
"112 -264 CURVE"
);
}
);
width = 536;
}
);
note = uni066B;
unicode = 066B;
},
{
glyphname = uni066C;
lastChange = "2016-11-30 01:19:36 +0000";
layers = (
{
layerId = "E7EC2184-43D4-43F6-AF81-545272527AF8";
paths = (
{
closed = 1;
nodes = (
"234 698 LINE",
"277 817 OFFCURVE",
"346 1036 OFFCURVE",
"386 1177 CURVE",
"371 1200 LINE",
"224 1200 LINE",
"169 953 LINE",
"138 817 LINE SMOOTH",
"127 772 OFFCURVE",
"118 733 OFFCURVE",
"109 698 CURVE"
);
}
);
width = 536;
}
);
note = uni066C;
unicode = 066C;
},
{
glyphname = period;
lastChange = "2016-11-30 01:19:36 +0000";
layers = (
{
layerId = "E7EC2184-43D4-43F6-AF81-545272527AF8";
paths = (
{
closed = 1;
nodes = (
"346 -29 OFFCURVE",
"393 18 OFFCURVE",
"393 106 CURVE SMOOTH",
"393 195 OFFCURVE",
"347 242 OFFCURVE",
"270 242 CURVE SMOOTH",
"194 242 OFFCURVE",
"152 195 OFFCURVE",
"152 106 CURVE SMOOTH",
"152 10 OFFCURVE",
"202 -29 OFFCURVE",
"270 -29 CURVE SMOOTH"
);
}
);
width = 545;
}
);
note = period;
unicode = 002E;
},
{
glyphname = afii57388;
lastChange = "2016-11-30 01:19:36 +0000";
layers = (
{
layerId = "E7EC2184-43D4-43F6-AF81-545272527AF8";
paths = (
{
closed = 1;
nodes = (
"292 0 LINE",
"307 69 OFFCURVE",
"327 163 OFFCURVE",
"347 247 CURVE SMOOTH",
"379 383 LINE SMOOTH",
"389 428 OFFCURVE",
"398 467 OFFCURVE",
"407 502 CURVE",
"282 502 LINE",
"239 383 OFFCURVE",
"170 164 OFFCURVE",
"130 23 CURVE",
"145 0 LINE"
);
}
);
width = 567;
}
);
note = afii57388;
unicode = 060C;
},
{
glyphname = afii57403;
lastChange = "2016-11-30 01:19:36 +0000";
layers = (
{
layerId = "E7EC2184-43D4-43F6-AF81-545272527AF8";
paths = (
{
closed = 1;
nodes = (
"384 637 LINE",
"412 816 OFFCURVE",
"446 978 OFFCURVE",
"489 1139 CURVE",
"364 1139 LINE",
"289 972 OFFCURVE",
"243 817 OFFCURVE",
"202 660 CURVE",
"217 637 LINE"
);
},
{
closed = 1;
nodes = (
"364 -29 OFFCURVE",
"411 18 OFFCURVE",
"411 106 CURVE SMOOTH",
"411 195 OFFCURVE",
"365 242 OFFCURVE",
"288 242 CURVE SMOOTH",
"212 242 OFFCURVE",
"170 195 OFFCURVE",
"170 106 CURVE SMOOTH",
"170 10 OFFCURVE",
"220 -29 OFFCURVE",
"288 -29 CURVE SMOOTH"
);
}
);
width = 581;
}
);
note = afii57403;
unicode = 061B;
},
{
glyphname = colon;
lastChange = "2016-11-30 01:19:36 +0000";
layers = (
{
layerId = "E7EC2184-43D4-43F6-AF81-545272527AF8";
paths = (
{
closed = 1;
nodes = (
"364 -29 OFFCURVE",
"411 18 OFFCURVE",
"411 106 CURVE SMOOTH",
"411 195 OFFCURVE",
"365 242 OFFCURVE",
"288 242 CURVE SMOOTH",
"212 242 OFFCURVE",
"170 195 OFFCURVE",
"170 106 CURVE SMOOTH",
"170 10 OFFCURVE",
"220 -29 OFFCURVE",
"288 -29 CURVE SMOOTH"
);
},
{
closed = 1;
nodes = (
"364 614 OFFCURVE",
"411 661 OFFCURVE",
"411 749 CURVE SMOOTH",
"411 839 OFFCURVE",
"370 884 OFFCURVE",
"288 884 CURVE SMOOTH",
"209 884 OFFCURVE",
"170 839 OFFCURVE",
"170 749 CURVE SMOOTH",
"170 653 OFFCURVE",
"220 614 OFFCURVE",
"288 614 CURVE SMOOTH"
);
}
);
width = 581;
}
);
note = colon;
unicode = 003A;
},
{
glyphname = ellipsis;
lastChange = "2016-11-30 01:19:36 +0000";
layers = (
{
layerId = "E7EC2184-43D4-43F6-AF81-545272527AF8";
paths = (
{
closed = 1;
nodes = (
"1287 -29 OFFCURVE",
"1334 18 OFFCURVE",
"1334 106 CURVE SMOOTH",
"1334 195 OFFCURVE",
"1288 242 OFFCURVE",
"1211 242 CURVE SMOOTH",
"1135 242 OFFCURVE",
"1093 195 OFFCURVE",
"1093 106 CURVE SMOOTH",
"1093 10 OFFCURVE",
"1143 -29 OFFCURVE",
"1211 -29 CURVE SMOOTH"
);
},
{
closed = 1;
nodes = (
"346 -29 OFFCURVE",
"393 18 OFFCURVE",
"393 106 CURVE SMOOTH",
"393 195 OFFCURVE",
"347 242 OFFCURVE",
"270 242 CURVE SMOOTH",
"194 242 OFFCURVE",
"152 195 OFFCURVE",
"152 106 CURVE SMOOTH",
"152 10 OFFCURVE",
"202 -29 OFFCURVE",
"270 -29 CURVE SMOOTH"
);
},
{
closed = 1;
nodes = (
"816 -29 OFFCURVE",
"863 18 OFFCURVE",
"863 106 CURVE SMOOTH",
"863 195 OFFCURVE",
"817 242 OFFCURVE",
"740 242 CURVE SMOOTH",
"664 242 OFFCURVE",
"622 195 OFFCURVE",
"622 106 CURVE SMOOTH",
"622 10 OFFCURVE",
"672 -29 OFFCURVE",
"740 -29 CURVE SMOOTH"
);
}
);
width = 1486;
}
);
note = ellipsis;
unicode = 2026;
},
{
glyphname = afii57407;
lastChange = "2016-11-30 01:19:36 +0000";
layers = (
{
layerId = "E7EC2184-43D4-43F6-AF81-545272527AF8";
paths = (
{
closed = 1;
nodes = (
"537 403 LINE",
"537 457 LINE SMOOTH",
"537 568 OFFCURVE",
"488 651 OFFCURVE",
"376 735 CURVE SMOOTH",
"264 818 OFFCURVE",
"222 875 OFFCURVE",
"222 951 CURVE SMOOTH",
"222 1050 OFFCURVE",
"304 1119 OFFCURVE",
"435 1119 CURVE SMOOTH",
"526 1119 OFFCURVE",
"608 1096 OFFCURVE",
"688 1057 CURVE",
"748 1181 LINE",
"639 1237 OFFCURVE",
"537 1264 OFFCURVE",
"428 1264 CURVE SMOOTH",
"216 1264 OFFCURVE",
"66 1131 OFFCURVE",
"66 944 CURVE SMOOTH",
"66 811 OFFCURVE",
"136 732 OFFCURVE",
"289 624 CURVE SMOOTH",
"365 569 OFFCURVE",
"403 507 OFFCURVE",
"403 436 CURVE SMOOTH",
"403 403 LINE"
);
},
{
closed = 1;
nodes = (
"529 -16 OFFCURVE",
"573 19 OFFCURVE",
"573 106 CURVE SMOOTH",
"573 188 OFFCURVE",
"537 229 OFFCURVE",
"465 229 CURVE SMOOTH",
"396 229 OFFCURVE",
"356 186 OFFCURVE",
"356 106 CURVE SMOOTH",
"356 29 OFFCURVE",
"397 -16 OFFCURVE",
"465 -16 CURVE SMOOTH"
);
}
);
width = 776;
}
);
note = afii57407;
unicode = 061F;
},
{
glyphname = exclam;
lastChange = "2016-11-30 01:19:36 +0000";
layers = (
{
layerId = "E7EC2184-43D4-43F6-AF81-545272527AF8";
paths = (
{
closed = 1;
nodes = (
"345 403 LINE",
"390 1244 LINE",
"195 1244 LINE",
"240 403 LINE"
);
},
{
closed = 1;
nodes = (
"359 -16 OFFCURVE",
"400 29 OFFCURVE",
"400 106 CURVE SMOOTH",
"400 186 OFFCURVE",
"360 229 OFFCURVE",
"291 229 CURVE SMOOTH",
"219 229 OFFCURVE",
"183 188 OFFCURVE",
"183 106 CURVE SMOOTH",
"183 19 OFFCURVE",
"227 -16 OFFCURVE",
"291 -16 CURVE SMOOTH"
);
}
);
width = 582;
}
);
note = exclam;
unicode = 0021;
},
{
glyphname = parenleft;
lastChange = "2016-11-30 01:19:36 +0000";
layers = (
{
layerId = "E7EC2184-43D4-43F6-AF81-545272527AF8";
paths = (
{
closed = 1;
nodes = (
"543 -374 LINE",
"356 -122 OFFCURVE",
"256 197 OFFCURVE",
"256 513 CURVE SMOOTH",
"256 840 OFFCURVE",
"352 1153 OFFCURVE",
"545 1412 CURVE",
"383 1412 LINE",
"187 1179 OFFCURVE",
"82 866 OFFCURVE",
"82 511 CURVE SMOOTH",
"82 160 OFFCURVE",
"186 -146 OFFCURVE",
"383 -374 CURVE"
);
}
);
width = 606;
}
);
note = parenleft;
unicode = 0028;
},
{
glyphname = parenright;
lastChange = "2016-11-30 01:19:36 +0000";
layers = (
{
layerId = "E7EC2184-43D4-43F6-AF81-545272527AF8";
paths = (
{
closed = 1;
nodes = (
"223 -374 LINE",
"419 -149 OFFCURVE",
"524 158 OFFCURVE",
"524 511 CURVE SMOOTH",
"524 856 OFFCURVE",
"422 1175 OFFCURVE",
"223 1412 CURVE",
"61 1412 LINE",
"254 1153 OFFCURVE",
"350 840 OFFCURVE",
"350 513 CURVE SMOOTH",
"350 194 OFFCURVE",
"248 -123 OFFCURVE",
"63 -374 CURVE"
);
}
);
width = 606;
}
);
note = parenright;
unicode = 0029;
},
{
glyphname = bracketleft;
lastChange = "2016-11-30 01:19:36 +0000";
layers = (
{
layerId = "E7EC2184-43D4-43F6-AF81-545272527AF8";
paths = (
{
closed = 1;
nodes = (
"617 -324 LINE",
"617 -187 LINE",
"318 -187 LINE",
"318 1284 LINE",
"617 1284 LINE",
"617 1420 LINE",
"160 1420 LINE",
"160 -324 LINE"
);
}
);
width = 667;
}
);
note = bracketleft;
unicode = 005B;
},
{
glyphname = bracketright;
lastChange = "2016-11-30 01:15:49 +0000";
layers = (
{
layerId = "E7EC2184-43D4-43F6-AF81-545272527AF8";
paths = (
{
closed = 1;
nodes = (
"507 -324 LINE",
"507 1420 LINE",
"50 1420 LINE",
"50 1284 LINE",
"349 1284 LINE",
"349 -187 LINE",
"50 -187 LINE",
"50 -324 LINE"
);
}
);
width = 667;
}
);
note = bracketright;
unicode = 005D;
},
{
glyphname = g229;
lastChange = "2016-11-30 01:19:36 +0000";
layers = (
{
layerId = "E7EC2184-43D4-43F6-AF81-545272527AF8";
paths = (
{
closed = 1;
nodes = (
"264 852 LINE",
"264 1803 LINE",
"1154 1803 LINE",
"1154 1907 LINE",
"160 1907 LINE",
"160 852 LINE"
);
}
);
width = 1104;
}
);
note = g229;
},
{
glyphname = g230;
lastChange = "2016-11-30 01:19:36 +0000";
layers = (
{
layerId = "E7EC2184-43D4-43F6-AF81-545272527AF8";
paths = (
{
closed = 1;
nodes = (
"944 852 LINE",
"944 1907 LINE",
"-50 1907 LINE",
"-50 1803 LINE",
"840 1803 LINE",
"840 852 LINE"
);
}
);
width = 1104;
}
);
note = g230;
},
{
glyphname = g231;
lastChange = "2016-11-30 01:19:36 +0000";
layers = (
{
layerId = "E7EC2184-43D4-43F6-AF81-545272527AF8";
paths = (
{
closed = 1;
nodes = (
"264 852 LINE",
"264 1803 LINE",
"1154 1803 LINE",
"1154 1907 LINE",
"160 1907 LINE",
"160 852 LINE"
);
}
);
width = 1104;
}
);
note = g231;
},
{
glyphname = g232;
lastChange = "2016-11-30 01:19:36 +0000";
layers = (
{
layerId = "E7EC2184-43D4-43F6-AF81-545272527AF8";
paths = (
{
closed = 1;
nodes = (
"944 852 LINE",
"944 1907 LINE",
"-50 1907 LINE",
"-50 1803 LINE",
"840 1803 LINE",
"840 852 LINE"
);
}
);
width = 1104;
}
);
note = g232;
},
{
glyphname = guillemotleft;
lastChange = "2016-11-30 01:19:36 +0000";
layers = (
{
layerId = "E7EC2184-43D4-43F6-AF81-545272527AF8";
paths = (
{
closed = 1;
nodes = (
"938 68 LINE",
"651 419 LINE",
"938 769 LINE",
"821 838 LINE",
"477 431 LINE",
"477 404 LINE",
"821 -3 LINE"
);
},
{
closed = 1;
nodes = (
"543 68 LINE",
"254 419 LINE",
"543 769 LINE",
"424 838 LINE",
"82 431 LINE",
"82 404 LINE",
"424 -3 LINE"
);
}
);
width = 1018;
}
);
note = guillemotleft;
unicode = 00AB;
},
{
glyphname = guillemotright;
lastChange = "2016-11-30 01:19:36 +0000";
layers = (
{
layerId = "E7EC2184-43D4-43F6-AF81-545272527AF8";
paths = (
{
closed = 1;
nodes = (
"936 404 LINE",
"936 431 LINE",
"592 838 LINE",
"475 769 LINE",
"762 419 LINE",
"475 68 LINE",
"592 -3 LINE"
);
},
{
closed = 1;
nodes = (
"541 404 LINE",
"541 431 LINE",
"197 838 LINE",
"80 769 LINE",
"367 419 LINE",
"80 68 LINE",
"197 -3 LINE"
);
}
);
width = 1018;
}
);
note = guillemotright;
unicode = 00BB;
},
{
glyphname = asterisk;
lastChange = "2016-11-30 01:19:36 +0000";
layers = (
{
layerId = "E7EC2184-43D4-43F6-AF81-545272527AF8";
paths = (
{
closed = 1;
nodes = (
"428 848 LINE",
"561 585 LINE",
"692 657 LINE",
"518 899 LINE",
"792 927 LINE",
"772 1065 LINE",
"479 993 LINE",
"503 1280 LINE",
"356 1280 LINE",
"380 993 LINE",
"92 1065 LINE",
"70 927 LINE",
"341 899 LINE",
"172 657 LINE",
"306 585 LINE"
);
}
);
width = 862;
}
);
note = asterisk;
unicode = 002A;
},
{
glyphname = plus;
lastChange = "2016-11-30 01:19:36 +0000";
layers = (
{
layerId = "E7EC2184-43D4-43F6-AF81-545272527AF8";
paths = (
{
closed = 1;
nodes = (
"652 152 LINE",
"652 556 LINE",
"1043 556 LINE",
"1043 688 LINE",
"652 688 LINE",
"652 1094 LINE",
"520 1094 LINE",
"520 688 LINE",
"130 688 LINE",
"130 556 LINE",
"520 556 LINE",
"520 152 LINE"
);
}
);
width = 1173;
}
);
note = plus;
unicode = 002B;
},
{
glyphname = minus;
lastChange = "2016-11-30 01:19:36 +0000";
layers = (
{
layerId = "E7EC2184-43D4-43F6-AF81-545272527AF8";
paths = (
{
closed = 1;
nodes = (
"1043 556 LINE",
"1043 688 LINE",
"130 688 LINE",
"130 556 LINE"
);
}
);
width = 1173;
}
);
note = minus;
unicode = 2212;
},
{
glyphname = equal;
lastChange = "2016-11-30 01:19:36 +0000";
layers = (
{
layerId = "E7EC2184-43D4-43F6-AF81-545272527AF8";
paths = (
{
closed = 1;
nodes = (
"1029 751 LINE",
"1029 881 LINE",
"145 881 LINE",
"145 751 LINE"
);
},
{
closed = 1;
nodes = (
"1029 363 LINE",
"1029 493 LINE",
"145 493 LINE",
"145 363 LINE"
);
}
);
width = 1174;
}
);
note = equal;
unicode = 003D;
},
{
glyphname = slash;
lastChange = "2016-11-30 01:19:36 +0000";
layers = (
{
layerId = "E7EC2184-43D4-43F6-AF81-545272527AF8";
paths = (
{
closed = 1;
nodes = (
"232 -252 LINE",
"853 1420 LINE",
"712 1420 LINE",
"90 -252 LINE"
);
}
);
width = 943;
}
);
note = slash;
unicode = 002F;
},
{
glyphname = fraction;
lastChange = "2016-11-30 01:19:36 +0000";
layers = (
{
layerId = "E7EC2184-43D4-43F6-AF81-545272527AF8";
paths = (
{
closed = 1;
nodes = (
"177 -107 LINE",
"761 1260 LINE",
"617 1260 LINE",
"32 -107 LINE"
);
}
);
width = 813;
}
);
note = fraction;
unicode = 2044;
},
{
glyphname = backslash;
lastChange = "2016-11-30 01:19:36 +0000";
layers = (
{
layerId = "E7EC2184-43D4-43F6-AF81-545272527AF8";
paths = (
{
closed = 1;
nodes = (
"733 0 LINE",
"186 1462 LINE",
"23 1462 LINE",
"567 0 LINE"
);
}
);
width = 752;
}
);
note = backslash;
unicode = 005C;
},
{
glyphname = hyphen;
lastChange = "2016-11-30 01:19:36 +0000";
layers = (
{
layerId = "E7EC2184-43D4-43F6-AF81-545272527AF8";
paths = (
{
closed = 1;
nodes = (
"575 473 LINE",
"575 625 LINE",
"84 625 LINE",
"84 473 LINE"
);
}
);
width = 659;
}
);
note = hyphen;
unicode = 002D;
},
{
glyphname = degree;
lastChange = "2016-11-30 01:19:36 +0000";
layers = (
{
layerId = "E7EC2184-43D4-43F6-AF81-545272527AF8";
paths = (
{
closed = 1;
nodes = (
"548 667 OFFCURVE",
"675 794 OFFCURVE",
"675 947 CURVE SMOOTH",
"675 1111 OFFCURVE",
"551 1227 OFFCURVE",
"395 1227 CURVE SMOOTH",
"242 1227 OFFCURVE",
"115 1100 OFFCURVE",
"115 947 CURVE SMOOTH",
"115 786 OFFCURVE",
"235 667 OFFCURVE",
"395 667 CURVE SMOOTH"
);
},
{
closed = 1;
nodes = (
"295 771 OFFCURVE",
"219 847 OFFCURVE",
"219 947 CURVE SMOOTH",
"219 1050 OFFCURVE",
"295 1123 OFFCURVE",
"395 1123 CURVE SMOOTH",
"495 1123 OFFCURVE",
"571 1050 OFFCURVE",
"571 947 CURVE SMOOTH",
"571 847 OFFCURVE",
"495 771 OFFCURVE",
"395 771 CURVE SMOOTH"
);
}
);
width = 877;
}
);
note = degree;
unicode = 00B0;
},
{
glyphname = uni25CC;
lastChange = "2016-11-30 01:19:36 +0000";
layers = (
{
layerId = "E7EC2184-43D4-43F6-AF81-545272527AF8";
paths = (
{
closed = 1;
nodes = (
"1069 608 LINE",
"1060 689 OFFCURVE",
"1029 765 OFFCURVE",
"975 835 CURVE",
"930 788 LINE",
"967 737 OFFCURVE",
"993 677 OFFCURVE",
"1006 608 CURVE"
);
},
{
closed = 1;
nodes = (
"561 174 LINE",
"495 182 OFFCURVE",
"436 205 OFFCURVE",
"385 243 CURVE",
"338 198 LINE",
"409 146 OFFCURVE",
"484 116 OFFCURVE",
"561 108 CURVE"
);
},
{
closed = 1;
nodes = (
"311 323 LINE",
"271 376 OFFCURVE",
"246 435 OFFCURVE",
"235 499 CURVE",
"170 499 LINE",
"181 419 OFFCURVE",
"213 345 OFFCURVE",
"264 278 CURVE"
);
},
{
closed = 1;
nodes = (
"753 115 OFFCURVE",
"828 147 OFFCURVE",
"895 198 CURVE",
"848 245 LINE",
"795 205 OFFCURVE",
"736 180 OFFCURVE",
"672 169 CURVE",
"672 104 LINE"
);
},
{
closed = 1;
nodes = (
"235 608 LINE",
"244 671 OFFCURVE",
"268 731 OFFCURVE",
"307 786 CURVE",
"262 833 LINE",
"210 765 OFFCURVE",
"180 690 OFFCURVE",
"172 608 CURVE"
);
},
{
closed = 1;
nodes = (
"437 903 OFFCURVE",
"496 928 OFFCURVE",
"561 939 CURVE",
"561 1005 LINE",
"481 994 OFFCURVE",
"407 962 OFFCURVE",
"340 911 CURVE",
"385 864 LINE"
);
},
{
closed = 1;
nodes = (
"1031 347 OFFCURVE",
"1061 422 OFFCURVE",
"1069 499 CURVE",
"1003 499 LINE",
"995 438 OFFCURVE",
"971 379 OFFCURVE",
"932 323 CURVE",
"979 276 LINE"
);
},
{
closed = 1;
nodes = (
"895 915 LINE",
"824 967 OFFCURVE",
"750 997 OFFCURVE",
"672 1005 CURVE",
"672 939 LINE",
"735 931 OFFCURVE",
"795 907 OFFCURVE",
"850 868 CURVE"
);
}
);
width = 1239;
}
);
note = uni25CC;
unicode = 25CC;
},
{
glyphname = uni2670;
lastChange = "2016-11-30 01:19:36 +0000";
layers = (
{
layerId = "E7EC2184-43D4-43F6-AF81-545272527AF8";
paths = (
{
closed = 1;
nodes = (
"913 -212 LINE",
"1094 -321 LINE",
"1174 -233 LINE",
"991 -96 LINE",
"991 722 LINE",
"1428 722 LINE",
"1564 548 LINE",
"1652 612 LINE",
"1543 794 LINE",
"1652 975 LINE",
"1564 1046 LINE",
"1428 872 LINE",
"991 872 LINE",
"991 1327 LINE",
"1174 1463 LINE",
"1101 1551 LINE",
"919 1442 LINE",
"738 1551 LINE",
"658 1463 LINE",
"841 1326 LINE",
"841 872 LINE",
"404 872 LINE",
"268 1046 LINE",
"180 982 LINE",
"288 800 LINE",
"180 619 LINE",
"268 548 LINE",
"404 722 LINE",
"841 722 LINE",
"841 -97 LINE",
"658 -233 LINE",
"731 -321 LINE"
);
}
);
width = 1832;
}
);
note = uni2670;
unicode = 2670;
},
{
glyphname = uni2671;
lastChange = "2016-11-30 01:19:36 +0000";
layers = (
{
layerId = "E7EC2184-43D4-43F6-AF81-545272527AF8";
paths = (
{
closed = 1;
nodes = (
"979 -321 OFFCURVE",
"1086 -292 OFFCURVE",
"1131 -257 CURVE",
"1131 -209 LINE",
"971 -152 LINE",
"971 722 LINE",
"1444 722 LINE",
"1500 562 LINE",
"1548 562 LINE",
"1580 602 OFFCURVE",
"1612 705 OFFCURVE",
"1612 793 CURVE SMOOTH",
"1612 880 OFFCURVE",
"1583 987 OFFCURVE",
"1548 1032 CURVE",
"1500 1032 LINE",
"1443 872 LINE",
"971 872 LINE",
"971 1383 LINE",
"1131 1439 LINE",
"1131 1487 LINE",
"1087 1522 OFFCURVE",
"987 1551 OFFCURVE",
"900 1551 CURVE SMOOTH",
"812 1551 OFFCURVE",
"701 1519 OFFCURVE",
"661 1487 CURVE",
"661 1439 LINE",
"821 1382 LINE",
"821 872 LINE",
"348 872 LINE",
"292 1032 LINE",
"244 1032 LINE",
"209 988 OFFCURVE",
"180 888 OFFCURVE",
"180 801 CURVE SMOOTH",
"180 713 OFFCURVE",
"212 602 OFFCURVE",
"244 562 CURVE",
"292 562 LINE",
"349 722 LINE",
"821 722 LINE",
"821 -153 LINE",
"661 -209 LINE",
"661 -257 LINE",
"701 -289 OFFCURVE",
"804 -321 OFFCURVE",
"892 -321 CURVE SMOOTH"
);
}
);
width = 1792;
}
);
note = uni2671;
unicode = 2671;
},
{
glyphname = g247;
lastChange = "2016-11-30 01:19:36 +0000";
layers = (
{
layerId = "E7EC2184-43D4-43F6-AF81-545272527AF8";
paths = (
{
closed = 1;
nodes = (
"505 -78 OFFCURVE",
"627 117 OFFCURVE",
"627 296 CURVE SMOOTH",
"627 472 OFFCURVE",
"527 581 OFFCURVE",
"383 581 CURVE SMOOTH",
"248 581 OFFCURVE",
"140 448 OFFCURVE",
"140 323 CURVE SMOOTH",
"140 226 OFFCURVE",
"194 145 OFFCURVE",
"283 83 CURVE SMOOTH",
"328 52 OFFCURVE",
"352 27 OFFCURVE",
"355 9 CURVE",
"306 -55 OFFCURVE",
"236 -119 OFFCURVE",
"172 -178 CURVE",
"277 -267 LINE"
);
},
{
closed = 1;
nodes = (
"274 750 OFFCURVE",
"313 790 OFFCURVE",
"313 865 CURVE SMOOTH",
"313 941 OFFCURVE",
"275 981 OFFCURVE",
"207 981 CURVE SMOOTH",
"143 981 OFFCURVE",
"106 941 OFFCURVE",
"106 865 CURVE SMOOTH",
"106 782 OFFCURVE",
"148 750 OFFCURVE",
"207 750 CURVE SMOOTH"
);
},
{
closed = 1;
nodes = (
"620 750 OFFCURVE",
"659 790 OFFCURVE",
"659 865 CURVE SMOOTH",
"659 941 OFFCURVE",
"621 981 OFFCURVE",
"553 981 CURVE SMOOTH",
"489 981 OFFCURVE",
"452 941 OFFCURVE",
"452 865 CURVE SMOOTH",
"452 782 OFFCURVE",
"494 750 OFFCURVE",
"553 750 CURVE SMOOTH"
);
}
);
width = 747;
}
);
note = g247;
},
